<svg xmlns="http://www.w3.org/2000/svg" xmlns:xlink="http://www.w3.org/1999/xlink" width="146" height="146" viewBox="0 0 146 146">
  <defs>
    <clipPath id="clip-path">
      <rect id="Rectángulo_378558" data-name="Rectángulo 378558" width="101.01" height="104.791" fill="none"/>
    </clipPath>
  </defs>
  <g id="Grupo_1076546" data-name="Grupo 1076546" transform="translate(-1147 -2843)">
    <circle id="Elipse_5864" data-name="Elipse 5864" cx="73" cy="73" r="73" transform="translate(1147 2843)" fill="#fffad0"/>
    <g id="Grupo_1076545" data-name="Grupo 1076545" transform="translate(1169 2863.5)">
      <g id="Grupo_1076544" data-name="Grupo 1076544" clip-path="url(#clip-path)">
        <path id="Trazado_823120" data-name="Trazado 823120" d="M287.959,420.356H271.243a1.313,1.313,0,0,1,0-2.626h16.716a1.313,1.313,0,1,1,0,2.626" transform="translate(-210.87 -326.331)" fill="#344c60"/>
        <path id="Trazado_823121" data-name="Trazado 823121" d="M197.485,420.356h-9.592a1.313,1.313,0,1,1,0-2.626h9.592a1.313,1.313,0,1,1,0,2.626" transform="translate(-145.757 -326.331)" fill="#344c60"/>
        <path id="Trazado_823122" data-name="Trazado 823122" d="M88.316,420.356H71.493a1.313,1.313,0,1,1,0-2.626H88.316a1.313,1.313,0,1,1,0,2.626" transform="translate(-54.825 -326.331)" fill="#344c60"/>
        <path id="Trazado_823123" data-name="Trazado 823123" d="M184.768,19.243c-4.476,0-8.257-4.886-8.257-10.669,0-5.209,3.241-8.575,8.257-8.575s8.26,3.366,8.26,8.575c0,4.532-2.351,8.7-5.718,10.139a1.311,1.311,0,0,1-1.246-.116,1.311,1.311,0,0,1-1.076.643c-.072,0-.148,0-.22,0m.167-2.628a1.307,1.307,0,0,1,.729.222,1.307,1.307,0,0,1,.614-.538c2.389-1.02,4.123-4.269,4.123-7.724,0-5.37-3.94-5.949-5.634-5.949s-5.632.58-5.632,5.949c0,4.285,2.631,8.043,5.632,8.043.037,0,.076,0,.113,0h.055" transform="translate(-137.891 0)" fill="#344c60"/>
        <path id="Trazado_823124" data-name="Trazado 823124" d="M10.929,88.87A10.93,10.93,0,1,1,21.86,77.941,10.942,10.942,0,0,1,10.929,88.87m0-19.235a8.3,8.3,0,1,0,8.306,8.306,8.314,8.314,0,0,0-8.306-8.306" transform="translate(0 -52.348)" fill="#344c60"/>
        <path id="Trazado_823125" data-name="Trazado 823125" d="M33.45,102.51a1.313,1.313,0,0,1-1.2-.776l-1.838-4.1a1.313,1.313,0,1,1,2.4-1.074l.681,1.518a30.006,30.006,0,0,1,3.134-4.91,1.313,1.313,0,0,1,2.048,1.644,31.5,31.5,0,0,0-4.022,6.915,1.313,1.313,0,0,1-1.2.781Z" transform="translate(-23.669 -72.401)" fill="#344c60"/>
        <path id="Trazado_823126" data-name="Trazado 823126" d="M340.461,61.084h-7.424a1.113,1.113,0,0,1-1.113-1.113V47.66a15.272,15.272,0,0,1,6.952-12.823l8.092-5.272-2.141-3.188a1.879,1.879,0,0,1,1.926-2.89l12.04,2.368a1.877,1.877,0,0,1,1.481,2.2L357.9,40.1a1.878,1.878,0,0,1-3.4.684l-2.153-3.207-8.206,5.345a5.63,5.63,0,0,0-2.568,4.735V59.971a1.113,1.113,0,0,1-1.113,1.113m-6.31-2.227h5.2V47.66a7.849,7.849,0,0,1,3.58-6.6l9.126-5.945a1.113,1.113,0,0,1,1.532.312l2.3,3.419,2.139-10.872-10.876-2.139,2.3,3.427a1.114,1.114,0,0,1-.316,1.554L340.09,36.7a13.12,13.12,0,0,0-2.519,2.135h0a13.016,13.016,0,0,0-3.419,8.821Zm21.567-19.184h0Zm-18.969-1.587h0Zm9.57-12.415h0Z" transform="translate(-259.299 -18.319)" fill="#344c60"/>
        <path id="Trazado_823127" data-name="Trazado 823127" d="M221.4,171.262a26.411,26.411,0,0,1-5.208-.523,2.439,2.439,0,0,1-1.962-2.171c-.3-3.129-.614-6.241-.931-9.248-1.463-13.869-3.072-25.98-4.784-36a1.313,1.313,0,1,1,2.588-.442c1.721,10.072,3.339,22.239,4.808,36.163.313,2.974.623,6.049.921,9.143a24.711,24.711,0,0,0,10.538-.266,9.285,9.285,0,0,0-3.626-2.994,2.467,2.467,0,0,1-1.271-1.82q-.253-1.838-.523-3.743c-1.359-9.652-2.96-20.41-4.373-29.9l-.251-1.685q-.008-.05-.011-.1c-.093-1.316-.175-2.7-.242-4.1-.218-4.522-.328-9.539-.435-14.391-.091-4.136-.176-8.042-.323-11.509a1.313,1.313,0,0,1,2.345-.865c.572.73,1.11,1.351,1.63,1.952a23.214,23.214,0,0,1,4.38,6.745c1.07,2.447.967,4.621-.307,6.463-.316.648-.7,1.363-1.1,2.117-1.543,2.879-3.464,6.461-3.321,9.349a4.515,4.515,0,0,0,.437,1.8,6.4,6.4,0,0,0,2.964,1.607c-1.489-3.623,1.126-7.551,3.445-11.035,1.59-2.388,3.234-4.858,2.979-6.439a40.213,40.213,0,0,0-2.839-9.442l-.3-.782c-2.1-5.377-4.644-9.148-6.646-9.84a32.281,32.281,0,0,0-7.054-1.6,1.313,1.313,0,0,1,.28-2.611,34.919,34.919,0,0,1,7.631,1.725c3.824,1.322,6.8,7.692,8.237,11.372l.3.784a42.741,42.741,0,0,1,2.983,9.973c.419,2.6-1.429,5.374-3.385,8.312-2.121,3.185-4.313,6.48-3.074,8.858a2.357,2.357,0,0,1-.21,2.533,2.332,2.332,0,0,1-2.354.889,11.279,11.279,0,0,1-3.274-1.239l.116.775c1.413,9.5,3.016,20.261,4.376,29.922q.263,1.861.511,3.657a11.542,11.542,0,0,1,4.652,4.05,2.456,2.456,0,0,1-1.5,3.715,29.412,29.412,0,0,1-6.813.84m2.168-43.927h0m-4.494-25.958c.073,2.45.13,5.052.189,7.751.048,2.207.1,4.45.157,6.662.5-1.029,1.029-2.018,1.525-2.942.411-.767.8-1.492,1.1-2.116a1.322,1.322,0,0,1,.116-.2c.791-1.1.823-2.328.1-3.977a19.262,19.262,0,0,0-3.19-5.182" transform="translate(-162.88 -66.472)" fill="#344c60"/>
        <path id="Trazado_823128" data-name="Trazado 823128" d="M137.373,115.846a3.469,3.469,0,0,1-.926-.126c-1.771-.49-3.02-2.415-3.262-5.024-.269-3.162-.724-11.178.847-17.508a8.785,8.785,0,0,1,4.568-5.7,26.285,26.285,0,0,1,9.786-2.746,1.313,1.313,0,1,1,.219,2.616,23.672,23.672,0,0,0-8.815,2.47,6.16,6.16,0,0,0-3.21,3.991c-1.476,5.948-1.037,13.62-.78,16.642.131,1.418.685,2.543,1.346,2.726.583.161,1.721-.373,3.172-2.355a1.313,1.313,0,1,1,2.119,1.551c-2,2.726-3.752,3.46-5.064,3.46" transform="translate(-103.83 -66.199)" fill="#344c60"/>
        <path id="Trazado_823129" data-name="Trazado 823129" d="M130.458,252.195a29.41,29.41,0,0,1-6.812-.84,2.456,2.456,0,0,1-1.5-3.716,11.557,11.557,0,0,1,4.652-4.051q.247-1.792.511-3.656c1.332-9.47,2.9-20.039,4.293-29.363l.327-2.2c.264-3.444.649-9.239.876-13.885.093-1.88.151-3.4.174-4.511a1.313,1.313,0,1,1,2.625.053c-.023,1.139-.082,2.682-.176,4.587-.229,4.691-.619,10.548-.884,14,0,.031-.006.062-.01.093l-.334,2.243c-1.387,9.319-2.96,19.882-4.29,29.343q-.269,1.906-.522,3.738a2.455,2.455,0,0,1-1.276,1.827,9.287,9.287,0,0,0-3.621,2.992,24.7,24.7,0,0,0,10.537.266c.3-3.1.608-6.175.921-9.143,1.469-13.925,3.086-26.092,4.808-36.163a1.313,1.313,0,1,1,2.588.442c-1.712,10.017-3.322,22.128-4.784,36-.316,3-.629,6.111-.931,9.246a2.471,2.471,0,0,1-1.962,2.172,26.407,26.407,0,0,1-5.209.524" transform="translate(-95.116 -147.404)" fill="#344c60"/>
        <path id="Trazado_823130" data-name="Trazado 823130" d="M157.117,104.476a1.313,1.313,0,0,1-1.131-1.978c.557-.947,1.1-1.888,1.615-2.8l.123-.214c.068-.12.137-.24.2-.359a182.544,182.544,0,0,0,8.961-18.224c.5-1.123,1.02-2.3,1.581-3.554.019-.043.04-.093.06-.144a.813.813,0,0,0,.079-.535.486.486,0,0,0-.3-.113,1.72,1.72,0,0,0-1.032.252l-.041.023c-.028.015-.054.033-.081.05a13.453,13.453,0,0,0-2,1.653c-3.133,3.094-6.266,8.418-9.576,16.277a1.313,1.313,0,1,1-2.419-1.02c3.447-8.182,6.768-13.784,10.151-17.125a16.1,16.1,0,0,1,2.411-1.986c.089-.057.166-.105.244-.148a4.323,4.323,0,0,1,2.663-.582,2.977,2.977,0,0,1,2.228,1.366,3.121,3.121,0,0,1,.122,2.828c-.036.093-.071.177-.11.265-.564,1.261-1.085,2.435-1.582,3.556a184.658,184.658,0,0,1-9.072,18.444c-.067.12-.14.248-.213.376l-.118.207c-.522.92-1.072,1.873-1.636,2.832a1.313,1.313,0,0,1-1.133.648" transform="translate(-119.57 -57.752)" fill="#344c60"/>
      </g>
    </g>
  </g>
</svg>
