<svg xmlns="http://www.w3.org/2000/svg" xmlns:xlink="http://www.w3.org/1999/xlink" width="146" height="146" viewBox="0 0 146 146">
  <defs>
    <clipPath id="clip-path">
      <rect id="Rectángulo_378556" data-name="Rectángulo 378556" width="107.217" height="104.582" fill="none"/>
    </clipPath>
  </defs>
  <g id="Grupo_1076547" data-name="Grupo 1076547" transform="translate(-727 -2843)">
    <circle id="Elipse_5863" data-name="Elipse 5863" cx="73" cy="73" r="73" transform="translate(727 2843)" fill="#fffad0"/>
    <g id="Grupo_1076540" data-name="Grupo 1076540" transform="translate(746.392 2863.709)">
      <g id="Grupo_1076539" data-name="Grupo 1076539" clip-path="url(#clip-path)">
        <path id="Trazado_823092" data-name="Trazado 823092" d="M202.931,408.263H190.348a1.366,1.366,0,1,1,0-2.733h12.582a1.366,1.366,0,1,1,0,2.733" transform="translate(-145.945 -313.178)" fill="#344c60"/>
        <path id="Trazado_823093" data-name="Trazado 823093" d="M129.571,408.263h-6.982a1.366,1.366,0,1,1,0-2.733h6.982a1.366,1.366,0,1,1,0,2.733" transform="translate(-93.616 -313.178)" fill="#344c60"/>
        <path id="Trazado_823094" data-name="Trazado 823094" d="M42.448,408.263H29.758a1.366,1.366,0,1,1,0-2.733H42.448a1.366,1.366,0,1,1,0,2.733" transform="translate(-21.926 -313.178)" fill="#344c60"/>
        <path id="Trazado_823095" data-name="Trazado 823095" d="M208.057,168.9c-2.834,0-6.046,0-7.152-4.77a6.593,6.593,0,0,0-3.635-4.048,6.028,6.028,0,0,0-5.33.324c-4.164,2.6-6.434.325-8.438-1.679s-4.274-4.274-1.682-8.428a6.6,6.6,0,0,0,.292-5.425,6.022,6.022,0,0,0-4-3.547,8.732,8.732,0,0,1-1.793-.6,1.366,1.366,0,1,1,1.173-2.468,6.117,6.117,0,0,0,1.225.4,8.705,8.705,0,0,1,5.927,5.188c.017.039.033.079.046.12h0a9.209,9.209,0,0,1-.56,7.784c-1.436,2.3-.691,3.048,1.3,5.04s2.739,2.738,5.05,1.3a8.714,8.714,0,0,1,7.875-.518h0c.034.014.068.03.1.047a9.2,9.2,0,0,1,5.109,5.9c.612,2.642,1.667,2.642,4.487,2.642s3.872,0,4.488-2.654a8.7,8.7,0,0,1,5.144-5.911,1.4,1.4,0,0,1,.164-.065,9.217,9.217,0,0,1,7.786.563c2.3,1.434,3.046.689,5.039-1.3s2.738-2.738,1.3-5.049a9.226,9.226,0,0,1-.552-7.778,1.346,1.346,0,0,1,.077-.188,9.223,9.223,0,0,1,5.905-5.12c2.645-.613,2.645-1.667,2.645-4.485s0-3.874-2.656-4.49a8.7,8.7,0,0,1-5.921-5.172,1.413,1.413,0,0,1-.052-.135,9.2,9.2,0,0,1,.56-7.785c1.437-2.3.691-3.048-1.3-5.041s-2.738-2.74-5.049-1.3a8.7,8.7,0,0,1-7.819.539,1.341,1.341,0,0,1-.159-.068,9.211,9.211,0,0,1-5.108-5.9c-.612-2.643-1.667-2.643-4.485-2.643s-3.875,0-4.49,2.654a8.7,8.7,0,0,1-5.187,5.928q-.059.025-.12.045h0a9.215,9.215,0,0,1-7.786-.56c-2.3-1.437-3.047-.691-5.04,1.3-.309.31-.6.6-.859.881a1.366,1.366,0,1,1-2.008-1.854c.294-.318.605-.63.935-.959,2-2,4.276-4.275,8.428-1.682a6.6,6.6,0,0,0,5.428.292,6.013,6.013,0,0,0,3.544-4c1.108-4.782,4.321-4.782,7.155-4.782s6.044,0,7.15,4.77a6.591,6.591,0,0,0,3.616,4.038,6.024,6.024,0,0,0,5.35-.314c4.162-2.6,6.434-.328,8.437,1.677s4.275,4.275,1.682,8.43a6.592,6.592,0,0,0-.293,5.423,6.02,6.02,0,0,0,4,3.547c4.784,1.109,4.784,4.321,4.784,7.155s0,6.044-4.772,7.149a6.209,6.209,0,0,0-3.723,8.966c2.6,4.163.327,6.434-1.677,8.437s-4.275,4.275-8.428,1.685a6.6,6.6,0,0,0-5.417-.3,6.023,6.023,0,0,0-3.556,4c-1.109,4.782-4.32,4.782-7.153,4.782" transform="translate(-135.565 -76.802)" fill="#344c60"/>
        <path id="Trazado_823096" data-name="Trazado 823096" d="M278.967,224.177a11.6,11.6,0,1,1,11.6-11.6,11.617,11.617,0,0,1-11.6,11.6m0-20.475a8.871,8.871,0,1,0,8.87,8.873,8.883,8.883,0,0,0-8.87-8.873" transform="translate(-206.475 -155.202)" fill="#344c60"/>
        <path id="Trazado_823097" data-name="Trazado 823097" d="M255.822,207.859a18.429,18.429,0,1,1,18.428-18.428,18.45,18.45,0,0,1-18.428,18.428m0-34.126a15.7,15.7,0,1,0,15.7,15.7,15.715,15.715,0,0,0-15.7-15.7" transform="translate(-183.33 -132.058)" fill="#344c60"/>
        <path id="Trazado_823098" data-name="Trazado 823098" d="M114.441,19.132c-4.455,0-8.219-4.854-8.219-10.6,0-5.184,3.226-8.533,8.219-8.533s8.221,3.349,8.221,8.533c0,5.745-3.765,10.6-8.221,10.6m0-16.4c-1.649,0-5.486.565-5.486,5.8,0,4.19,2.564,7.866,5.486,7.866s5.489-3.676,5.489-7.866c0-5.235-3.838-5.8-5.489-5.8" transform="translate(-82.032 0)" fill="#344c60"/>
        <path id="Trazado_823099" data-name="Trazado 823099" d="M64.013,128.746a1.367,1.367,0,0,1-1.118-2.15l6.732-9.615a1.424,1.424,0,0,1,.114-.142,3.8,3.8,0,0,0,.983-2.963c-.058-.547-.111-1.114-.164-1.709q-.051-.561-.1-1.155c-.19-2.147-.406-4.581-.784-7.478-.178-1.358-.366-2.638-.574-3.912-1.246-7.65-4.056-7.991-13.613-7.991-9.428,0-11.945.314-13.183,7.917-.437,2.684-.638,4.773-.815,6.616a29.819,29.819,0,0,1-1.063,6.406,1.366,1.366,0,0,1-1.89.818A53.521,53.521,0,0,0,32.75,111.1c-.662-.231-1.346-.469-2.042-.724a1.366,1.366,0,1,1,.94-2.566c.676.248,1.35.483,2,.71,1.449.505,2.936,1.023,4.56,1.72a41.433,41.433,0,0,0,.558-4.34c.172-1.791.387-4.02.838-6.793.786-4.825,2.3-7.478,5.06-8.868C47.2,88.965,50.428,88.9,55.485,88.9c8.813,0,14.636,0,16.311,10.284.212,1.3.4,2.609.587,4,.384,2.955.6,5.418.8,7.591q.052.591.1,1.151c.052.582.1,1.135.16,1.67a6.534,6.534,0,0,1-1.625,5.025l-6.683,9.544a1.365,1.365,0,0,1-1.12.583" transform="translate(-23.021 -68.655)" fill="#344c60"/>
        <path id="Trazado_823100" data-name="Trazado 823100" d="M33.54,178.371c-3.552,0-7.709-2.725-10.812-4.759-.516-.338-1.013-.664-1.484-.964a1.366,1.366,0,0,1,1.466-2.306c.482.307.989.639,1.516.984,5.193,3.4,9.663,5.978,11.764,2.975a22.482,22.482,0,0,0,3.1-10.378,1.366,1.366,0,1,1,2.732.064,24.884,24.884,0,0,1-3.593,11.88,5.441,5.441,0,0,1-4.69,2.5" transform="translate(-15.917 -125.562)" fill="#344c60"/>
        <path id="Trazado_823101" data-name="Trazado 823101" d="M147.844,207.945a26.119,26.119,0,0,1-5.149-.517,2.506,2.506,0,0,1-1.993-2.212c-.216-2.236-.424-4.792-.656-8.038-.145-2.023-.28-4.052-.423-6.2-.672-10.091-1.366-20.525-3.053-30.393a1.366,1.366,0,0,1,2.694-.46c1.71,10.006,2.409,20.512,3.086,30.672.14,2.1.278,4.17.422,6.187.224,3.137.426,5.622.634,7.8a24.288,24.288,0,0,0,10.213-.249,9.21,9.21,0,0,0-3.492-2.847,2.5,2.5,0,0,1-1.291-1.848c-.112-.816-.221-1.663-.334-2.593-.549-4.537-.96-9.443-1.358-14.187-.476-5.677-.969-11.548-1.7-16.817q-.088-.637-.181-1.265c0-.034-.009-.067-.011-.1-.065-.918-.122-1.831-.17-2.712-.1-1.836-.187-3.914-.266-6.354-.1-3.012-.165-6.146-.232-9.178-.09-4.084-.174-7.941-.319-11.364a1.366,1.366,0,1,1,2.73-.115c.146,3.451.231,7.321.321,11.419.066,3.025.135,6.152.231,9.15.078,2.419.164,4.478.263,6.294.046.851.1,1.731.163,2.617.06.408.119.82.176,1.235.741,5.343,1.236,11.251,1.716,16.964.4,4.72.805,9.6,1.348,14.088.1.867.206,1.66.31,2.418a11.454,11.454,0,0,1,4.584,4.006,2.495,2.495,0,0,1-1.52,3.774,29.147,29.147,0,0,1-6.744.831m-4.422-2.988v0m10.389-.137h0m-2.4-5.546h0" transform="translate(-105.454 -103.362)" fill="#344c60"/>
        <path id="Trazado_823102" data-name="Trazado 823102" d="M69.591,207.943a29.114,29.114,0,0,1-6.739-.83,2.5,2.5,0,0,1-1.525-3.775,11.45,11.45,0,0,1,4.584-4.005c.1-.747.2-1.541.31-2.417.545-4.5.956-9.395,1.353-14.128.515-6.144,1.048-12.5,1.887-18.161.378-5.315.522-11.807.661-18.085.036-1.632.072-3.247.111-4.819.069-2.769.133-4.8.208-6.573a1.366,1.366,0,1,1,2.73.116c-.075,1.76-.138,3.773-.206,6.525-.039,1.57-.075,3.182-.111,4.811-.14,6.332-.285,12.879-.671,18.272,0,.035-.006.069-.011.1-.831,5.59-1.362,11.919-1.875,18.04-.4,4.758-.812,9.677-1.363,14.228-.113.939-.222,1.786-.333,2.589a2.5,2.5,0,0,1-1.294,1.853,9.2,9.2,0,0,0-3.489,2.846,24.29,24.29,0,0,0,10.215.249c.208-2.176.41-4.661.634-7.8.143-2,.279-4.055.418-6.142.676-10.175,1.375-20.7,3.089-30.718a1.366,1.366,0,1,1,2.694.461c-1.69,9.883-2.385,20.333-3.056,30.438-.139,2.091-.276,4.147-.419,6.155-.232,3.246-.44,5.8-.656,8.043a2.482,2.482,0,0,1-1.993,2.206,26.145,26.145,0,0,1-5.151.517m-3.571-8.669h0" transform="translate(-47.056 -103.361)" fill="#344c60"/>
        <path id="Trazado_823103" data-name="Trazado 823103" d="M18.327,123.3a1.367,1.367,0,0,1-1.019-.456l-2.758-3.086a1.365,1.365,0,0,1-.28-1.335l1.58-4.837a1.366,1.366,0,0,1,2.6.849l-1.336,4.089,1.705,1.908,2.5-.532,1.336-4.086a1.366,1.366,0,1,1,2.6.849l-1.58,4.835a1.366,1.366,0,0,1-1.015.912l-4.049.861a1.37,1.37,0,0,1-.284.03" transform="translate(-10.968 -86.995)" fill="#344c60"/>
        <path id="Trazado_823104" data-name="Trazado 823104" d="M4.827,203.931a1.368,1.368,0,0,1-1.3-1.788l1.6-4.939a1.366,1.366,0,0,1,2.6.842l-1.6,4.94a1.367,1.367,0,0,1-1.3.946" transform="translate(-2.672 -151.564)" fill="#344c60"/>
        <path id="Trazado_823105" data-name="Trazado 823105" d="M22.277,153.968a1.368,1.368,0,0,1-1.3-1.788l1.23-3.8a1.366,1.366,0,1,1,2.6.842l-1.23,3.8a1.367,1.367,0,0,1-1.3.946" transform="translate(-16.148 -113.862)" fill="#344c60"/>
        <path id="Trazado_823106" data-name="Trazado 823106" d="M4.656,171.5a6.6,6.6,0,0,1-1.135-.1,6.416,6.416,0,0,1-2.354-.9c-1.641-1.051-1.251-3.67-.634-5.681a13.226,13.226,0,0,1,.529-1.42c1.334-3.023,2.938-3,3.774-2.717a11.786,11.786,0,0,1,1.961.863,7.312,7.312,0,0,1,2.474,2.106,4.585,4.585,0,0,1,.616,4.292,5.081,5.081,0,0,1-3.429,3.3,6.145,6.145,0,0,1-1.8.265M2.77,168.275a3.7,3.7,0,0,0,1.218.434h0a3.592,3.592,0,0,0,1.668-.088,2.394,2.394,0,0,0,1.64-1.559,1.862,1.862,0,0,0-.255-1.832,4.726,4.726,0,0,0-1.576-1.3,8.792,8.792,0,0,0-1.245-.569,4.545,4.545,0,0,0-.661,1.136,10.616,10.616,0,0,0-.416,1.116,6.592,6.592,0,0,0-.376,2.662" transform="translate(0 -123.994)" fill="#344c60"/>
      </g>
    </g>
  </g>
</svg>
