<svg id="Grupo_1076474" data-name="Grupo 1076474" xmlns="http://www.w3.org/2000/svg" xmlns:xlink="http://www.w3.org/1999/xlink" width="358" height="220.215" viewBox="0 0 358 220.215">
  <defs>
    <clipPath id="clip-path">
      <rect id="Rectángulo_378096" data-name="Rectángulo 378096" width="358" height="220.215" fill="none"/>
    </clipPath>
    <clipPath id="clip-path-2">
      <rect id="Rectángulo_378095" data-name="Rectángulo 378095" width="357.998" height="220.215" fill="none"/>
    </clipPath>
    <clipPath id="clip-path-3">
      <rect id="Rectángulo_378084" data-name="Rectángulo 378084" width="38.997" height="38.12" fill="none"/>
    </clipPath>
    <clipPath id="clip-path-4">
      <rect id="Rectángulo_378085" data-name="Rectángulo 378085" width="37.682" height="36.835" fill="none"/>
    </clipPath>
    <clipPath id="clip-path-5">
      <rect id="Rectángulo_378086" data-name="Rectángulo 378086" width="12.986" height="9.266" fill="none"/>
    </clipPath>
    <clipPath id="clip-path-6">
      <rect id="Rectángulo_378087" data-name="Rectángulo 378087" width="16.757" height="11.708" fill="none"/>
    </clipPath>
  </defs>
  <g id="Grupo_1075555" data-name="Grupo 1075555" clip-path="url(#clip-path)">
    <g id="Grupo_1075554" data-name="Grupo 1075554">
      <g id="Grupo_1075553" data-name="Grupo 1075553" clip-path="url(#clip-path-2)">
        <path id="Trazado_820249" data-name="Trazado 820249" d="M39.876,138.257C13.707,156.673,11.9,192.276,27.283,217.99c16.458.6,319.818,2.272,321.109,0C377.875,166.141,382.2,73.763,333.308,31.241c-16.215-14.1-36.644-23.109-57.819-27.767-28.683-6.31-60.065-4.545-85.651,9.612-30.285,16.757-43.893,49.115-64.1,75.062-9.955,12.785-21.477,24.175-36.752,30.594-16.132,6.779-34.254,9.2-48.829,19.315l-.285.2" transform="translate(-12.381 0)" fill="#f5eabc"/>
        <path id="Trazado_820250" data-name="Trazado 820250" d="M194.73,100.752c9.748,8.28,7.5,28.2,1.722,38.589-11.223,20.174-35.357,40.894-60.143,40.77-12.374-.062-25.3-9-23.141-22.261,1.342-8.254,7.222-15.052,13.3-20.933,10.8-10.459,22.929-19.475,35.275-28.107,9.165-6.408,21.9-17.479,32.99-8.059" transform="translate(-79.786 -69.247)" fill="#f5eabc"/>
        <path id="Trazado_820251" data-name="Trazado 820251" d="M403.484,239.052s8.362-5.928,7.93-15.361c-.253-5.528-5.019-13.544-5.019-13.544s-21.945.008-23.708,4.593.281,24.553.281,24.553Z" transform="translate(-269.863 -149.857)" fill="#e38064"/>
        <path id="Trazado_820252" data-name="Trazado 820252" d="M453.36,227.7a3.412,3.412,0,0,0,3.243-1.743c3.959-7.226,9.243-15.837,10.878-17.149a3.268,3.268,0,0,0,.469-4.67,3.45,3.45,0,0,0-4.778-.458c-3.422,2.749-10.474,15.349-12.552,19.144a3.28,3.28,0,0,0,1.389,4.491,3.451,3.451,0,0,0,1.351.385" transform="translate(-318.079 -144.709)" fill="#e38064"/>
        <path id="Trazado_820253" data-name="Trazado 820253" d="M422.141,259.074a.3.3,0,0,0,.042,0,.278.278,0,0,0,.26-.3c-.823-10.9,9.111-12.656,9.535-12.726a.279.279,0,0,0,.232-.319.284.284,0,0,0-.325-.227c-.109.018-10.868,1.906-10.006,13.313a.28.28,0,0,0,.261.255" transform="translate(-298.024 -175.068)" fill="#3c251d"/>
        <path id="Trazado_820254" data-name="Trazado 820254" d="M422.756,186.652l-29.809,17.241a2.227,2.227,0,0,1-3.012-.755l-1.176-1.944a2.122,2.122,0,0,1,.772-2.944l29.809-17.241Z" transform="translate(-274.443 -129.079)" fill="#763424"/>
        <path id="Trazado_820410" data-name="Trazado 820410" d="M0,0,7.713.076l.08,7.965L.08,7.965Z" transform="translate(138.312 54.852) rotate(-30.611)" fill="#add9e0"/>
        <g id="Grupo_1075543" data-name="Grupo 1075543" transform="translate(144.248 26.433)" opacity="0.33">
          <g id="Grupo_1075542" data-name="Grupo 1075542">
            <g id="Grupo_1075541" data-name="Grupo 1075541" clip-path="url(#clip-path-3)">
              <path id="Trazado_820255" data-name="Trazado 820255" d="M527.756,101.491a19.748,19.748,0,0,0-26.706-6.7,18.819,18.819,0,0,0-6.851,26.1,19.747,19.747,0,0,0,26.706,6.7,18.819,18.819,0,0,0,6.851-26.1" transform="translate(-491.479 -92.135)" fill="#cee1df"/>
            </g>
          </g>
        </g>
        <path id="Trazado_820256" data-name="Trazado 820256" d="M490.26,180.107a14.373,14.373,0,0,1-1.578-3.687l-3.027,1.751a17.706,17.706,0,0,0,1.67,3.634,17.949,17.949,0,0,0,2.455,3.18l3.027-1.751a14.591,14.591,0,0,1-2.547-3.127" transform="translate(-343.116 -125.806)" fill="#3c251d"/>
        <path id="Trazado_820257" data-name="Trazado 820257" d="M517.129,124.438a21.8,21.8,0,0,1-29.445-7.384,20.773,20.773,0,0,1,7.554-28.783,21.8,21.8,0,0,1,29.444,7.384,20.772,20.772,0,0,1-7.553,28.782m-19.855-32.8a16.908,16.908,0,0,0-6.148,23.428,17.743,17.743,0,0,0,23.967,6.01,16.908,16.908,0,0,0,6.147-23.427,17.742,17.742,0,0,0-23.966-6.01" transform="translate(-342.437 -60.862)" fill="#add9e0"/>
        <g id="Grupo_1075546" data-name="Grupo 1075546" transform="translate(144.905 27.075)" opacity="0.52" style="mix-blend-mode: multiply;isolation: isolate">
          <g id="Grupo_1075545" data-name="Grupo 1075545">
            <g id="Grupo_1075544" data-name="Grupo 1075544" clip-path="url(#clip-path-4)">
              <path id="Trazado_820258" data-name="Trazado 820258" d="M528.777,103.41a19.111,19.111,0,0,0-25.815-6.474,18.212,18.212,0,0,0-6.622,25.235,19.111,19.111,0,0,0,25.816,6.474,18.212,18.212,0,0,0,6.622-25.234m-7.309,24.1A17.743,17.743,0,0,1,497.5,121.5a16.908,16.908,0,0,1,6.148-23.428,17.742,17.742,0,0,1,23.966,6.01,16.908,16.908,0,0,1-6.148,23.427" transform="translate(-493.718 -94.373)" fill="#9fa1ad"/>
            </g>
          </g>
        </g>
        <g id="Grupo_1075549" data-name="Grupo 1075549" transform="translate(153.673 31.06)" opacity="0.42">
          <g id="Grupo_1075548" data-name="Grupo 1075548">
            <g id="Grupo_1075547" data-name="Grupo 1075547" clip-path="url(#clip-path-5)">
              <path id="Trazado_820259" data-name="Trazado 820259" d="M528.01,109.386c2.581-1.493,8.379-1.894,8.565,1.292s-10.649,9.112-12.547,5.948c-1.549-2.581,1.315-5.7,3.982-7.24" transform="translate(-523.592 -108.262)" fill="#fff"/>
            </g>
          </g>
        </g>
        <g id="Grupo_1075552" data-name="Grupo 1075552" transform="translate(149.939 40.57)" opacity="0.42">
          <g id="Grupo_1075551" data-name="Grupo 1075551">
            <g id="Grupo_1075550" data-name="Grupo 1075550" clip-path="url(#clip-path-6)">
              <path id="Trazado_820260" data-name="Trazado 820260" d="M519.075,144.181c2.931-.276,8.26-4.777,8.5-1.693,1.134,14.52-17.21,11.106-16.7,7.473.909-6.43,5.11-5.49,8.2-5.781" transform="translate(-510.869 -141.412)" fill="#fff"/>
            </g>
          </g>
        </g>
        <path id="Trazado_820261" data-name="Trazado 820261" d="M393.175,172.763l5.29,9.7a3.508,3.508,0,0,1-1.5,4.8,3.681,3.681,0,0,1-4.32-.689,3.512,3.512,0,0,1-1.8,4.026,3.687,3.687,0,0,1-3.548-.086,3.521,3.521,0,0,1-1.907,3.152,3.682,3.682,0,0,1-4.366-.733,3.157,3.157,0,0,1-1.71,2.861,3.294,3.294,0,0,1-4.4-1.311l-4.743-8.694a3.121,3.121,0,0,1-.374-1.259,3.168,3.168,0,0,1,1.715-3.046,3.305,3.305,0,0,1,3.368.2,3.436,3.436,0,0,1-.106-.579,3.534,3.534,0,0,1,1.913-3.4,3.688,3.688,0,0,1,3.558.092,3.516,3.516,0,0,1,1.9-3.159,3.68,3.68,0,0,1,4.318.687,3.49,3.49,0,0,1-.115-.627,3.533,3.533,0,0,1,1.913-3.4,3.673,3.673,0,0,1,4.912,1.462" transform="translate(-261.26 -121.857)" fill="#e38064"/>
        <path id="Trazado_820262" data-name="Trazado 820262" d="M432.344,197.372a.144.144,0,0,0,.165.023.135.135,0,0,0,.057-.185l-6.185-11.248a.143.143,0,0,0-.19-.057.136.136,0,0,0-.057.185l6.185,11.249a.134.134,0,0,0,.025.033" transform="translate(-301.053 -132.559)" fill="#3c251d"/>
        <path id="Trazado_820263" data-name="Trazado 820263" d="M420.569,221.562a.143.143,0,0,0,.159.026.135.135,0,0,0,.065-.184l-3.511-7.042a.141.141,0,0,0-.187-.063.135.135,0,0,0-.065.183l3.511,7.042a.144.144,0,0,0,.028.037" transform="translate(-294.623 -152.808)" fill="#3c251d"/>
        <path id="Trazado_820264" data-name="Trazado 820264" d="M392.891,218.016a.142.142,0,0,0,.158.026.135.135,0,0,0,.066-.182l-3.891-8.026a.138.138,0,0,0-.186-.065.135.135,0,0,0-.067.182l3.89,8.026a.122.122,0,0,0,.029.039" transform="translate(-274.8 -149.577)" fill="#3c251d"/>
        <path id="Trazado_820265" data-name="Trazado 820265" d="M406.468,244.632a.141.141,0,0,0,.152.029.136.136,0,0,0,.076-.179l-.491-1.152a.141.141,0,0,0-.183-.074.136.136,0,0,0-.076.179l.491,1.152a.138.138,0,0,0,.031.045" transform="translate(-286.794 -173.459)" fill="#3c251d"/>
        <path id="Trazado_820266" data-name="Trazado 820266" d="M447.244,208.195a.155.155,0,0,0,.01.04l1.055,2.692a.14.14,0,0,0,.091.084,4.063,4.063,0,0,0,3.126-.431.144.144,0,0,0,.046-.2.147.147,0,0,0-.2-.046,3.84,3.84,0,0,1-2.818.42l-1.006-2.566a4.038,4.038,0,0,1,3.6-1.854l.909,2.22a.145.145,0,0,0,.188.079.141.141,0,0,0,.081-.184l-.944-2.306a.145.145,0,0,0-.124-.089c-.028,0-2.838-.178-4,2.061a.139.139,0,0,0-.015.074" transform="translate(-315.979 -146.939)" fill="#3c251d"/>
        <path id="Trazado_820267" data-name="Trazado 820267" d="M427.867,221.446a.139.139,0,0,0,.013.039l1.262,2.606a.141.141,0,0,0,.1.077,4.057,4.057,0,0,0,3.083-.662.144.144,0,0,0,.031-.2.147.147,0,0,0-.2-.031,3.835,3.835,0,0,1-2.777.628l-1.2-2.483a4.022,4.022,0,0,1,3.442-2.116l1.08,2.145a.145.145,0,0,0,.194.065.141.141,0,0,0,.066-.189l-1.121-2.228a.144.144,0,0,0-.13-.08c-.029,0-2.844.034-3.825,2.353a.139.139,0,0,0-.009.075" transform="translate(-302.288 -156.183)" fill="#3c251d"/>
        <path id="Trazado_820268" data-name="Trazado 820268" d="M407.369,231.386a.141.141,0,0,0,.013.039l1.262,2.606a.141.141,0,0,0,.1.077,4.057,4.057,0,0,0,3.083-.662.144.144,0,0,0,.031-.2.147.147,0,0,0-.2-.031,3.834,3.834,0,0,1-2.777.628l-1.2-2.483a4.022,4.022,0,0,1,3.443-2.116l1.08,2.145a.145.145,0,0,0,.194.065.141.141,0,0,0,.066-.189l-1.122-2.228a.145.145,0,0,0-.13-.08c-.029,0-2.844.034-3.825,2.353a.143.143,0,0,0-.009.075" transform="translate(-287.806 -163.271)" fill="#3c251d"/>
        <path id="Trazado_820269" data-name="Trazado 820269" d="M386.351,239.639a.147.147,0,0,0,.012.037l1.2,2.468a.133.133,0,0,0,.092.073,3.843,3.843,0,0,0,2.921-.628.136.136,0,0,0,.029-.188.139.139,0,0,0-.192-.029,3.631,3.631,0,0,1-2.63.6l-1.14-2.352a3.81,3.81,0,0,1,3.26-2l1.023,2.032a.137.137,0,0,0,.183.061.134.134,0,0,0,.063-.179l-1.062-2.11a.137.137,0,0,0-.123-.076c-.027,0-2.693.032-3.623,2.228a.135.135,0,0,0-.009.071" transform="translate(-272.957 -169.248)" fill="#3c251d"/>
        <path id="Trazado_820270" data-name="Trazado 820270" d="M407.128,381.358c25.222,0,38.494-41.811,44.159-66.735l-26.326-14.386c-8.475,9.148-14.184,39.7-15.715,45.221-3.1-10.058-5.907-25.746-6-43.913l-28.251.146a296.054,296.054,0,0,0,2.514,34.756c1.711,12.284,6.253,44.912,29.622,44.912" transform="translate(-264.933 -214.1)" fill="#fff"/>
        <path id="Trazado_820271" data-name="Trazado 820271" d="M594.261,594.014s15.218,11.232,27.641,45.234H501.245s11.957-34.761,26.4-45.538Z" transform="translate(-354.131 -423.377)" fill="#dc4747"/>
        <path id="Trazado_820272" data-name="Trazado 820272" d="M642.278,84.644c7.3-.668,10.4,2.671,12.579,9.654s-1.553,11.84,2.8,18.215,12.423,7.893,13.976,12.75-.621,6.982.621,10.322,11.18,8.5,11.18,10.625-1.863,4.857-1.863,4.857l-73.605-10.929-6.833-4.25s-4.969-6.072.621-9.411,10.249-2.429,11.18-12.447,0-21.251,4.659-27.323,17.7-7.286,21.119-4.857,3.571,2.793,3.571,2.793" transform="translate(-423.261 -57.532)" fill="#1a2e3c"/>
        <path id="Trazado_820273" data-name="Trazado 820273" d="M578.648,330.72c.866-16.521,8.7-32.618,9.572-49.007a11.686,11.686,0,0,1,1.481-.734c8.56-3.171,10.871-11.6,8.855-18.319,4.435-.089,7.97.033,7.97.033l23.608-.008c1.5.2,2.919.452,4.325.707a21.753,21.753,0,0,0-2.582,2.338c-7.592,8.148-6.024,20.165-5.535,30.245.864,17.792-3.22,34.917-1.551,52.7a15.007,15.007,0,0,0,3.413,8.289c-14.533,2.292-34.785,3.94-45.9-1.977,0,0-1.657-.2-3.727-4.453-1.018-2.089-1.534-7.967-1.8-13.405a13.889,13.889,0,0,0,1.87-6.4" transform="translate(-407.495 -187.28)" fill="#add9e0"/>
        <path id="Trazado_820274" data-name="Trazado 820274" d="M652.442,160.792s-3.678-3.757-6.817-2.694-3.637,7.649-.291,8.968,7.411-1.208,7.411-1.208Z" transform="translate(-454.308 -112.606)" fill="#dc4747"/>
        <path id="Trazado_820275" data-name="Trazado 820275" d="M650.082,170.8a.137.137,0,0,1-.04-.011,3.169,3.169,0,0,1-.227-5.357c.762-.4,1.789-.326,3.544.249a.134.134,0,0,1,.087.17.14.14,0,0,1-.174.085c-1.654-.543-2.648-.623-3.326-.268a2.6,2.6,0,0,0-1.16,1.768,2.543,2.543,0,0,0,1.369,3.108.133.133,0,0,1,.069.177.138.138,0,0,1-.141.079" transform="translate(-458.089 -117.791)" fill="#3c251d"/>
        <path id="Trazado_820276" data-name="Trazado 820276" d="M683.827,215.251s-1.247,9.274.336,11.12,4.849,2.529,4.849,2.529-7.9,13.7-21.478,12.354c-12.232-1.216-5.649-12.447-5.649-12.447s4.816-.532,5.953-1.568,1.248-9.8,1.248-9.8Z" transform="translate(-466.373 -153.497)" fill="#e38064"/>
        <path id="Trazado_820277" data-name="Trazado 820277" d="M703.532,216.99l-5.843.532-7.781,1.153a46.821,46.821,0,0,1-.3,5.935,16.446,16.446,0,0,0,13.922-7.621" transform="translate(-487.211 -154.737)" fill="#3c251d"/>
        <path id="Trazado_820278" data-name="Trazado 820278" d="M661.583,102.212c-1,2.474-.041,6.27-.958,11.434s-1.313,15.553,6.184,17.6a20.946,20.946,0,0,0,14.1-1.046,13.536,13.536,0,0,0,7.022-8.317l3.406-11.585a13.921,13.921,0,0,0-10.078-17.432q-.269-.066-.547-.124c-15.282-3.209-19.126,9.471-19.126,9.471" transform="translate(-466.39 -65.763)" fill="#e38064"/>
        <path id="Trazado_820279" data-name="Trazado 820279" d="M715.5,167.088c.073-.85-.154-1.562-.507-1.591s-.7.636-.771,1.486.154,1.562.507,1.591.7-.636.771-1.486" transform="translate(-504.589 -118.016)" fill="#3c251d"/>
        <path id="Trazado_820280" data-name="Trazado 820280" d="M676.095,162.8c.073-.85-.154-1.562-.507-1.591s-.7.636-.771,1.486.154,1.562.507,1.591.7-.636.771-1.486" transform="translate(-476.75 -114.957)" fill="#3c251d"/>
        <path id="Trazado_820281" data-name="Trazado 820281" d="M687.419,175.974a.185.185,0,0,0,.1-.048.176.176,0,0,0,.008-.253,5.063,5.063,0,0,1-1.228-2.528c-.086-.675.369-1.048.946-1.52a3.381,3.381,0,0,0,1.4-1.909.179.179,0,0,0-.142-.212.182.182,0,0,0-.217.139,3.053,3.053,0,0,1-1.277,1.707c-.583.477-1.186.969-1.075,1.838a5.342,5.342,0,0,0,1.324,2.729.186.186,0,0,0,.154.055" transform="translate(-484.61 -120.872)" fill="#3c251d"/>
        <path id="Trazado_820282" data-name="Trazado 820282" d="M713.818,157.977a.555.555,0,0,1-.362-.15,4.035,4.035,0,0,0-3.236-.758.549.549,0,0,1-.622-.455.54.54,0,0,1,.466-.608,5.119,5.119,0,0,1,4.156,1.049.529.529,0,0,1,.01.76.555.555,0,0,1-.413.162" transform="translate(-501.329 -111.203)" fill="#3c251d"/>
        <path id="Trazado_820283" data-name="Trazado 820283" d="M673.725,153.853a.559.559,0,0,1-.392-.025,4.055,4.055,0,0,0-3.311.324.557.557,0,0,1-.74-.23.531.531,0,0,1,.236-.724,5.147,5.147,0,0,1,4.278-.344.532.532,0,0,1,.265.714.544.544,0,0,1-.335.285" transform="translate(-472.805 -108.784)" fill="#3c251d"/>
        <path id="Trazado_820284" data-name="Trazado 820284" d="M686.888,115.586a51.271,51.271,0,0,1-7.942-15.638,43.68,43.68,0,0,1-8.533,2.552c-4.334.748-6.605-.154-8.926,3.261s-1.218-1.833-1.218-1.833,2.469-17.833,22.788-11.944,6.135,25.831,6.135,25.831Z" transform="translate(-466.295 -64.743)" fill="#1a2e3c"/>
        <path id="Trazado_820285" data-name="Trazado 820285" d="M710.969,179.772c.741.425,1.365,1.13.707,1.869a1.489,1.489,0,0,1-.794.4,9.643,9.643,0,0,1-4.442-.218c-.507-.136-1.317-.481-1.063-1.142a1.482,1.482,0,0,1,.751-.7,6.044,6.044,0,0,1,3.841-.59,3.349,3.349,0,0,1,1,.387" transform="translate(-498.317 -127.854)" fill="#dc4747"/>
        <path id="Trazado_820286" data-name="Trazado 820286" d="M666.894,176.7c.655.376,1.208,1,.626,1.653a1.314,1.314,0,0,1-.7.35,8.531,8.531,0,0,1-3.929-.193c-.448-.121-1.165-.425-.941-1.01a1.312,1.312,0,0,1,.664-.621,5.347,5.347,0,0,1,3.4-.522,2.959,2.959,0,0,1,.884.342" transform="translate(-467.637 -125.702)" fill="#dc4747"/>
        <path id="Trazado_820287" data-name="Trazado 820287" d="M724.182,104.512a.137.137,0,0,0,.06-.022c3-1.956,5.325-6.659,5.423-6.858a.133.133,0,0,0-.065-.179.139.139,0,0,0-.184.063c-.023.048-2.391,4.836-5.327,6.751a.132.132,0,0,0-.038.186.139.139,0,0,0,.13.059" transform="translate(-511.529 -69.484)" fill="#fff"/>
        <path id="Trazado_820288" data-name="Trazado 820288" d="M684.561,196.244c-.729.141-1.464.171-2.195.277-.78.113-1.368.591-1.178,1.4.768,3.27,5.444,2.912,7.882,1.981a3.642,3.642,0,0,0,1.524-.994,2.33,2.33,0,0,0-.189-3.274c-.89-.623-2.155-.326-3.13-.094-.836.2-1.654.465-2.493.656-.074.017-.147.032-.221.046" transform="translate(-481.236 -139.243)" fill="#fff"/>
        <path id="Trazado_820289" data-name="Trazado 820289" d="M662.024,130.182a.19.19,0,0,0,.188-.158c.366-2.322,4.019-3.959,7.339-4.2,3.781-.273,8.478-1.778,10.141-4.126a.184.184,0,0,0-.048-.26.194.194,0,0,0-.266.047c-1.595,2.252-6.164,3.7-9.855,3.967-3.422.247-7.279,1.914-7.689,4.515a.187.187,0,0,0,.16.213l.03,0" transform="translate(-467.586 -86.575)" fill="#1a2e3c"/>
        <path id="Trazado_820290" data-name="Trazado 820290" d="M741.11,135.2a.187.187,0,0,0,.015-.373c-3.682-.3-5.783-6.369-7.174-10.382a18.271,18.271,0,0,0-1.473-3.606.2.2,0,0,0-.266-.048.184.184,0,0,0-.049.26,18.708,18.708,0,0,1,1.426,3.514c1.507,4.351,3.571,10.31,7.5,10.635h.016" transform="translate(-517.252 -86.112)" fill="#fff"/>
        <path id="Trazado_820291" data-name="Trazado 820291" d="M745.969,169.254s3.678-3.757,6.817-2.694,3.637,7.649.291,8.968-7.411-1.208-7.411-1.208Z" transform="translate(-526.815 -118.64)" fill="#e38064"/>
        <path id="Trazado_820292" data-name="Trazado 820292" d="M759.509,179.261a.138.138,0,0,0,.041-.011,3.169,3.169,0,0,0,.227-5.357c-.762-.4-1.789-.326-3.544.249a.134.134,0,0,0-.086.17.139.139,0,0,0,.174.085c1.654-.543,2.648-.623,3.326-.268a2.6,2.6,0,0,1,1.16,1.768,2.543,2.543,0,0,1-1.369,3.108.133.133,0,0,0-.069.178.138.138,0,0,0,.141.079" transform="translate(-534.213 -123.826)" fill="#3c251d"/>
        <path id="Trazado_820293" data-name="Trazado 820293" d="M811,170.844a.291.291,0,0,1-.145-.039.274.274,0,0,1-.1-.381c1.71-2.83-2.843-6.38-6.168-8.972-1.684-1.313-3.013-2.349-3.371-3.117-.474-1.021-.272-2.444-.038-4.094.31-2.19.661-4.671-.379-7.044-1-2.29-5.333-5.555-9.154-8.435-3.148-2.375-6.123-4.619-6.983-6.11a14.233,14.233,0,0,1-1.256-5.15,30.974,30.974,0,0,0-3.712-12.257.275.275,0,0,1,.111-.379.285.285,0,0,1,.387.109,31.488,31.488,0,0,1,3.779,12.455,13.847,13.847,0,0,0,1.189,4.947c.8,1.393,3.729,3.6,6.831,5.942,4.066,3.065,8.268,6.234,9.332,8.659,1.1,2.514.722,5.189.419,7.337-.223,1.563-.414,2.915-.007,3.788a14.313,14.313,0,0,0,3.2,2.91c3.49,2.721,8.268,6.445,6.3,9.693a.282.282,0,0,1-.245.137" transform="translate(-550.83 -81.887)" fill="#1a2e3c"/>
        <path id="Trazado_820294" data-name="Trazado 820294" d="M526.132,639.334V628.557h19.255v10.777h2.484V628.557h18.945v10.777H569.3V628.557h19.877v10.777h2.484V628.557h18.945v10.777h2.485V628.557H627.68c-.369-.833-.738-1.631-1.107-2.429H613.092V607.306h2.873c-.6-.863-1.175-1.66-1.743-2.429h-1.13v-1.5c-.88-1.138-1.706-2.148-2.485-3.057v4.559H591.662V594.042l-2.484-.011v10.847H569.3V593.94l-2.485-.011v10.948H547.872V593.842l-2.484-.011v11.046H527.956c-.535.8-1.064,1.6-1.581,2.429h19.013v18.822H526.132V607.7c-.855,1.381-1.683,2.794-2.484,4.224v14.2h-7.011c-.367.837-.713,1.642-1.046,2.429h8.057v10.777Zm65.53-32.028h18.945v18.822H591.662Zm-22.361,0h19.877v18.822H569.3Zm-21.429,0h18.945v18.822H547.872Z" transform="translate(-364.266 -423.464)" fill="#1a2e3c"/>
        <path id="Trazado_820295" data-name="Trazado 820295" d="M589.073,576.405a209.342,209.342,0,0,0,66.151-1.214l1.087,5.616s-47.672,10.17-67.239.456Z" transform="translate(-416.181 -410.171)" fill="#1a2e3c"/>
        <path id="Trazado_820296" data-name="Trazado 820296" d="M811.553,430.806a.283.283,0,0,1-.269-.189c-2.656-7.59-6.371-15.881-6.409-15.966a.274.274,0,0,1,.147-.366.287.287,0,0,1,.374.144c.038.083,3.763,8.4,6.426,16.009a.277.277,0,0,1-.178.353.259.259,0,0,1-.091.015" transform="translate(-568.628 -295.411)" fill="#3c251d"/>
        <path id="Trazado_820297" data-name="Trazado 820297" d="M803.34,428.332a.28.28,0,0,1-.181-.063l-4.556-3.644a.273.273,0,0,1-.04-.392.286.286,0,0,1,.4-.039l4.556,3.644a.273.273,0,0,1,.04.392.284.284,0,0,1-.22.1" transform="translate(-564.142 -302.449)" fill="#3c251d"/>
        <path id="Trazado_820298" data-name="Trazado 820298" d="M688.345,455.425c-10.771,0-15.988-6.06-16.057-6.142a.273.273,0,0,1,.04-.392.286.286,0,0,1,.4.039c.089.109,9.212,10.674,28.458,3.356a.283.283,0,0,1,.367.159.274.274,0,0,1-.163.359,36.6,36.6,0,0,1-13.047,2.621" transform="translate(-474.927 -320.06)" fill="#3c251d"/>
        <path id="Trazado_820299" data-name="Trazado 820299" d="M657.766,295.532a11.5,11.5,0,0,1-4.738-.938c-3.107-1.4-5-3.059-5.643-4.95a3.773,3.773,0,0,1,.127-2.925.286.286,0,0,1,.385-.11.274.274,0,0,1,.114.377,3.248,3.248,0,0,0-.078,2.5c.583,1.706,2.427,3.3,5.331,4.6,7.426,3.339,18.656-3.952,18.772-4.025a.289.289,0,0,1,.394.075.273.273,0,0,1-.078.386c-.378.25-7.711,5.009-14.585,5.009" transform="translate(-457.219 -204.357)" fill="#3c251d"/>
        <path id="Trazado_820300" data-name="Trazado 820300" d="M644.23,590.729H630.979a1.259,1.259,0,0,1-1.274-1.245v-7.69a1.26,1.26,0,0,1,1.274-1.246H644.23a1.26,1.26,0,0,1,1.274,1.246v7.69a1.259,1.259,0,0,1-1.274,1.245m-11.977-2.491h10.7v-5.2h-10.7Z" transform="translate(-444.888 -413.991)" fill="#70aab8"/>
        <path id="Trazado_820301" data-name="Trazado 820301" d="M729.634,590.819l.207-7.489,4.348-.2v8.3Z" transform="translate(-515.488 -415.831)" fill="#de5a4c"/>
        <path id="Trazado_820302" data-name="Trazado 820302" d="M789.366,583.712l-.828-6.578,3.83-.708,1.035,6.78Z" transform="translate(-557.104 -411.052)" fill="#de5a4c"/>
        <path id="Trazado_820303" data-name="Trazado 820303" d="M732.037,237.372c1.942.518,3.267,1.165,3.443,3.754s-5.474,20.885-6.18,26.753.177,35.728.53,50.744,8.122,66.105,8.122,66.105l46.261.172a248.9,248.9,0,0,0-23.66-51.089s-1.766-25.027-1.589-28.306,10.065-51.434,10.065-51.434.176-1.726-11.654-5.868-19.776-6.214-19.776-6.214-1.369-5.221-5.606-5.523Z" transform="translate(-515.064 -168.625)" fill="#fff"/>
        <path id="Trazado_820304" data-name="Trazado 820304" d="M552.806,238.441a4.718,4.718,0,0,0-4.061,3.02c-.971,2.244-5.739,16.138-8.475,21.834S527.5,280.468,528.2,303.251s-8.475,82.847-8.475,82.847l-24.014-.921s16.48-36.131,21.895-45.106l-.471-30.607s-4.709-7.134-4-15.419-2.531-38.432-2.531-38.432S526.674,245,545.39,243.446c0,0,2.119-4.142,3.355-5.005s4.061-.777,4.061-.777Z" transform="translate(-350.224 -169.478)" fill="#fff"/>
        <path id="Trazado_820305" data-name="Trazado 820305" d="M595.012,586.381l.31-6.679-2.588-.1-.311,6.477Z" transform="translate(-418.549 -413.316)" fill="#de5a4c"/>
        <path id="Trazado_820306" data-name="Trazado 820306" d="M637,597.878h-4.349a.279.279,0,1,1,0-.557H637a.279.279,0,1,1,0,.557" transform="translate(-446.77 -425.952)" fill="#edbc2c"/>
        <path id="Trazado_820307" data-name="Trazado 820307" d="M611.349,545.861a.52.52,0,0,1-.251-.07c-1.18-.627-4.886-5.875-5.523-8.476a.284.284,0,0,1,.552-.131c.57,2.319,3.821,7.052,5.068,8a33.06,33.06,0,0,0-1.167-4.07,67.651,67.651,0,0,1-1.975-6.952.281.281,0,0,1,.227-.327.293.293,0,0,1,.334.222,66.6,66.6,0,0,0,1.957,6.889c1.174,3.635,1.41,4.514,1.024,4.826a.391.391,0,0,1-.247.085" transform="translate(-427.834 -380.68)" fill="#3c251d"/>
        <path id="Trazado_820308" data-name="Trazado 820308" d="M638.7,488.649c-4.664-3-7.224-4.81-8.321-6.082s-9.989-6.079-13.422-8.708c-3.178-2.434-6.894-1.292-5.157,3.331,1.622,4.317,10.961,7.554,9.575,7.774-4.277.681-5.831.974-5.831.974l3.7,18.075,3.135,2.973,9.058-1.658Z" transform="translate(-431.927 -337.023)" fill="#e38064"/>
        <path id="Trazado_820309" data-name="Trazado 820309" d="M595.981,591.176a2.98,2.98,0,0,0,1.366-.234l16.343-6.924a2.865,2.865,0,0,0,1.537-3.8,2.98,2.98,0,0,0-3.889-1.5L595,585.642a2.865,2.865,0,0,0-1.537,3.8,2.953,2.953,0,0,0,2.523,1.733" transform="translate(-419.107 -412.514)" fill="#e38064"/>
        <path id="Trazado_820310" data-name="Trazado 820310" d="M597.361,540.187h.009l6.319-.61a.2.2,0,0,0,.166-.13l.242-.705a.19.19,0,0,0-.124-.242.194.194,0,0,0-.247.12l-.2.588-6.188.6a.191.191,0,0,0,.025.381" transform="translate(-421.895 -383.999)" fill="#3c251d"/>
        <path id="Trazado_820311" data-name="Trazado 820311" d="M564.36,527.418a4.039,4.039,0,0,0,.637-.009l17.85-1.682a3.856,3.856,0,1,0-.755-7.672l-17.85,1.682a3.847,3.847,0,0,0,.118,7.681" transform="translate(-396.12 -369.413)" fill="#e38064"/>
        <path id="Trazado_820312" data-name="Trazado 820312" d="M576.8,577.573a4.055,4.055,0,0,0,.637-.009l17.85-1.682a3.88,3.88,0,0,0,3.547-4.205,3.925,3.925,0,0,0-4.3-3.467l-17.85,1.682a3.847,3.847,0,0,0,.118,7.681" transform="translate(-404.908 -405.181)" fill="#e38064"/>
        <path id="Trazado_820313" data-name="Trazado 820313" d="M561.941,553.491a4.143,4.143,0,0,0,.958-.052l20.733-3.648a3.861,3.861,0,0,0,3.181-4.473,3.937,3.937,0,0,0-4.578-3.111L561.5,545.854a3.86,3.86,0,0,0-3.181,4.473,3.91,3.91,0,0,0,3.62,3.164" transform="translate(-394.41 -386.606)" fill="#e38064"/>
        <path id="Trazado_820314" data-name="Trazado 820314" d="M656.617,525.108s-8.253-4.382-11.036-3.733c-7.9,1.84-10.917,3.75-10.917,3.75s-5.289,17.763-1.194,18.292c3.854.5,24.4-1.729,24.4-1.729Z" transform="translate(-446.45 -371.748)" fill="#e38064"/>
        <path id="Trazado_820315" data-name="Trazado 820315" d="M635.216,530.037a.154.154,0,0,0,.045.092.164.164,0,0,0,.229,0l1.716-1.624a.155.155,0,0,0,0-.224.164.164,0,0,0-.229,0l-1.716,1.624a.157.157,0,0,0-.048.132" transform="translate(-448.781 -376.688)" fill="#3c251d"/>
        <path id="Trazado_820316" data-name="Trazado 820316" d="M637.023,530.307a.155.155,0,0,1-.023.1.164.164,0,0,1-.222.053l-2.042-1.21a.156.156,0,0,1-.055-.218.163.163,0,0,1,.222-.054l2.042,1.21a.158.158,0,0,1,.077.118" transform="translate(-448.388 -377.201)" fill="#3c251d"/>
        <path id="Trazado_820317" data-name="Trazado 820317" d="M641.66,552.874a.154.154,0,0,0,.045.092.164.164,0,0,0,.229,0l1.716-1.624a.155.155,0,0,0,0-.224.164.164,0,0,0-.229,0l-1.716,1.624a.156.156,0,0,0-.048.132" transform="translate(-453.333 -392.973)" fill="#3c251d"/>
        <path id="Trazado_820318" data-name="Trazado 820318" d="M643.469,553.146a.155.155,0,0,1-.023.1.164.164,0,0,1-.222.054l-2.042-1.21a.156.156,0,0,1-.055-.218.164.164,0,0,1,.222-.054l2.042,1.21a.158.158,0,0,1,.077.118" transform="translate(-452.941 -393.487)" fill="#3c251d"/>
        <path id="Trazado_820319" data-name="Trazado 820319" d="M644.381,574.047a.156.156,0,0,0,.045.092.165.165,0,0,0,.229,0l1.716-1.624a.155.155,0,0,0,0-.224.164.164,0,0,0-.229,0l-1.716,1.624a.156.156,0,0,0-.048.132" transform="translate(-455.256 -408.072)" fill="#3c251d"/>
        <path id="Trazado_820320" data-name="Trazado 820320" d="M646.188,574.318a.153.153,0,0,1-.023.1.164.164,0,0,1-.222.054l-2.042-1.21a.156.156,0,0,1-.055-.218.164.164,0,0,1,.222-.054l2.042,1.21a.157.157,0,0,1,.077.118" transform="translate(-454.862 -408.586)" fill="#3c251d"/>
        <path id="Trazado_820321" data-name="Trazado 820321" d="M573.567,575.482a.168.168,0,0,0,0,.042.145.145,0,0,0,.169.117l13.028-2.275a.148.148,0,0,0,.119-.165.145.145,0,0,0-.168-.117l-13.028,2.275a.143.143,0,0,0-.121.122" transform="translate(-405.226 -408.668)" fill="#3c251d"/>
        <path id="Trazado_820322" data-name="Trazado 820322" d="M609.209,594.761a.227.227,0,0,0,0,.049.154.154,0,0,0,.176.111l5.387-1.165a.145.145,0,1,0-.063-.283l-5.386,1.165a.147.147,0,0,0-.114.123" transform="translate(-430.407 -423.207)" fill="#3c251d"/>
        <path id="Trazado_820323" data-name="Trazado 820323" d="M566.734,536.257a.157.157,0,0,0,.135-.059.154.154,0,0,0-.028-.217c-1.379-1.049-.576-2.861-.38-3.255l3.745-.282c.8.892.534,3.4.53,3.423a.155.155,0,0,0,.139.171h.008a.156.156,0,0,0,.167-.136c.013-.112.3-2.782-.67-3.726a.171.171,0,0,0-.125-.046l-3.908.295a.155.155,0,0,0-.125.082c-.013.022-1.307,2.4.424,3.718a.151.151,0,0,0,.087.032" transform="translate(-399.702 -379.463)" fill="#3c251d"/>
        <path id="Trazado_820324" data-name="Trazado 820324" d="M566.813,567.384a.157.157,0,0,0,.135-.059.153.153,0,0,0-.028-.217c-1.379-1.049-.576-2.861-.38-3.255l3.745-.282c.8.892.534,3.4.53,3.423a.155.155,0,0,0,.139.171h.008a.156.156,0,0,0,.167-.137c.013-.112.3-2.782-.67-3.726a.171.171,0,0,0-.124-.046l-3.908.295a.155.155,0,0,0-.125.082c-.013.022-1.307,2.4.424,3.719a.153.153,0,0,0,.087.032" transform="translate(-399.757 -401.66)" fill="#3c251d"/>
        <path id="Trazado_820325" data-name="Trazado 820325" d="M579.884,588.247a.156.156,0,0,0,.125-.078.154.154,0,0,0-.06-.21c-1.518-.845-.989-2.751-.853-3.169l3.665-.8c.927.77,1.027,3.287,1.027,3.287a.163.163,0,0,0,.163.176h.006a.155.155,0,0,0,.147-.159c0-.113-.112-2.8-1.21-3.594a.173.173,0,0,0-.13-.028l-3.824.839a.154.154,0,0,0-.112.1c-.01.023-.942,2.56.965,3.62a.153.153,0,0,0,.09.019" transform="translate(-408.777 -416.214)" fill="#3c251d"/>
        <path id="Trazado_820326" data-name="Trazado 820326" d="M600.745,611.617a.135.135,0,0,0,.008-.259c-1.448-.484-1.313-2.209-1.266-2.59l3.019-1.28c.927.514,1.435,2.665,1.44,2.688a.138.138,0,0,0,.165.1l.007,0a.135.135,0,0,0,.1-.16c-.022-.1-.566-2.388-1.644-2.9a.152.152,0,0,0-.116,0l-3.151,1.336a.133.133,0,0,0-.079.1c0,.022-.381,2.354,1.438,2.961a.136.136,0,0,0,.081,0" transform="translate(-423.33 -433)" fill="#3c251d"/>
        <path id="Trazado_820327" data-name="Trazado 820327" d="M731.659,385.151c19.637,0,42.414-2.517,53.777-12.764a25.276,25.276,0,0,0,8.662-19.508c-.6-26.885-28.777-55.447-44.845-62.869l-15.185,29.342c9.291,8.366,22,20.786,25.426,30.55-9.213,2.7-31.437,2.86-51.248.891l-3.454,32.967c6.477.65,16.21,1.391,26.868,1.391" transform="translate(-497.936 -206.807)" fill="#fff"/>
        <path id="Trazado_820328" data-name="Trazado 820328" d="M753.733,504.424c-9.31,0-22.247-1.075-22.419-1.088a.168.168,0,0,1,.016-.335h.016c.225.02,22.655,1.89,29.62.692.107.007.182.046.2.137a.17.17,0,0,1-.14.194,48.666,48.666,0,0,1-7.29.4" transform="translate(-516.564 -358.692)" fill="#3c251d"/>
        <path id="Trazado_820329" data-name="Trazado 820329" d="M754.973,620.8a113.287,113.287,0,0,1-14.639-.764.168.168,0,0,1-.145-.189.158.158,0,0,1,.194-.141c12.2,1.706,35.049.017,35.276,0a.174.174,0,0,1,.185.155.172.172,0,0,1-.158.181c-.154.011-10.321.762-20.713.762" transform="translate(-522.945 -441.909)" fill="#3c251d"/>
        <path id="Trazado_820330" data-name="Trazado 820330" d="M890.765,487.937a.168.168,0,0,1-.151-.246c1.432-2.684,8.976-4.277,9.3-4.342a.172.172,0,0,1,.2.128.167.167,0,0,1-.131.2c-.073.015-7.139,1.506-8.885,3.887,1.659-.192,8.555-.951,11.7-.533a.166.166,0,0,1,.147.187.16.16,0,0,1-.191.143c-3.485-.455-11.878.564-11.962.575a.078.078,0,0,1-.022,0" transform="translate(-629.207 -344.675)" fill="#3c251d"/>
        <path id="Trazado_820331" data-name="Trazado 820331" d="M731.135,314.959a.135.135,0,0,1-.042-.007.164.164,0,0,1-.122-.2l6.458-24.107-4.683-10.071a.166.166,0,0,1,.033-.186l10.755-10.858c-.381-1.109-3.9-11.364-4.736-14.178a.168.168,0,0,1,.118-.208.174.174,0,0,1,.211.114c.873,2.955,4.725,14.148,4.766,14.261a.166.166,0,0,1-.04.17l-10.746,10.85,4.658,10.021a.16.16,0,0,1,.009.111L731.3,314.833a.169.169,0,0,1-.165.126" transform="translate(-516.428 -181.939)" fill="#3c251d"/>
        <path id="Trazado_820332" data-name="Trazado 820332" d="M835.809,313.193h0a.169.169,0,0,1-.167-.171,35.1,35.1,0,0,1,6.631-19.315.174.174,0,0,1,.238-.028.163.163,0,0,1,.029.235,34.745,34.745,0,0,0-6.556,19.116.17.17,0,0,1-.171.163" transform="translate(-590.38 -209.398)" fill="#3c251d"/>
        <path id="Trazado_820333" data-name="Trazado 820333" d="M801.954,652.135a.247.247,0,0,1-.056-.009l-18.364-6.214a.169.169,0,0,1-.107-.109l-7.533-23.473a.165.165,0,0,1,.111-.209.163.163,0,0,1,.214.109l7.509,23.393,18.184,6.153,8.4-7.755a.173.173,0,0,1,.243.007.166.166,0,0,1-.007.237l-8.475,7.825a.175.175,0,0,1-.118.046" transform="translate(-548.165 -443.631)" fill="#3c251d"/>
        <path id="Trazado_820334" data-name="Trazado 820334" d="M729.223,534.41a.047.047,0,0,1-.018,0,.166.166,0,0,1-.151-.183l3.269-30.284a.17.17,0,0,1,.339.035l-3.269,30.284a.168.168,0,0,1-.169.15" transform="translate(-515.077 -359.254)" fill="#3c251d"/>
        <path id="Trazado_820335" data-name="Trazado 820335" d="M603.252,313.413a.172.172,0,0,1-.167-.129c-1.227-4.971.285-25.582.35-26.457a.171.171,0,0,1,.049-.1l10.179-10.294-1.574-8.546a.168.168,0,0,1,.051-.151c.06-.054,6.015-5.561,8.62-10.4a.177.177,0,0,1,.232-.069.167.167,0,0,1,.071.226c-2.481,4.606-7.949,9.795-8.62,10.423l1.574,8.541a.169.169,0,0,1-.047.146l-10.2,10.313c-.093,1.265-1.538,21.5-.354,26.294a.169.169,0,0,1-.127.2.28.28,0,0,1-.04,0" transform="translate(-425.743 -183.443)" fill="#3c251d"/>
        <path id="Trazado_820336" data-name="Trazado 820336" d="M557.537,416.812a.17.17,0,0,1-.172-.159l-.733-13.963c-.47-.542-4.97-5.886-5.42-11.789-.468-6.188,5.141-17.235,5.2-17.346a.183.183,0,0,1,.23-.076.166.166,0,0,1,.078.224c-.058.111-5.622,11.077-5.162,17.172s5.324,11.584,5.373,11.639a.178.178,0,0,1,.042.1l.737,14.02a.171.171,0,0,1-.163.176Z" transform="translate(-389.414 -266.32)" fill="#3c251d"/>
        <path id="Trazado_820337" data-name="Trazado 820337" d="M496.237,470.73a.172.172,0,0,1-.167-.129c-1.044-4.253-4.894-13-4.934-13.092a.165.165,0,0,1,.031-.178.181.181,0,0,1,.18-.046c2.16.7,6.112,8.389,6.279,8.716a.166.166,0,0,1-.078.224.18.18,0,0,1-.229-.076c-.038-.074-3.572-6.952-5.683-8.345.786,1.815,3.848,8.983,4.768,12.72a.169.169,0,0,1-.127.2.271.271,0,0,1-.04,0" transform="translate(-346.979 -326.086)" fill="#3c251d"/>
        <path id="Trazado_820338" data-name="Trazado 820338" d="M550.2,319.121a.171.171,0,0,1-.169-.138c-.692-3.735-4.714-12.988-4.756-13.082a.167.167,0,0,1,.091-.219.171.171,0,0,1,.225.088c.04.094,4.077,9.381,4.779,13.153a.17.17,0,0,1-.138.194l-.031,0" transform="translate(-385.231 -217.974)" fill="#3c251d"/>
        <path id="Trazado_820339" data-name="Trazado 820339" d="M377.589,318.209a.168.168,0,1,1,0-.335L404.6,317.7a.168.168,0,1,1,0,.335Z" transform="translate(-266.647 -226.554)" fill="#3c251d"/>
        <path id="Trazado_820340" data-name="Trazado 820340" d="M1111.51,491.652a.34.34,0,0,1-.149-.035l-3.188-1.639-3.188,1.639a.327.327,0,0,1-.335-.024.3.3,0,0,1-.126-.3l.607-3.472-2.578-2.458a.3.3,0,0,1-.082-.318.314.314,0,0,1,.258-.211l3.565-.506,1.594-3.158a.334.334,0,0,1,.57,0l1.594,3.158,3.565.506a.315.315,0,0,1,.258.211.305.305,0,0,1-.082.318l-2.578,2.458.607,3.472a.3.3,0,0,1-.126.3.311.311,0,0,1-.186.059m-3.337-2.335a.346.346,0,0,1,.149.035l2.767,1.423-.528-3.012a.3.3,0,0,1,.091-.274l2.239-2.134-3.094-.44a.317.317,0,0,1-.24-.17L1108.173,482l-1.383,2.741a.318.318,0,0,1-.24.17l-3.094.44,2.239,2.134a.3.3,0,0,1,.092.274l-.528,3.012,2.767-1.423a.346.346,0,0,1,.149-.035" transform="translate(-778.887 -343.008)" fill="#ebb241"/>
        <path id="Trazado_820341" data-name="Trazado 820341" d="M60.962,584.951a.344.344,0,0,1-.149-.035l-3.188-1.64-3.188,1.64a.328.328,0,0,1-.335-.024.3.3,0,0,1-.126-.3l.607-3.472L52,578.659a.305.305,0,0,1-.082-.318.314.314,0,0,1,.258-.211l3.565-.506,1.594-3.158a.334.334,0,0,1,.57,0l1.594,3.158,3.565.506a.314.314,0,0,1,.258.211.305.305,0,0,1-.082.318l-2.578,2.458.607,3.472a.3.3,0,0,1-.126.3.312.312,0,0,1-.186.059m-3.337-2.335a.341.341,0,0,1,.149.035l2.767,1.422-.528-3.012a.3.3,0,0,1,.092-.274l2.239-2.134-3.094-.44a.318.318,0,0,1-.24-.17L57.625,575.3l-1.384,2.741a.318.318,0,0,1-.24.17l-3.094.44,2.239,2.134a.3.3,0,0,1,.092.274l-.528,3.012,2.767-1.422a.341.341,0,0,1,.149-.035" transform="translate(-36.673 -409.54)" fill="#ebb241"/>
        <path id="Trazado_820342" data-name="Trazado 820342" d="M702.023,11.753H692.7a.321.321,0,0,1-.325-.317V2.32A.321.321,0,0,1,692.7,2h9.326a.321.321,0,0,1,.324.317v9.116a.321.321,0,0,1-.324.317m-9-.634H701.7V2.637h-8.677Z" transform="translate(-489.163 -1.428)" fill="#ebb241"/>
        <path id="Trazado_820343" data-name="Trazado 820343" d="M700.138,13.214a.328.328,0,0,1-.236-.1l-2.551-2.649a.312.312,0,0,1,.014-.448.33.33,0,0,1,.459.014l2.287,2.375,4.152-5.387a.33.33,0,0,1,.454-.063.312.312,0,0,1,.064.444L700.4,13.088a.326.326,0,0,1-.242.126Z" transform="translate(-492.618 -4.915)" fill="#ebb241"/>
        <path id="Trazado_820344" data-name="Trazado 820344" d="M193.973,297.272h-9.326a.321.321,0,0,1-.324-.317v-9.116a.321.321,0,0,1,.324-.317h9.326a.321.321,0,0,1,.324.317v9.116a.321.321,0,0,1-.324.317m-9-.634h8.677v-8.482h-8.677Z" transform="translate(-130.225 -205.033)" fill="#ebb241"/>
        <path id="Trazado_820345" data-name="Trazado 820345" d="M192.087,298.734a.327.327,0,0,1-.236-.1l-2.551-2.649a.312.312,0,0,1,.014-.448.33.33,0,0,1,.459.013l2.287,2.376,4.152-5.387a.33.33,0,0,1,.454-.063.313.313,0,0,1,.064.444l-4.384,5.688a.325.325,0,0,1-.242.126Z" transform="translate(-133.678 -208.521)" fill="#ebb241"/>
        <path id="Trazado_820346" data-name="Trazado 820346" d="M1115.47,191.642h-9.326a.321.321,0,0,1-.324-.317v-9.116a.321.321,0,0,1,.324-.317h9.326a.321.321,0,0,1,.324.317v9.116a.321.321,0,0,1-.324.317m-9-.634h8.677v-8.482h-8.677Z" transform="translate(-781.264 -129.708)" fill="#ebb241"/>
        <path id="Trazado_820347" data-name="Trazado 820347" d="M1113.584,193.1a.329.329,0,0,1-.236-.1l-2.551-2.649a.312.312,0,0,1,.014-.448.33.33,0,0,1,.459.014l2.287,2.375,4.152-5.387a.33.33,0,0,1,.454-.063.312.312,0,0,1,.064.444l-4.383,5.688a.325.325,0,0,1-.241.126Z" transform="translate(-784.718 -133.196)" fill="#ebb241"/>
        <path id="Trazado_820348" data-name="Trazado 820348" d="M959.188,499.8V461.168h-14.1V499.8l-21.98,37.6a4.466,4.466,0,0,0,3.966,6.68H977.2a4.466,4.466,0,0,0,3.966-6.68Z" transform="translate(-651.749 -328.861)" fill="#add9e0"/>
        <path id="Trazado_820349" data-name="Trazado 820349" d="M967.212,631.258h-23.7L927.8,658.126a4.239,4.239,0,0,0,3.765,6.341h47.585a4.24,4.24,0,0,0,3.765-6.341Z" transform="translate(-655.087 -450.153)" fill="#632727"/>
        <path id="Trazado_820350" data-name="Trazado 820350" d="M1011.319,459.1H993.98a.126.126,0,0,1-.127-.125v-2.8a.126.126,0,0,1,.127-.125h17.339a.126.126,0,0,1,.127.125v2.8a.126.126,0,0,1-.127.125" transform="translate(-702.16 -325.211)" fill="#70aab8"/>
        <path id="Trazado_820351" data-name="Trazado 820351" d="M982.533,210.2s36.04,3.037,0-52.845c0,0-36.352,52.845,0,52.845" transform="translate(-682.748 -112.214)" fill="#5c7040"/>
        <path id="Trazado_820352" data-name="Trazado 820352" d="M1042.89,345.239s16.973,20.3,28.748-27.309c0,0-47.534,8.413-28.748,27.309" transform="translate(-733.7 -226.717)" fill="#5c7040"/>
        <path id="Trazado_820353" data-name="Trazado 820353" d="M922.219,345.239s-16.973,20.3-28.749-27.309c0,0,47.534,8.413,28.749,27.309" transform="translate(-631.239 -226.717)" fill="#5c7040"/>
        <rect id="Rectángulo_378088" data-name="Rectángulo 378088" width="1.864" height="87.292" transform="translate(299.009 93.891)" fill="#5c7040"/>
        <path id="Trazado_820354" data-name="Trazado 820354" d="M994.575,405.8l-10.831-6.636.99-1.545,9.986,6.12,13.061-5.723.763,1.662Z" transform="translate(-695.017 -283.542)" fill="#5c7040"/>
        <path id="Trazado_820355" data-name="Trazado 820355" d="M1019.773,220.52a.461.461,0,0,1-.466-.456V173.826a.466.466,0,0,1,.932,0v46.239a.461.461,0,0,1-.466.456" transform="translate(-720.143 -123.631)" fill="#fff"/>
        <path id="Trazado_820356" data-name="Trazado 820356" d="M1000.024,237.661h0a.473.473,0,0,1-.332-.136l-8.039-7.972a.448.448,0,0,1,.005-.644.474.474,0,0,1,.659.005l7.707,7.643,7.94-7.871a.473.473,0,0,1,.659-.005.448.448,0,0,1,.006.644l-8.272,8.2a.473.473,0,0,1-.332.136" transform="translate(-700.511 -162.98)" fill="#fff"/>
        <path id="Trazado_820357" data-name="Trazado 820357" d="M998.855,293.057a.474.474,0,0,1-.241-.066l-8.855-5.239a.45.45,0,0,1-.157-.626.474.474,0,0,1,.64-.154l8.609,5.094,7.563-4.635a.474.474,0,0,1,.642.144.45.45,0,0,1-.147.628l-7.806,4.783a.477.477,0,0,1-.248.069" transform="translate(-699.109 -204.595)" fill="#fff"/>
        <path id="Trazado_820358" data-name="Trazado 820358" d="M1056.737,351.021a.3.3,0,0,1,.018-.426l23.013-20.757a.313.313,0,0,1,.436.017.3.3,0,0,1-.018.426l-23.013,20.757a.313.313,0,0,1-.436-.017" transform="translate(-746.53 -235.152)" fill="#fff"/>
        <path id="Trazado_820359" data-name="Trazado 820359" d="M1094.218,349.274h0a.3.3,0,0,1-.081-.219l.359-7.4a.308.308,0,0,1,.616.029l-.344,7.1,7.482.243a.3.3,0,1,1-.02.6l-7.795-.253a.312.312,0,0,1-.217-.1" transform="translate(-773.01 -243.43)" fill="#fff"/>
        <path id="Trazado_820360" data-name="Trazado 820360" d="M1067.914,373.309a.3.3,0,0,1-.075-.144l-1.367-6.563a.3.3,0,0,1,.24-.355.31.31,0,0,1,.364.235l1.329,6.381,5.7,1.516a.3.3,0,0,1,.217.37.309.309,0,0,1-.379.212l-5.885-1.565a.312.312,0,0,1-.146-.087" transform="translate(-753.46 -261.168)" fill="#fff"/>
        <path id="Trazado_820361" data-name="Trazado 820361" d="M933.919,353.16a.313.313,0,0,1-.434.046l-24.394-19.19a.3.3,0,0,1-.047-.424.313.313,0,0,1,.434-.046l24.394,19.19a.3.3,0,0,1,.047.424" transform="translate(-642.194 -237.805)" fill="#fff"/>
        <path id="Trazado_820362" data-name="Trazado 820362" d="M934.4,350.113h0a.311.311,0,0,1-.21.111l-7.542.744a.306.306,0,0,1-.337-.27.3.3,0,0,1,.276-.33l7.231-.713-.857-7.269a.3.3,0,0,1,.271-.334.307.307,0,0,1,.342.264l.893,7.573a.3.3,0,0,1-.066.224" transform="translate(-654.439 -243.917)" fill="#fff"/>
        <path id="Trazado_820363" data-name="Trazado 820363" d="M962.158,373.747a.31.31,0,0,1-.135.094l-6.439,2.289a.311.311,0,0,1-.4-.18.3.3,0,0,1,.184-.387l6.261-2.226.693-5.736a.307.307,0,0,1,.343-.264.3.3,0,0,1,.27.335l-.716,5.92a.3.3,0,0,1-.066.154" transform="translate(-674.83 -261.949)" fill="#fff"/>
        <path id="Trazado_820364" data-name="Trazado 820364" d="M1037.009,650.182a1.979,1.979,0,1,0-1.979,1.934,1.957,1.957,0,0,0,1.979-1.934" transform="translate(-729.854 -462.269)" fill="#de8a46"/>
        <path id="Trazado_820365" data-name="Trazado 820365" d="M989.891,653.811a4.037,4.037,0,1,0-4.036,3.945,3.991,3.991,0,0,0,4.036-3.945" transform="translate(-693.657 -463.422)" fill="#de8a46"/>
        <path id="Trazado_820366" data-name="Trazado 820366" d="M1031.236,690.707a2.058,2.058,0,1,0-2.058,2.012,2.035,2.035,0,0,0,2.058-2.012" transform="translate(-725.663 -491.112)" fill="#de8a46"/>
        <path id="Trazado_820367" data-name="Trazado 820367" d="M1077.675,702.038a3.166,3.166,0,1,0-3.166,3.094,3.131,3.131,0,0,0,3.166-3.094" transform="translate(-756.907 -498.419)" fill="#de8a46"/>
        <path id="Trazado_820368" data-name="Trazado 820368" d="M1042.848,718.9a1.663,1.663,0,1,0-1.662,1.625,1.644,1.644,0,0,0,1.662-1.625" transform="translate(-734.426 -511.495)" fill="#de8a46"/>
        <path id="Trazado_820369" data-name="Trazado 820369" d="M990.653,698.419a3.879,3.879,0,1,0-3.878,3.791,3.835,3.835,0,0,0,3.878-3.791" transform="translate(-694.419 -495.342)" fill="#de8a46"/>
        <path id="Trazado_820370" data-name="Trazado 820370" d="M948.088,722.217a1.742,1.742,0,1,0-1.741,1.7,1.722,1.722,0,0,0,1.741-1.7" transform="translate(-667.366 -513.802)" fill="#de8a46"/>
        <path id="Trazado_820371" data-name="Trazado 820371" d="M966.36,694.945a1.979,1.979,0,1,0-1.979,1.934,1.957,1.957,0,0,0,1.979-1.934" transform="translate(-679.94 -494.189)" fill="#de8a46"/>
        <path id="Trazado_820372" data-name="Trazado 820372" d="M188.288,480.677h-14a1.306,1.306,0,1,0,0,2.612h.374v54.535a6.628,6.628,0,0,0,13.253,0V483.289h.374a1.306,1.306,0,1,0,0-2.612" transform="translate(-122.19 -342.773)" fill="#add9e0"/>
        <path id="Trazado_820373" data-name="Trazado 820373" d="M188.687,589.478h-1.423a4.793,4.793,0,0,1-4.846-4.737v-38.88h11.115v38.88a4.793,4.793,0,0,1-4.846,4.737" transform="translate(-128.879 -389.256)" fill="#3c6a7c"/>
        <path id="Trazado_820374" data-name="Trazado 820374" d="M266.8,480.677h-14a1.306,1.306,0,1,0,0,2.612h.374v54.535a6.628,6.628,0,0,0,13.253,0V483.289h.374a1.306,1.306,0,1,0,0-2.612" transform="translate(-177.659 -342.773)" fill="#add9e0"/>
        <path id="Trazado_820375" data-name="Trazado 820375" d="M267.2,589.478h-1.423a4.793,4.793,0,0,1-4.846-4.737v-38.88h11.115v38.88a4.793,4.793,0,0,1-4.846,4.737" transform="translate(-184.348 -389.256)" fill="#ebb241"/>
        <path id="Trazado_820376" data-name="Trazado 820376" d="M341.971,480.677h-14a1.306,1.306,0,1,0,0,2.612h.374v54.535a6.628,6.628,0,0,0,13.253,0V483.289h.374a1.306,1.306,0,1,0,0-2.612" transform="translate(-230.768 -342.773)" fill="#add9e0"/>
        <path id="Trazado_820377" data-name="Trazado 820377" d="M346.592,589.478h-9.868a.617.617,0,0,1-.624-.61V545.861h11.115v43.008a.617.617,0,0,1-.624.61" transform="translate(-237.456 -389.256)" fill="#632727"/>
        <rect id="Rectángulo_378089" data-name="Rectángulo 378089" width="76.109" height="2.904" transform="translate(44.503 158.718)" fill="#70aab8"/>
        <path id="Trazado_820378" data-name="Trazado 820378" d="M148.727,485.776h-2.562a.16.16,0,0,0-.162.158v73.023a.16.16,0,0,0,.162.158h2.562a.16.16,0,0,0,.162-.158V485.934a.16.16,0,0,0-.162-.158" transform="translate(-103.151 -346.409)" fill="#70aab8"/>
        <path id="Trazado_820379" data-name="Trazado 820379" d="M407.7,485.776h-2.562a.16.16,0,0,0-.162.158v73.023a.16.16,0,0,0,.162.158H407.7a.16.16,0,0,0,.162-.158V485.934a.16.16,0,0,0-.162-.158" transform="translate(-286.119 -346.409)" fill="#70aab8"/>
        <rect id="Rectángulo_378090" data-name="Rectángulo 378090" width="81.179" height="8.227" transform="translate(41.569 207.757)" fill="#70aab8"/>
        <path id="Trazado_820380" data-name="Trazado 820380" d="M213.618,452.443a1.475,1.475,0,1,0-1.475,1.442,1.459,1.459,0,0,0,1.475-1.442" transform="translate(-148.837 -321.611)" fill="#fff"/>
        <path id="Trazado_820381" data-name="Trazado 820381" d="M189.97,460.982a1.553,1.553,0,1,0-1.552,1.517,1.535,1.535,0,0,0,1.552-1.517" transform="translate(-132.021 -327.647)" fill="#fff"/>
        <path id="Trazado_820382" data-name="Trazado 820382" d="M339.3,416.791s14.955,1.032-.348-21.9c0,0-14.716,22.128.348,21.9" transform="translate(-234.923 -281.599)" fill="#779158"/>
        <rect id="Rectángulo_378091" data-name="Rectángulo 378091" width="0.781" height="23.162" transform="matrix(1, -0.016, 0.016, 1, 104.029, 133.498)" fill="#779158"/>
        <path id="Trazado_820383" data-name="Trazado 820383" d="M354.19,421.069a.191.191,0,0,1-.2-.186l-.3-19.161a.193.193,0,0,1,.386-.006l.3,19.162a.191.191,0,0,1-.19.192" transform="translate(-249.883 -286.333)" fill="#adbe9c"/>
        <path id="Trazado_820384" data-name="Trazado 820384" d="M346.114,428.045h0a.2.2,0,0,1-.139-.054l-3.384-3.253a.186.186,0,0,1,0-.267.2.2,0,0,1,.273,0l3.244,3.119,3.238-3.312a.2.2,0,0,1,.273-.006.186.186,0,0,1,.006.267l-3.374,3.45a.2.2,0,0,1-.137.059" transform="translate(-242.001 -302.511)" fill="#adbe9c"/>
        <path id="Trazado_820385" data-name="Trazado 820385" d="M345.982,451.264a.2.2,0,0,1-.1-.026l-3.7-2.115a.186.186,0,0,1-.069-.258.2.2,0,0,1,.264-.068l3.6,2.057,3.1-1.968a.2.2,0,0,1,.267.056.187.187,0,0,1-.057.261l-3.2,2.031a.2.2,0,0,1-.1.03" transform="translate(-241.682 -320.021)" fill="#adbe9c"/>
        <path id="Trazado_820386" data-name="Trazado 820386" d="M182.617,416.791s14.955,1.032-.348-21.9c0,0-14.716,22.128.348,21.9" transform="translate(-124.225 -281.599)" fill="#779158"/>
        <rect id="Rectángulo_378092" data-name="Rectángulo 378092" width="0.781" height="23.162" transform="matrix(1, -0.016, 0.016, 1, 58.043, 133.498)" fill="#779158"/>
        <path id="Trazado_820387" data-name="Trazado 820387" d="M197.5,421.069a.191.191,0,0,1-.2-.186l-.3-19.161a.193.193,0,0,1,.387-.006l.3,19.162a.191.191,0,0,1-.19.192" transform="translate(-139.184 -286.333)" fill="#adbe9c"/>
        <path id="Trazado_820388" data-name="Trazado 820388" d="M189.429,428.045h0a.2.2,0,0,1-.139-.054l-3.384-3.253a.186.186,0,0,1,0-.267.2.2,0,0,1,.273,0l3.244,3.119,3.239-3.312a.2.2,0,0,1,.273-.006.186.186,0,0,1,.006.267l-3.374,3.45a.2.2,0,0,1-.137.059" transform="translate(-131.303 -302.511)" fill="#adbe9c"/>
        <path id="Trazado_820389" data-name="Trazado 820389" d="M189.3,451.264a.2.2,0,0,1-.1-.026l-3.7-2.115a.186.186,0,0,1-.069-.258.2.2,0,0,1,.264-.068l3.6,2.057,3.1-1.968a.2.2,0,0,1,.267.056.187.187,0,0,1-.057.261l-3.2,2.031a.2.2,0,0,1-.1.03" transform="translate(-130.983 -320.021)" fill="#adbe9c"/>
        <path id="Trazado_820390" data-name="Trazado 820390" d="M261.186,359.9s14.955,1.032-.348-21.9c0,0-14.716,22.128.348,21.9" transform="translate(-179.734 -241.027)" fill="#779158"/>
        <rect id="Rectángulo_378093" data-name="Rectángulo 378093" width="0.786" height="38.121" transform="matrix(1, -0.016, 0.016, 1, 80.865, 118.541)" fill="#779158"/>
        <path id="Trazado_820391" data-name="Trazado 820391" d="M276.073,364.175a.191.191,0,0,1-.2-.186l-.3-19.161a.193.193,0,0,1,.386-.006l.3,19.162a.191.191,0,0,1-.19.192" transform="translate(-194.693 -245.761)" fill="#adbe9c"/>
        <path id="Trazado_820392" data-name="Trazado 820392" d="M268,371.151h0a.2.2,0,0,1-.139-.054l-3.384-3.253a.186.186,0,0,1,0-.267.2.2,0,0,1,.273,0l3.244,3.119,3.238-3.312a.2.2,0,0,1,.273-.006.186.186,0,0,1,.006.267l-3.374,3.45a.2.2,0,0,1-.137.059" transform="translate(-186.811 -261.94)" fill="#adbe9c"/>
        <path id="Trazado_820393" data-name="Trazado 820393" d="M267.865,394.37a.2.2,0,0,1-.1-.026l-3.7-2.115a.187.187,0,0,1-.07-.258.2.2,0,0,1,.264-.068l3.6,2.057,3.1-1.968a.2.2,0,0,1,.267.056.186.186,0,0,1-.057.261l-3.2,2.031a.2.2,0,0,1-.1.03" transform="translate(-186.492 -279.449)" fill="#adbe9c"/>
        <path id="Trazado_820394" data-name="Trazado 820394" d="M281.647,423.209s2.741,6.893,10.147-4.874c0,0-13.5-1.8-10.147,4.874" transform="translate(-198.606 -298.16)" fill="#779158"/>
        <path id="Trazado_820395" data-name="Trazado 820395" d="M283.583,424.476a.094.094,0,0,1,.044-.127l8.879-4.265a.1.1,0,0,1,.13.044.094.094,0,0,1-.044.127l-8.879,4.265a.1.1,0,0,1-.13-.044" transform="translate(-200.345 -299.557)" fill="#adbe9c"/>
        <path id="Trazado_820396" data-name="Trazado 820396" d="M298.076,422.368h0a.093.093,0,0,1,0-.073l.789-2.21a.1.1,0,0,1,.124-.059.1.1,0,0,1,.06.121l-.757,2.119,2.243.731a.1.1,0,0,1,.062.12.1.1,0,0,1-.123.061l-2.337-.761a.1.1,0,0,1-.057-.049" transform="translate(-210.584 -299.518)" fill="#adbe9c"/>
        <path id="Trazado_820397" data-name="Trazado 820397" d="M289.133,427.2a.094.094,0,0,1-.01-.05l.189-2.108a.1.1,0,0,1,.194.016l-.184,2.05,1.587.96a.094.094,0,0,1,.032.131.1.1,0,0,1-.134.031l-1.639-.991a.1.1,0,0,1-.036-.039" transform="translate(-204.266 -303.039)" fill="#adbe9c"/>
        <path id="Trazado_820398" data-name="Trazado 820398" d="M247.008,442.626s-2.741,6.893-10.147-4.874c0,0,13.5-1.8,10.147,4.874" transform="translate(-167.343 -312.006)" fill="#779158"/>
        <path id="Trazado_820399" data-name="Trazado 820399" d="M248.945,443.892a.094.094,0,0,0-.045-.127l-8.879-4.265a.1.1,0,0,0-.13.044.094.094,0,0,0,.044.127l8.879,4.265a.1.1,0,0,0,.13-.044" transform="translate(-169.476 -313.402)" fill="#adbe9c"/>
        <path id="Trazado_820400" data-name="Trazado 820400" d="M250.2,441.785h0a.093.093,0,0,0,0-.073l-.789-2.21a.1.1,0,0,0-.124-.058.1.1,0,0,0-.06.121l.757,2.119-2.244.731a.1.1,0,0,0-.062.12.1.1,0,0,0,.123.06l2.338-.761a.1.1,0,0,0,.057-.049" transform="translate(-174.983 -313.365)" fill="#adbe9c"/>
        <path id="Trazado_820401" data-name="Trazado 820401" d="M260.824,446.619a.1.1,0,0,0,.01-.05l-.189-2.108a.1.1,0,0,0-.194.017l.184,2.049-1.588.96a.094.094,0,0,0-.032.131.1.1,0,0,0,.134.031l1.639-.991a.1.1,0,0,0,.036-.039" transform="translate(-182.985 -316.885)" fill="#adbe9c"/>
        <path id="Trazado_820411" data-name="Trazado 820411" d="M0,0,2.338.024l.008.782L.008.782Z" transform="matrix(0.844, -0.536, 0.536, 0.844, 81.02, 126.185)" fill="#779158"/>
        <path id="Trazado_820402" data-name="Trazado 820402" d="M271.97,456.575l-2.187-1.36.426-.656,2.187,1.36Z" transform="translate(-190.603 -324.148)" fill="#779158"/>
        <path id="Trazado_820403" data-name="Trazado 820403" d="M861.117,88.591h0c-.253-.143-.395-.239-.395-.239l0,0c-3.031-1.716-4.536-3.8-4.448-6.184.272-7.519,16.378-15.287,17.063-15.614a.283.283,0,0,1,.337.013.342.342,0,0,1,.17.283c.474,12.259-1.365,19.7-5.463,22.11-2.924,1.722-6.05.317-7.257-.366m12.034-21.179c-2.729,1.377-15.946,8.37-16.178,14.777-.076,2.109,1.311,3.985,4.127,5.579.032.021.155.1.371.225,1.1.622,3.935,1.9,6.539.371,2.622-1.54,5.624-6.436,5.141-20.952" transform="translate(-604.953 -47.422)" fill="#ebb241"/>
        <path id="Trazado_820404" data-name="Trazado 820404" d="M864.69,100.364a.34.34,0,0,1-.129-.472l12.3-20.773a.356.356,0,0,1,.483-.126.34.34,0,0,1,.129.472l-12.3,20.773a.356.356,0,0,1-.483.126" transform="translate(-610.78 -56.297)" fill="#ebb241"/>
        <path id="Trazado_820405" data-name="Trazado 820405" d="M890.848,92.643a.341.341,0,0,1-.144-.156l-1.442-3.08a.339.339,0,0,1,.175-.456.354.354,0,0,1,.467.171l1.344,2.868,3.52-.128a.339.339,0,0,1,.365.331.345.345,0,0,1-.339.357l-3.756.138a.363.363,0,0,1-.19-.045" transform="translate(-628.243 -63.409)" fill="#ebb241"/>
        <path id="Trazado_820406" data-name="Trazado 820406" d="M877.973,103.922a.364.364,0,0,1-.129-.126l-2.979-5.078a.343.343,0,0,1,.13-.472.363.363,0,0,1,.483.127l2.876,4.9,5.627-.086a.346.346,0,1,1,.011.692l-5.836.089a.36.36,0,0,1-.182-.047" transform="translate(-618.061 -70.027)" fill="#ebb241"/>
        <path id="Trazado_820407" data-name="Trazado 820407" d="M868.1,116.153a.349.349,0,0,1-.123-.116l-3.7-5.819a.34.34,0,0,1,.113-.476.366.366,0,0,1,.486.11l3.6,5.658,6.636.073a.338.338,0,0,1,.349.347.348.348,0,0,1-.355.341l-6.83-.074a.363.363,0,0,1-.174-.046" transform="translate(-610.575 -78.223)" fill="#ebb241"/>
        <path id="Trazado_820408" data-name="Trazado 820408" d="M345.4,754.912H2.072a2.6,2.6,0,0,1,0-5.1H345.4a2.6,2.6,0,0,1,0,5.1" transform="translate(0 -534.697)" fill="#1a2e3c"/>
        <path id="Trazado_820409" data-name="Trazado 820409" d="M310.895,82.1a.662.662,0,0,1-.232-.527.677.677,0,0,1,.3-.522,98.781,98.781,0,0,0,11.36-9.218,2.73,2.73,0,0,1-1.525-1.464c-.17-.44-1.01-4-.045-4.439.385-.177.8.18.936.3a7.2,7.2,0,0,1,1.079,1.276c-.269-1.165-.633-3.464.127-3.809.385-.176.8.18.936.3a6.133,6.133,0,0,1,.83.931c-.436-1.157-.919-2.88-.3-3.279.351-.226.876-.02,1.654.649.095.081.189.168.284.256-.547-1.377-1.335-4-.522-4.507.39-.244.991-.007,1.839.723.154.133.31.276.462.425-.768-1.5-1.831-4.114-1.011-4.735.669-.509,2.157.544,3.286,1.517A12.659,12.659,0,0,1,332,57.622a3.818,3.818,0,0,1,.62,1.635c.284-.53.554-1.065.811-1.586a2.536,2.536,0,0,1-1.986-.754,4.082,4.082,0,0,1-1.076-1.4c-.382-.884-1.7-6-.388-6.656.372-.186.852-.017,1.469.514a16.265,16.265,0,0,1,2.852,3.694,5.091,5.091,0,0,1,.506-2.342c.479-.917,3.76-5.539,5.018-4.987a.594.594,0,0,1,.147.092c.994.856-.78,5.82-1.213,6.654a4.827,4.827,0,0,1-.692.963c1.725-.885,4.169-1.908,4.851-1.322a.6.6,0,0,1,.1.107c.776,1.115-3.331,5.058-4.176,5.675a5.37,5.37,0,0,1-1.87.809c1.523-.091,3.479-.047,4.1.483a.612.612,0,0,1,.222.379c.179,1.251-4.579,3.08-5.483,3.289a3.78,3.78,0,0,1-.718.086,6.507,6.507,0,0,1,2.576.886.655.655,0,0,1,.27.538c-.074,1.148-4.451,1.93-5.262,1.955a5.664,5.664,0,0,1,1.408.777.72.72,0,0,1,.33.7c-.242,1.009-4,.957-4.478.886a2.7,2.7,0,0,1-1.863-1.245c-.275.311-.549.617-.817.917a2.945,2.945,0,0,1,1.067-.062,9.984,9.984,0,0,1,3.44,1.443c.282.242.395.483.338.714-.188.761-2.384.9-3.648.889a5.174,5.174,0,0,1,1.171.683.736.736,0,0,1,.337.713c-.249,1.007-4.006.923-4.483.849a2.628,2.628,0,0,1-1.893-1.358,76.342,76.342,0,0,1-11.858,9.891.674.674,0,0,1-.83-.033m12.163-10.665a.286.286,0,0,1,.046.052.233.233,0,0,1-.036.291,97.976,97.976,0,0,1-11.818,9.652.22.22,0,0,0-.108.164c-.006.114.086.3.313.15a76.832,76.832,0,0,0,12.4-10.457.235.235,0,0,0,.15-.159l.118-.121c.6-.614,1.19-1.229,1.762-1.853a.246.246,0,0,1,.323-.032.255.255,0,0,1,.061.311.783.783,0,0,1-.08.1c-.079.237.063.511.365.771a2.475,2.475,0,0,0,1.137.547c1.039.159,3.84-.087,3.941-.5.006-.022-.018-.106-.188-.252a9.463,9.463,0,0,0-3.2-1.332,2.8,2.8,0,0,0-1.72.389.255.255,0,0,1-.316-.04.231.231,0,0,1,0-.31l.109-.114c.556-.616,1.14-1.269,1.731-1.938a.247.247,0,0,1,.288-.057.231.231,0,0,1,.129.26c-.046.212.095.477.386.728a2.464,2.464,0,0,0,1.151.546c1.041.151,3.842-.119,3.941-.532,0-.016-.02-.1-.18-.238a9.55,9.55,0,0,0-3.223-1.313,2.813,2.813,0,0,0-1.676.38.242.242,0,0,1-.311-.042.23.23,0,0,1,0-.307q.729-.839,1.448-1.723a.246.246,0,0,1,.273-.073.23.23,0,0,1,.154.233.805.805,0,0,0,.332.606,3.1,3.1,0,0,0,1.9.641c1.229-.039,4.762-.939,4.8-1.516,0-.038-.038-.1-.109-.157-.709-.61-3.6-1.045-4.474-1.019a3.778,3.778,0,0,0-1.751.613.247.247,0,0,1-.307-.034.228.228,0,0,1-.018-.3c.593-.768,1.164-1.573,1.7-2.392a.242.242,0,0,1,.3-.089.238.238,0,0,1,.135.275c-.014.049-.032.1-.052.146a.55.55,0,0,0-.044.141.7.7,0,0,0,.259.423,3.482,3.482,0,0,0,2.6.456c1.429-.331,5.214-2.1,5.118-2.768a.165.165,0,0,0-.063-.091c-.675-.581-4.319-.436-5.444-.175a4.457,4.457,0,0,0-1.873,1.085.244.244,0,0,1-.316.019l-.011-.01a.231.231,0,0,1-.049-.294,19.584,19.584,0,0,0,1.5-3.094.242.242,0,0,1,.292-.144.237.237,0,0,1,.168.274,1.022,1.022,0,0,0,.067.8c.485.687,2.447.261,3.465-.484,1.346-.982,4.481-4.443,4.067-5.036-.581-.5-4.666,1.361-5.949,2.3a5.048,5.048,0,0,0-1.4,1.716.241.241,0,0,1-.3.115.226.226,0,0,1-.142-.288c.12-.374.212-.7.285-.993-.117.231-.23.462-.344.693l-.089.18a.244.244,0,0,1-.3.119.24.24,0,0,1-.154-.274,4.2,4.2,0,0,0-.158-2.389,15.216,15.216,0,0,0-2.94-3.945c-.421-.362-.77-.53-.933-.449-.773.385.06,4.782.611,6.056a3.692,3.692,0,0,0,.952,1.23c.522.45,1.27.836,1.8.572a.886.886,0,0,0,.231-.182.244.244,0,0,1,.309-.03.222.222,0,0,1,.08.294c-.478.983-.993,2.028-1.574,3.043a.243.243,0,0,1-.285.109.237.237,0,0,1-.163-.252,3.478,3.478,0,0,0-.555-2.224,11.808,11.808,0,0,0-1.571-1.574c-1.5-1.288-2.435-1.68-2.675-1.5-.564.428.869,3.967,1.664,5.055.5.7,1.857,1.454,2.613,1.115a.237.237,0,0,1,.3.338l-.184.294c-.136.22-.272.44-.428.657-.244.342-.508.674-.771,1.006-.147.186-.294.37-.438.557a.242.242,0,0,1-.3.07.225.225,0,0,1-.128-.271,3.09,3.09,0,0,0-.25-2.1,12.75,12.75,0,0,0-2.149-2.426c-.781-.672-1.162-.743-1.263-.681-.525.33.424,3.6,1.021,4.634a2.479,2.479,0,0,0,.531.618,1.856,1.856,0,0,0,1.664.555.254.254,0,0,1,.285.072.232.232,0,0,1,0,.289c-.534.672-1.018,1.277-1.529,1.877a.244.244,0,0,1-.3.056.236.236,0,0,1-.113-.278,2.478,2.478,0,0,0-.214-1.758,10.391,10.391,0,0,0-1.683-1.856c-.705-.607-1.018-.644-1.073-.608-.362.233.384,2.819.9,3.692a1.947,1.947,0,0,0,.4.455,1.488,1.488,0,0,0,1.346.452.235.235,0,0,1,.288.074.229.229,0,0,1-.008.291l-.406.471c-.449.522-.9,1.044-1.362,1.549l-.056.057a.278.278,0,0,1-.336.055.226.226,0,0,1-.1-.281,2.55,2.55,0,0,0,.081-1.831,9.62,9.62,0,0,0-1.863-2.678c-.259-.223-.388-.238-.415-.225-.392.178-.078,2.894.29,3.85a2.356,2.356,0,0,0,.637.858c.37.318.736.443.978.333a.243.243,0,0,1,.295.075.231.231,0,0,1-.018.3c-.518.551-1.056,1.085-1.576,1.6l-.135.135a.246.246,0,0,1-.307.029.222.222,0,0,1-.083-.289,2.6,2.6,0,0,0,.056-1.749,9.619,9.619,0,0,0-1.863-2.678c-.259-.223-.388-.238-.415-.226-.394.179-.079,2.893.291,3.849a2.246,2.246,0,0,0,.621.837,1.094,1.094,0,0,0,.949.35.243.243,0,0,1,.237.045m1.2.076a.233.233,0,0,1-.056.1.729.729,0,0,0-.181.23c-.076.308.247.628.39.751a2.472,2.472,0,0,0,1.137.547c1.039.159,3.84-.086,3.941-.5.006-.022-.018-.106-.187-.251a9.446,9.446,0,0,0-3.2-1.332,2.767,2.767,0,0,0-1.783.42.241.241,0,0,1-.062.032m-.542-2.326a2.988,2.988,0,0,1,.112,1.154c.233-.232.467-.467.7-.707a2.041,2.041,0,0,1-.811-.447m2.022.822c-.2.215-.4.426-.608.639a2.992,2.992,0,0,1,1.031-.054,1.639,1.639,0,0,1-.422-.586m-.012-3.379c.04.086.075.162.1.227a3.016,3.016,0,0,1,.156,1.233c.273-.31.535-.615.8-.919l.031-.037a2.478,2.478,0,0,1-1.083-.5m2.175-2.157a3.133,3.133,0,0,1,.25,1.094c.214-.261.429-.528.648-.8a2.444,2.444,0,0,1-.9-.292m2.167.655c-.176.213-.353.425-.529.634a2.993,2.993,0,0,1,1.035-.077,1.622,1.622,0,0,1-.506-.558m-.346-4.041c.059.085.107.16.144.224a3.447,3.447,0,0,1,.394,1.588c.232-.292.462-.585.677-.885.111-.156.212-.313.311-.472a3.106,3.106,0,0,1-1.527-.455m2.752.864q-.34.5-.7.988a3.554,3.554,0,0,1,1.079-.232,6.527,6.527,0,0,1,.718.036,1.954,1.954,0,0,1-1.1-.793m2.152-3.767q-.273.619-.6,1.236a4.181,4.181,0,0,1,1.164-.5c.139-.032.352-.066.616-.1a1.47,1.47,0,0,1-1.121-.54c-.023-.032-.043-.066-.062-.1m5.029-12c-.7-.311-3.658,3.3-4.419,4.755-.571,1.1-.654,3.058.106,3.411h.035v0l.024,0a.315.315,0,0,1,.053.007c.818.2,2.315-1.008,2.878-2.089.734-1.41,1.9-5.59,1.324-6.089" transform="translate(-219.483 -32.585)" fill="#ebb241"/>
      </g>
    </g>
  </g>
</svg>
