<svg xmlns="http://www.w3.org/2000/svg" xmlns:xlink="http://www.w3.org/1999/xlink" width="146" height="146" viewBox="0 0 146 146">
  <defs>
    <clipPath id="clip-path">
      <rect id="Rectángulo_378557" data-name="Rectángulo 378557" width="80.677" height="104.582" fill="none"/>
    </clipPath>
  </defs>
  <g id="Grupo_1076548" data-name="Grupo 1076548" transform="translate(-307 -2843)">
    <circle id="Elipse_5862" data-name="Elipse 5862" cx="73" cy="73" r="73" transform="translate(307 2843)" fill="#fffad0"/>
    <g id="Grupo_1076543" data-name="Grupo 1076543" transform="translate(-256.339 141.709)">
      <g id="Grupo_1076542" data-name="Grupo 1076542" transform="translate(596 2722)">
        <g id="Grupo_1076541" data-name="Grupo 1076541" clip-path="url(#clip-path)">
          <path id="Trazado_823107" data-name="Trazado 823107" d="M171.822,384.953H157.246a1.456,1.456,0,1,1,0-2.913h14.575a1.456,1.456,0,1,1,0,2.913" transform="translate(-117.977 -289.312)" fill="#344c60"/>
          <path id="Trazado_823108" data-name="Trazado 823108" d="M102.4,384.953H95.617a1.456,1.456,0,1,1,0-2.913H102.4a1.456,1.456,0,1,1,0,2.913" transform="translate(-71.306 -289.312)" fill="#344c60"/>
          <path id="Trazado_823109" data-name="Trazado 823109" d="M16.134,384.953H1.456a1.456,1.456,0,1,1,0-2.913H16.134a1.456,1.456,0,1,1,0,2.913" transform="translate(0 -289.312)" fill="#344c60"/>
          <path id="Trazado_823110" data-name="Trazado 823110" d="M244.606,24.25A12.125,12.125,0,1,1,256.73,12.124,12.14,12.14,0,0,1,244.606,24.25m0-21.337a9.212,9.212,0,1,0,9.211,9.211,9.223,9.223,0,0,0-9.211-9.211" transform="translate(-176.053 0)" fill="#344c60"/>
          <path id="Trazado_823111" data-name="Trazado 823111" d="M266.275,36.576a1.457,1.457,0,0,1-1.329-.86l-2.039-4.546a1.456,1.456,0,0,1,2.658-1.192l.756,1.685a33.076,33.076,0,0,1,3.48-5.449,1.456,1.456,0,1,1,2.269,1.826,34.9,34.9,0,0,0-4.464,7.671,1.456,1.456,0,0,1-1.328.865Z" transform="translate(-198.998 -19.44)" fill="#344c60"/>
          <path id="Trazado_823112" data-name="Trazado 823112" d="M244.606,147.9a12.125,12.125,0,1,1,12.124-12.126A12.14,12.14,0,0,1,244.606,147.9m0-21.337a9.212,9.212,0,1,0,9.211,9.211,9.223,9.223,0,0,0-9.211-9.211" transform="translate(-176.053 -93.639)" fill="#344c60"/>
          <path id="Trazado_823113" data-name="Trazado 823113" d="M266.275,160.225a1.457,1.457,0,0,1-1.329-.86l-2.039-4.546a1.456,1.456,0,0,1,2.658-1.192l.756,1.685a33.2,33.2,0,0,1,3.48-5.449,1.456,1.456,0,0,1,2.27,1.825,34.971,34.971,0,0,0-4.464,7.671,1.456,1.456,0,0,1-1.328.865Z" transform="translate(-198.998 -113.077)" fill="#344c60"/>
          <path id="Trazado_823114" data-name="Trazado 823114" d="M244.606,271.55a12.125,12.125,0,1,1,12.124-12.124,12.139,12.139,0,0,1-12.124,12.124m0-21.337a9.212,9.212,0,1,0,9.211,9.214,9.224,9.224,0,0,0-9.211-9.214" transform="translate(-176.053 -187.276)" fill="#344c60"/>
          <path id="Trazado_823115" data-name="Trazado 823115" d="M266.275,283.875a1.456,1.456,0,0,1-1.329-.86l-2.039-4.546a1.456,1.456,0,0,1,2.658-1.192l.756,1.685a33.193,33.193,0,0,1,3.48-5.449,1.456,1.456,0,1,1,2.27,1.825,34.963,34.963,0,0,0-4.464,7.671,1.456,1.456,0,0,1-1.328.865Z" transform="translate(-198.998 -206.715)" fill="#344c60"/>
          <path id="Trazado_823116" data-name="Trazado 823116" d="M87.681,29.264c-4.559,0-8.41-4.958-8.41-10.825,0-5.3,3.3-8.728,8.41-8.728s8.41,3.426,8.41,8.728c0,5.868-3.851,10.825-8.41,10.825m0-16.641c-1.653,0-5.5.567-5.5,5.816,0,4.215,2.569,7.913,5.5,7.913s5.5-3.7,5.5-7.913c0-5.249-3.844-5.816-5.5-5.816" transform="translate(-60.031 -7.353)" fill="#344c60"/>
          <path id="Trazado_823117" data-name="Trazado 823117" d="M119.182,206.589a25.345,25.345,0,0,1-5-.5,2.532,2.532,0,0,1-2.035-2.252c-.2-2.122-.395-4.447-.617-7.537-.145-2.018-.279-4.044-.422-6.188-.649-9.763-1.32-19.858-2.952-29.4a1.456,1.456,0,1,1,2.871-.491c1.657,9.694,2.333,19.865,2.987,29.7.142,2.141.276,4.163.421,6.173.211,2.933.393,5.168.585,7.194a23.213,23.213,0,0,0,9.515-.215,9,9,0,0,0-3.208-2.542A2.547,2.547,0,0,1,120,198.639c-.1-.752-.2-1.515-.3-2.271-.545-4.458-.95-9.289-1.341-13.96-.5-5.924-1.009-12.05-1.813-17.458-.005-.036-.009-.072-.012-.109-.058-.8-.112-1.657-.164-2.625-.255-4.656-.372-9.952-.485-15.074-.087-3.925-.168-7.632-.307-10.922a1.456,1.456,0,1,1,2.91-.123c.14,3.319.222,7.041.309,10.98.112,5.1.229,10.37.482,14.98.05.93.1,1.754.157,2.519.813,5.486,1.328,11.639,1.827,17.588.389,4.644.791,9.447,1.33,13.851.083.678.171,1.36.262,2.031a11.153,11.153,0,0,1,4.42,3.882,2.546,2.546,0,0,1-1.554,3.853,28.2,28.2,0,0,1-6.546.808m5.65-3.087h0Zm-2.139-5.549h0" transform="translate(-81.885 -102.007)" fill="#344c60"/>
          <path id="Trazado_823118" data-name="Trazado 823118" d="M48.067,206.59a28.175,28.175,0,0,1-6.544-.808,2.546,2.546,0,0,1-1.557-3.852,11.154,11.154,0,0,1,4.42-3.883c.091-.668.18-1.351.262-2.03.541-4.412.944-9.221,1.334-13.873.5-5.943,1.013-12.087,1.825-17.567.056-.778.107-1.6.157-2.519.251-4.6.367-9.86.478-14.948.087-3.952.169-7.684.309-11.013a1.456,1.456,0,0,1,2.91.123c-.139,3.3-.221,7.018-.308,10.954-.113,5.11-.229,10.395-.482,15.041-.052.955-.106,1.814-.164,2.625,0,.037-.007.073-.012.109-.8,5.4-1.316,11.52-1.812,17.437-.392,4.679-.8,9.516-1.345,13.982-.092.756-.191,1.518-.294,2.265a2.551,2.551,0,0,1-1.322,1.892,9,9,0,0,0-3.2,2.541,23.211,23.211,0,0,0,9.515.215c.192-2.026.374-4.261.585-7.194.144-2.009.278-4.031.421-6.172.654-9.836,1.33-20.008,2.987-29.7a1.456,1.456,0,0,1,2.871.491c-1.632,9.547-2.3,19.642-2.952,29.4-.142,2.144-.277,4.17-.422,6.187-.222,3.089-.412,5.414-.617,7.538a2.533,2.533,0,0,1-2.034,2.252,25.37,25.37,0,0,1-5.006.5m-3.514-8.633h0" transform="translate(-29.961 -102.008)" fill="#344c60"/>
          <path id="Trazado_823119" data-name="Trazado 823119" d="M67.7,132.732a1.457,1.457,0,0,1-1.2-2.278l6.5-9.519a1.4,1.4,0,0,1,.13-.164,3.531,3.531,0,0,0,.915-2.754c-.082-.79-.158-1.612-.239-2.485-.278-3-.594-6.392-1.354-11.061-1.184-7.283-3.869-7.607-13-7.607s-11.813.324-13,7.608c-.756,4.642-1.071,8.025-1.348,11.009-.083.892-.161,1.731-.245,2.537a3.534,3.534,0,0,0,.917,2.754,1.4,1.4,0,0,1,.13.164l6.5,9.519a1.456,1.456,0,0,1-2.4,1.643l-6.449-9.438a6.448,6.448,0,0,1-1.6-4.944c.083-.8.16-1.624.242-2.5.268-2.881.6-6.467,1.374-11.208,1.637-10.052,7.3-10.052,15.874-10.052s14.24,0,15.874,10.052c.776,4.768,1.111,8.367,1.379,11.259.08.861.156,1.674.236,2.453a6.445,6.445,0,0,1-1.593,4.944L68.9,132.1a1.456,1.456,0,0,1-1.2.635" transform="translate(-31.754 -71.147)" fill="#344c60"/>
        </g>
      </g>
    </g>
  </g>
</svg>
