<svg id="Grupo_1075540" data-name="Grupo 1075540" xmlns="http://www.w3.org/2000/svg" xmlns:xlink="http://www.w3.org/1999/xlink" width="358" height="221.549" viewBox="0 0 358 221.549">
  <defs>
    <clipPath id="clip-path">
      <rect id="Rectángulo_378082" data-name="Rectángulo 378082" width="358" height="221.549" fill="none"/>
    </clipPath>
  </defs>
  <g id="Grupo_1075539" data-name="Grupo 1075539" clip-path="url(#clip-path)">
    <path id="Trazado_820036" data-name="Trazado 820036" d="M60.063,139.1c-25.735,18.527-27.513,54.346-12.384,80.215,16.185.606,314.518,2.285,315.788,0,28.994-52.163,33.246-145.1-14.834-187.88C332.687,17.242,312.6,8.181,291.773,3.5c-28.208-6.348-59.07-4.572-84.232,9.671-29.783,16.859-43.166,49.413-63.034,75.517-9.79,12.863-21.121,24.322-36.143,30.78-15.865,6.82-33.686,9.252-48.02,19.432l-.281.2" transform="translate(-27.091 0)" fill="#f5eabc"/>
    <path id="Trazado_820037" data-name="Trazado 820037" d="M213.932,100.774c9.587,8.33,7.38,28.366,1.693,38.823-11.037,20.3-34.771,41.142-59.147,41.017-12.169-.063-24.878-9.054-22.757-22.4,1.32-8.3,7.1-15.143,13.077-21.06,10.624-10.522,22.549-19.593,34.69-28.277,9.013-6.447,21.535-17.585,32.443-8.107" transform="translate(-94.959 -69.078)" fill="#f5eabc"/>
    <path id="Trazado_820038" data-name="Trazado 820038" d="M1018.613,273.913l32.57.525a9.483,9.483,0,0,0,8.622-4.612c1.837-3.48,3.057-7.693-1.457-8.148-7.819-.787-10.946,4.2-10.946,4.2s5-14.161-6.568-14.423-19.078,11.539-19.078,11.539-.312-4.2-6.88-2.36a6.609,6.609,0,0,0-2.79,1.609c-4.71,4.466-.582,11.56,6.527,11.675" transform="translate(-718.533 -178.871)" fill="#fff"/>
    <path id="Trazado_820039" data-name="Trazado 820039" d="M174.02,283.227l25.423.41a7.4,7.4,0,0,0,6.73-3.6c1.434-2.716,2.386-6.005-1.138-6.36-6.1-.614-8.544,3.275-8.544,3.275s3.906-11.053-5.127-11.258-14.891,9.007-14.891,9.007-.244-3.275-5.371-1.842a5.157,5.157,0,0,0-2.178,1.256c-3.676,3.486-.454,9.023,5.095,9.113" transform="translate(-119.051 -189.003)" fill="#fff"/>
    <path id="Trazado_820040" data-name="Trazado 820040" d="M718.823,42.286l36.54.589c4.174.068,7.983-1.973,9.673-5.174,2.061-3.9,3.43-8.631-1.635-9.141-8.772-.883-12.281,4.707-12.281,4.707s5.614-15.888-7.368-16.182-21.4,12.945-21.4,12.945-.351-4.707-7.719-2.648a7.413,7.413,0,0,0-3.13,1.8c-5.284,5.011-.653,12.969,7.323,13.1" transform="translate(-504.532 -12.151)" fill="#fff"/>
    <path id="Trazado_820041" data-name="Trazado 820041" d="M543.737,304.058a.332.332,0,0,1-.146-.035l-3.135-1.649-3.135,1.649a.317.317,0,0,1-.329-.024.311.311,0,0,1-.124-.3l.6-3.493-2.536-2.473a.31.31,0,0,1,.173-.532l3.506-.509,1.568-3.177a.324.324,0,0,1,.56,0l1.568,3.177,3.506.509a.31.31,0,0,1,.173.532l-2.536,2.473.6,3.493a.31.31,0,0,1-.124.3.3.3,0,0,1-.183.06m-3.282-2.349a.333.333,0,0,1,.146.035l2.721,1.431-.519-3.031a.3.3,0,0,1,.09-.275l2.2-2.147-3.043-.442a.314.314,0,0,1-.237-.171l-1.361-2.758-1.361,2.758a.313.313,0,0,1-.236.171l-3.043.442,2.2,2.147a.3.3,0,0,1,.09.275l-.519,3.031,2.721-1.431a.332.332,0,0,1,.146-.035" transform="translate(-380.461 -208.678)" fill="#ebb241"/>
    <path id="Trazado_820042" data-name="Trazado 820042" d="M633.251,89.51H624.08a.319.319,0,0,1-.319-.319V80.02a.319.319,0,0,1,.319-.319h9.171a.319.319,0,0,1,.319.319v9.171a.319.319,0,0,1-.319.319m-8.852-.638h8.533V80.339H624.4Z" transform="translate(-443.722 -56.697)" fill="#ebb241"/>
    <path id="Trazado_820043" data-name="Trazado 820043" d="M631.477,90.951a.319.319,0,0,1-.232-.1l-2.508-2.665a.319.319,0,0,1,.465-.438l2.249,2.39,4.083-5.42a.319.319,0,1,1,.509.384l-4.311,5.722a.319.319,0,0,1-.237.126Z" transform="translate(-447.2 -60.175)" fill="#ebb241"/>
    <path id="Trazado_820044" data-name="Trazado 820044" d="M1017.818,409.982h-9.172a.319.319,0,0,1-.319-.319v-9.171a.319.319,0,0,1,.319-.319h9.172a.319.319,0,0,1,.319.319v9.171a.319.319,0,0,1-.319.319m-8.853-.638h8.533v-8.533h-8.533Z" transform="translate(-717.29 -284.669)" fill="#ebb241"/>
    <path id="Trazado_820045" data-name="Trazado 820045" d="M1016.044,411.424a.319.319,0,0,1-.233-.1l-2.508-2.665a.319.319,0,0,1,.465-.438l2.249,2.39,4.083-5.42a.319.319,0,0,1,.51.384L1016.3,411.3a.318.318,0,0,1-.237.126Z" transform="translate(-720.767 -288.148)" fill="#ebb241"/>
    <path id="Trazado_820046" data-name="Trazado 820046" d="M363.487,536.155c10.062-18.1,17.135-41.12,20.084-65.245-37.664-15.765-162.721-55.534-343.592,14.878-4.211,16.542-1.168,35.17,7.72,50.367,16.185.606,314.518,2.285,315.788,0" transform="translate(-27.11 -316.844)" fill="#adbe9c"/>
    <path id="Trazado_820047" data-name="Trazado 820047" d="M729.224,454.167l-9.719,5.893c-3.444,2.088-7.172,4.54-8.219,8.429-1.093,4.062,1.114,8.576-.38,12.509-.925,2.436-3.1,4.146-5.208,5.67q-5.715,4.121-11.821,7.661c-4.828,2.8-10.4,6.09-11.2,11.611-.639,4.373,2.062,8.777,1.2,13.112-1.1,5.508-7.13,8.236-12.229,10.591-4.528,2.091-9.019,4.652-12.054,8.611a15.84,15.84,0,0,0-2.629,5.235c18.578.046,36.931.071,54.054.064a22.732,22.732,0,0,0,.96-12.72c-.944-4.349-3.151-8.311-4.556-12.534s-1.92-9.12.392-12.922c3.782-6.222,13.452-7.063,16.683-13.587,2.151-4.343.587-9.523.908-14.359.45-6.768,4.719-12.819,10.07-16.987a45.85,45.85,0,0,1,7.345-4.578q-6.582-.936-13.594-1.7" transform="translate(-467.34 -323.079)" fill="#779158"/>
    <path id="Trazado_820048" data-name="Trazado 820048" d="M381.4,517.2c4.989-5.773,2.78-15.625,8.162-21.032,3.033-3.047,7.611-3.759,11.814-4.661,5.412-1.161,10.8-2.935,15.291-6.165s8.034-8.081,8.745-13.571c.311-2.4.084-4.87.6-7.239,1.349-6.184,7.24-10.13,12.645-13.422l9.3-5.664q-11.5.031-23.76.665a13.979,13.979,0,0,0-5.429,6.4c-.877,2.248-1.025,4.713-1.725,7.022-2.629,8.67-12.1,13.123-20.793,15.666s-18.312,4.636-24.064,11.635c-3.942,4.8-5.535,11.381-10.185,15.494-3.769,3.333-8.924,4.49-13.458,6.669a31.884,31.884,0,0,0-16.06,17.913,73.941,73.941,0,0,0-2.426,9.979c12.442.075,25.831.145,39.7.208.015-5.484,1.162-10.733,5.018-14.431,2.069-1.984,4.749-3.292,6.623-5.461" transform="translate(-234.792 -316.871)" fill="#779158"/>
    <path id="Trazado_820049" data-name="Trazado 820049" d="M209.965,149.8h0c-.276-.081-.434-.141-.434-.141h-.005c-3.305-.97-5.24-2.658-5.725-5.007-1.534-7.412,12-18.76,12.576-19.239a.274.274,0,0,1,.325-.066.347.347,0,0,1,.23.237c3.377,11.871,3.4,19.572.055,22.883-2.383,2.365-5.7,1.721-7.02,1.335m6.444-23.506c-2.279,1.982-13.237,11.9-11.931,18.215.431,2.078,2.2,3.589,5.274,4.49.036.013.173.065.408.134,1.2.352,4.213.942,6.336-1.162s3.837-7.6-.087-21.676" transform="translate(-144.889 -89.145)" fill="#ebb241"/>
    <path id="Trazado_820050" data-name="Trazado 820050" d="M219.775,162.991a.346.346,0,0,1-.236-.431l6.8-23.172a.347.347,0,1,1,.667.2l-6.8,23.172a.346.346,0,0,1-.431.235" transform="translate(-156.163 -98.978)" fill="#ebb241"/>
    <path id="Trazado_820051" data-name="Trazado 820051" d="M231.094,156.258a.341.341,0,0,1-.174-.119l-2.113-2.674a.346.346,0,1,1,.544-.429l1.968,2.49,3.333-.946a.336.336,0,0,1,.428.239.344.344,0,0,1-.239.428l-3.555,1.011a.349.349,0,0,1-.193,0" transform="translate(-162.712 -108.771)" fill="#ebb241"/>
    <path id="Trazado_820052" data-name="Trazado 820052" d="M221.238,170.29a.362.362,0,0,1-.154-.093l-4.058-4.269a.348.348,0,0,1,.5-.48l3.917,4.12,5.355-1.4a.348.348,0,0,1,.176.674l-5.554,1.448a.346.346,0,0,1-.186,0" transform="translate(-154.317 -117.619)" fill="#ebb241"/>
    <path id="Trazado_820053" data-name="Trazado 820053" d="M214.532,184.519a.348.348,0,0,1-.145-.085l-4.921-4.825a.346.346,0,0,1-.006-.491.356.356,0,0,1,.491-.006l4.785,4.691,6.357-1.476a.336.336,0,0,1,.417.258.346.346,0,0,1-.258.417l-6.542,1.52a.351.351,0,0,1-.177,0" transform="translate(-148.932 -127.346)" fill="#ebb241"/>
    <path id="Trazado_820054" data-name="Trazado 820054" d="M1113.412,540.283l.425-.123a25.447,25.447,0,0,1,1.74-12.685,85.072,85.072,0,0,1,4.441-8.367c5.7-10.006,13.5-23.708,8.073-27.161-5.062-3.22-2.714-7.643.84-14.339,1.3-2.456,2.782-5.239,4.044-8.307,2.943-7.156,3.025-13.467.211-16.079-1.442-1.339-4.343-2.373-10,.3-12.023,5.684-15.023,30.714-15.145,31.777h.427c.03-.258,3.092-25.829,14.865-31.4,4.3-2.031,7.6-2.153,9.54-.355,2.7,2.5,2.581,8.637-.3,15.632-1.253,3.045-2.725,5.817-4.022,8.263-3.532,6.654-6.084,11.461-.725,14.87,5.122,3.258-2.567,16.76-8.183,26.618a85.288,85.288,0,0,0-4.47,8.427,25.955,25.955,0,0,0-1.767,12.925" transform="translate(-788.223 -321.434)" fill="#5c7040"/>
    <path id="Trazado_820055" data-name="Trazado 820055" d="M1129.9,534.073l.427,0c.026-.257,2.741-25.792,10.763-44.325l-.392-.13c-8.05,18.6-10.773,44.2-10.8,44.459" transform="translate(-803.773 -348.295)" fill="#5c7040"/>
    <path id="Trazado_820056" data-name="Trazado 820056" d="M1141.91,517.912l7.115-5.324-.232-.33-6.579,4.92-2.084-10.794-.422.127Z" transform="translate(-810.75 -360.224)" fill="#5c7040"/>
    <path id="Trazado_820057" data-name="Trazado 820057" d="M1136.454,624.182c1.381-2.244,9.512-14.1,9.594-14.216l-.346-.213c-.082.12-8.22,11.983-9.606,14.239Z" transform="translate(-808.18 -433.757)" fill="#5c7040"/>
    <path id="Trazado_820058" data-name="Trazado 820058" d="M1143.907,632.256a92.552,92.552,0,0,1,10.539-10.683c5.385-4.9,10.473-9.526,12.637-14.99.9-2.274,1.034-3.646.417-4.322-.785-.86-2.541-.335-4.4.223-1.754.527-3.57,1.076-4.144.208-.6-.905,1.546-3.508,3.82-6.262,3.683-4.465,8.267-10.021,5.826-13.377-4.006-5.512-14.255,2.171-14.359,2.249l.236.327c.1-.073,10-7.478,13.765-2.3,2.258,3.1-2.2,8.512-5.788,12.857-2.589,3.138-4.634,5.616-3.866,6.773.729,1.09,2.69.507,4.591-.065,1.656-.5,3.367-1,3.989-.324.49.539.328,1.849-.482,3.9-2.122,5.359-7.169,9.949-12.51,14.808a93.069,93.069,0,0,0-10.6,10.741Z" transform="translate(-813.504 -413.349)" fill="#5c7040"/>
    <path id="Trazado_820059" data-name="Trazado 820059" d="M1106.065,451.143a.082.082,0,0,0,.02,0,.243.243,0,0,0,.218-.232c.019-.82.405-20.2-3.595-27.276a.2.2,0,0,0-.29-.057.229.229,0,0,0-.091.3c3.951,6.988,3.551,26.876,3.548,27.076a.185.185,0,0,0,.19.193" transform="translate(-784.14 -301.292)" fill="#5c7040"/>
    <path id="Trazado_820060" data-name="Trazado 820060" d="M1093.119,412.855a2.461,2.461,0,0,1,2.379-2.134,1.867,1.867,0,0,1,1.89,2.134,2.461,2.461,0,0,1-2.379,2.134,1.867,1.867,0,0,1-1.89-2.134m.427,0a1.493,1.493,0,0,0,1.511,1.707,1.968,1.968,0,0,0,1.9-1.707,1.493,1.493,0,0,0-1.512-1.707,1.968,1.968,0,0,0-1.9,1.707" transform="translate(-777.598 -292.173)" fill="#5c7040"/>
    <path id="Trazado_820061" data-name="Trazado 820061" d="M1090.364,436.886a2.46,2.46,0,0,1,2.379-2.134,1.867,1.867,0,0,1,1.89,2.134,2.461,2.461,0,0,1-2.379,2.134,1.867,1.867,0,0,1-1.89-2.134m.427,0a1.493,1.493,0,0,0,1.511,1.707,1.967,1.967,0,0,0,1.9-1.707,1.493,1.493,0,0,0-1.511-1.707,1.967,1.967,0,0,0-1.9,1.707" transform="translate(-775.638 -309.268)" fill="#5c7040"/>
    <path id="Trazado_820062" data-name="Trazado 820062" d="M1114.138,445.575a2.461,2.461,0,0,1,2.379-2.134,1.867,1.867,0,0,1,1.89,2.134,2.46,2.46,0,0,1-2.379,2.134,1.867,1.867,0,0,1-1.89-2.134m.427,0a1.493,1.493,0,0,0,1.512,1.707,1.968,1.968,0,0,0,1.9-1.707,1.493,1.493,0,0,0-1.511-1.707,1.968,1.968,0,0,0-1.9,1.707" transform="translate(-792.55 -315.449)" fill="#5c7040"/>
    <path id="Trazado_820063" data-name="Trazado 820063" d="M1094.669,462.212a2.461,2.461,0,0,1,2.379-2.134,1.867,1.867,0,0,1,1.89,2.134,2.46,2.46,0,0,1-2.379,2.134,1.867,1.867,0,0,1-1.89-2.134m.427,0a1.493,1.493,0,0,0,1.512,1.707,1.968,1.968,0,0,0,1.9-1.707A1.493,1.493,0,0,0,1097,460.5a1.968,1.968,0,0,0-1.9,1.707" transform="translate(-778.7 -327.284)" fill="#5c7040"/>
    <path id="Trazado_820064" data-name="Trazado 820064" d="M994.455,558.808c1.508-7.337-3.462-16.342.085-24.013s10.968.334,10.885-7.671-15.164-39.355,3.353-46.692,21.684,8.671,22.156,22.012-8.252,48.693-20.843,56.7Z" transform="translate(-706.552 -340.45)" fill="#779158"/>
    <path id="Trazado_820065" data-name="Trazado 820065" d="M1013.17,599.49a.251.251,0,0,0,.119-.031c8.222-4.364,16.57-26.966,16.862-32.571.118-2.269-.779-6.281-1.817-10.926-1.425-6.378-3.041-13.606-2.49-18.409a.207.207,0,0,0-.209-.236.272.272,0,0,0-.263.236c-.56,4.88,1.065,12.148,2.5,18.56,1.031,4.613,1.921,8.6,1.806,10.8-.28,5.374-8.674,27.938-16.572,32.13a.257.257,0,0,0-.126.322.206.206,0,0,0,.193.12" transform="translate(-720.584 -382.229)" fill="#3c251d"/>
    <path id="Trazado_820066" data-name="Trazado 820066" d="M1060.133,545.1a.258.258,0,0,0,.151-.05c3.323-2.373,5.266-13.379,5.347-13.846a.207.207,0,0,0-.194-.25.257.257,0,0,0-.275.222c-.019.112-1.985,11.259-5.126,13.5a.248.248,0,0,0-.08.332.208.208,0,0,0,.177.091" transform="translate(-753.991 -377.701)" fill="#3c251d"/>
    <path id="Trazado_820067" data-name="Trazado 820067" d="M1046.116,599.194a.263.263,0,0,0,.178-.072.238.238,0,0,0,.032-.334c-4.232-4.6-10.042-16.18-10.1-16.3a.221.221,0,0,0-.316-.078.255.255,0,0,0-.115.325c.058.117,5.894,11.752,10.164,16.389a.21.21,0,0,0,.157.066" transform="translate(-736.813 -414.284)" fill="#3c251d"/>
    <path id="Trazado_820068" data-name="Trazado 820068" d="M1029.491,691.6a.266.266,0,0,0,.191-.085.234.234,0,0,0,.008-.333c-3.511-3.235-3.3-12.586-3.3-12.68a.208.208,0,0,0-.232-.215.273.273,0,0,0-.245.257c-.01.391-.217,9.641,3.43,13a.211.211,0,0,0,.145.055" transform="translate(-729.798 -482.508)" fill="#3c251d"/>
    <path id="Trazado_820069" data-name="Trazado 820069" d="M1073.679,652.529c.332,5.836-5.638,17.176-5.638,17.176l2.786,3.335,6.063-6.337,2.069-13.674Z" transform="translate(-759.768 -464.187)" fill="#3c251d"/>
    <path id="Trazado_820070" data-name="Trazado 820070" d="M1055.429,610.514h9.839s19.137-20.011,17.443-38.687-13.722-22.846-18.107-19.511-5.551,13.507-1.824,23.179,5.315,16.175-.2,23.513-7.156,11.506-7.156,11.506" transform="translate(-750.796 -392.155)" fill="#5c7040"/>
    <path id="Trazado_820071" data-name="Trazado 820071" d="M1074.97,660.173a.263.263,0,0,0,.179-.073c14.487-13.443,11.778-39.145,11.749-39.4a.21.21,0,0,0-.263-.178.268.268,0,0,0-.21.282c.029.256,2.709,25.712-11.579,38.971a.239.239,0,0,0-.032.335.211.211,0,0,0,.156.066" transform="translate(-764.547 -441.412)" fill="#3c251d"/>
    <path id="Trazado_820072" data-name="Trazado 820072" d="M1101.628,604.161a.264.264,0,0,0,.175-.069.241.241,0,0,0,.038-.335c-4.337-4.9-5.893-17.6-5.908-17.729a.208.208,0,0,0-.264-.177.269.269,0,0,0-.209.284c.063.527,1.588,12.963,6.008,17.957a.21.21,0,0,0,.159.069" transform="translate(-779.272 -416.75)" fill="#3c251d"/>
    <path id="Trazado_820073" data-name="Trazado 820073" d="M1115.991,647.555a.265.265,0,0,0,.175-.069c2.609-2.341,5.309-7.367,5.423-7.58a.218.218,0,0,0-.091-.31.261.261,0,0,0-.324.126c-.027.052-2.768,5.154-5.3,7.429a.24.24,0,0,0-.038.335.209.209,0,0,0,.159.069" transform="translate(-793.728 -454.974)" fill="#3c251d"/>
    <path id="Trazado_820074" data-name="Trazado 820074" d="M1096.375,704.122a.266.266,0,0,0,.254-.333c-.96-2.909.673-10.143.69-10.216a.208.208,0,0,0-.178-.262.28.28,0,0,0-.286.209c-.069.3-1.678,7.436-.68,10.462a.205.205,0,0,0,.2.14" transform="translate(-779.55 -493.198)" fill="#3c251d"/>
    <path id="Trazado_820075" data-name="Trazado 820075" d="M1059.507,733.674l.756-9.5-9.39,9.171Z" transform="translate(-747.556 -515.149)" fill="#3c251d"/>
    <path id="Trazado_820076" data-name="Trazado 820076" d="M1004.01,682.465h14.841s11.667-8.671,9.491-11.506-4.5,0-5.03-2.668,5.633-15.675-.017-15.842-7.171,0-8.942,8.171-4.58,16.676-10.343,21.845" transform="translate(-714.218 -464.107)" fill="#8fa274"/>
    <path id="Trazado_820077" data-name="Trazado 820077" d="M1033.374,715.243a.258.258,0,0,0,.146-.047c6.371-4.36,7.187-16.528,7.219-17.044a.2.2,0,0,0-.223-.223.272.272,0,0,0-.252.248c-.008.124-.833,12.43-6.982,16.64a.25.25,0,0,0-.087.331.208.208,0,0,0,.179.1" transform="translate(-734.956 -496.481)" fill="#3c251d"/>
    <path id="Trazado_820078" data-name="Trazado 820078" d="M1046.707,720.671a.257.257,0,0,0,.1-.02.263.263,0,0,0,.156-.312,18.055,18.055,0,0,1-.56-6.575.206.206,0,0,0-.209-.236.272.272,0,0,0-.264.236,18.186,18.186,0,0,0,.578,6.767.205.205,0,0,0,.2.14" transform="translate(-743.972 -507.579)" fill="#3c251d"/>
    <path id="Trazado_820079" data-name="Trazado 820079" d="M1040.968,738.647a.231.231,0,0,0,.041,0c3.944-.672,8.523-4.892,8.716-5.071a.225.225,0,1,0-.3-.328c-.046.042-4.652,4.288-8.44,4.933a.272.272,0,0,0-.224.274.206.206,0,0,0,.21.2" transform="translate(-740.359 -521.553)" fill="#3c251d"/>
    <path id="Trazado_820080" data-name="Trazado 820080" d="M483.023,237.48s4.867-5.454,9.23-4.111,5.37,10.572.839,12.586-10.236-1.342-10.236-1.342Z" transform="translate(-343.487 -165.859)" fill="#dc4747"/>
    <path id="Trazado_820081" data-name="Trazado 820081" d="M501.435,251.227a.189.189,0,0,1-.083-.358,3.6,3.6,0,0,0,1.728-4.432,3.658,3.658,0,0,0-1.68-2.428c-.949-.466-2.312-.306-4.555.535a.189.189,0,0,1-.133-.354c2.383-.893,3.789-1.044,4.855-.52a4.509,4.509,0,0,1-.049,7.537.2.2,0,0,1-.083.019" transform="translate(-353.257 -173.125)" fill="#3c251d"/>
    <path id="Trazado_820082" data-name="Trazado 820082" d="M487.684,157.321c2.349,3.356,1.762,10.74.252,17.285s-2.1-12.586-2.1-12.586l-4.531-5.454Z" transform="translate(-342.385 -111.376)" fill="#1a2e3c"/>
    <path id="Trazado_820083" data-name="Trazado 820083" d="M374.758,323.468c-.126-1.888,5.034,1.51,14.851,1.259s16.739-.881,16.991-.252-.755,5.16-.755,5.16l-25.927,2.14Z" transform="translate(-266.589 -229.696)" fill="#3c251d"/>
    <path id="Trazado_820084" data-name="Trazado 820084" d="M406.668,280.445l.839,11.915s-9.9,5.705-27.857-.168l-.671-24,15.1,10.74Z" transform="translate(-269.593 -190.785)" fill="#e38064"/>
    <path id="Trazado_820085" data-name="Trazado 820085" d="M423.923,302.05l-.3-4.234-12.586-1.51-5.045-3.587-3.178-.1c5.987,9.346,18.071,9.542,21.107,9.436" transform="translate(-286.549 -208.156)" fill="#3c251d"/>
    <path id="Trazado_820086" data-name="Trazado 820086" d="M400.3,140c1.259,3.524-.252,8.81.755,16.11s4.028,22.655-10.069,25.675-26.179-8.81-26.179-8.81l-5.76-23.041c-2.676-10.7,4.159-19.272,14.948-21.576q.373-.08.757-.148C395.894,124.439,400.3,140,400.3,140" transform="translate(-254.998 -90.787)" fill="#e38064"/>
    <path id="Trazado_820087" data-name="Trazado 820087" d="M245.917,343.448c-15.858,3.608-39.856,13.006-48.918,20.221,0,0,13.166,86.43,13.166,98.009L325.9,463.062l22.386.792c2.108-3.4-4.449-79.446-20.02-100.1l-.024-.158s-22.391-18.463-48.845-19.518l-5.034,1.636-4.783-2.517-5.789,2.181Z" transform="translate(-140.138 -244.138)" fill="#add9e0"/>
    <path id="Trazado_820088" data-name="Trazado 820088" d="M349.324,186.718l-3.776-17.369,11.831-3.482s-.5,6.125-.5,13.509,1.259,10.4,1.259,10.4Z" transform="translate(-245.811 -117.992)" fill="#1a2e3c"/>
    <path id="Trazado_820089" data-name="Trazado 820089" d="M350.669,237.48s-4.867-5.454-9.23-4.111-5.37,10.572-.839,12.586,10.236-1.342,10.236-1.342Z" transform="translate(-240.192 -165.859)" fill="#e38064"/>
    <path id="Trazado_820090" data-name="Trazado 820090" d="M461.054,230.984a.252.252,0,0,1-.14-.461,5.291,5.291,0,0,0,2.028-4.2,4.059,4.059,0,0,0-1.274-2.639,18.922,18.922,0,0,1-1.84-2.649.252.252,0,0,1,.438-.248,18.477,18.477,0,0,0,1.8,2.583,4.486,4.486,0,0,1,1.384,2.953,5.741,5.741,0,0,1-2.252,4.615.254.254,0,0,1-.14.042" transform="translate(-327.082 -156.972)" fill="#3c251d"/>
    <path id="Trazado_820091" data-name="Trazado 820091" d="M427.326,225.889c0-1.2-.395-2.171-.881-2.171s-.881.972-.881,2.171.395,2.171.881,2.171.881-.972.881-2.171" transform="translate(-302.732 -159.145)" fill="#3c251d"/>
    <path id="Trazado_820092" data-name="Trazado 820092" d="M484.667,223.708c0-1.2-.395-2.171-.881-2.171s-.881.972-.881,2.171.395,2.171.881,2.171.881-.972.881-2.171" transform="translate(-343.522 -157.594)" fill="#3c251d"/>
    <path id="Trazado_820093" data-name="Trazado 820093" d="M347.321,251.227a.2.2,0,0,1-.083-.019,4.509,4.509,0,0,1-.048-7.537c1.066-.524,2.473-.373,4.855.52a.189.189,0,1,1-.133.354c-2.244-.842-3.607-1-4.555-.535a3.658,3.658,0,0,0-1.68,2.428,3.6,3.6,0,0,0,1.728,4.432.189.189,0,0,1-.083.358" transform="translate(-245.486 -173.125)" fill="#3c251d"/>
    <path id="Trazado_820094" data-name="Trazado 820094" d="M415.734,211.75c-.047.423-.481.68-.87.853a16.9,16.9,0,0,1-6.325,1.452,2.677,2.677,0,0,1-1.139-.143,1.491,1.491,0,0,1-.846-1.631,1.944,1.944,0,0,1,1-1.227,5.58,5.58,0,0,1,1.543-.506c1.977-.436,4.166-.79,5.928.207.376.213.758.565.71.995" transform="translate(-289.188 -149.468)" fill="#1a2e3c"/>
    <path id="Trazado_820095" data-name="Trazado 820095" d="M480.565,211.661c-1.253.15-2.926-.359-3.841-.294-.808.058-2.426.547-2.62-.647a2.132,2.132,0,0,1,1.4-1.72,6.256,6.256,0,0,1,1.778-.356c1.366-.135,3.528-.4,4.54.791a1.188,1.188,0,0,1,.276,1.06,1.6,1.6,0,0,1-1.529,1.165" transform="translate(-337.261 -148.335)" fill="#1a2e3c"/>
    <path id="Trazado_820096" data-name="Trazado 820096" d="M424.146,241.434q-.178,0-.368-.013a.189.189,0,0,1-.176-.2.182.182,0,0,1,.2-.175,3.44,3.44,0,0,0,2.56-.7.189.189,0,0,1,.266.268,3.593,3.593,0,0,1-2.485.823" transform="translate(-301.336 -170.934)" fill="#3c251d"/>
    <path id="Trazado_820097" data-name="Trazado 820097" d="M482.9,237.306a3.792,3.792,0,0,1-2.322-.609.189.189,0,0,1,.238-.293,3.527,3.527,0,0,0,2.084.524.189.189,0,1,1,0,.378" transform="translate(-341.817 -168.14)" fill="#3c251d"/>
    <path id="Trazado_820098" data-name="Trazado 820098" d="M389.534,333.111c-7.382.811-18.627-2.1-21.019-4.741l-2.182,4.573s8.978,18.082,10.866,17.83,8.81-16.613,12.208-17.369,11.328,13.215,12.208,13.467-.5-17.117-1.258-17.494.629,2.475-10.824,3.734" transform="translate(-260.597 -233.591)" fill="#3c251d"/>
    <path id="Trazado_820099" data-name="Trazado 820099" d="M390.141,330.168c-7.382.811-18.879-2.643-21.27-5.286l-2.391,5.538s9.188,17.117,11.076,16.865,9.062-15.606,12.46-16.362,11.076,12.209,11.957,12.46-.5-17.117-1.258-17.495.881,3.021-10.572,4.279" transform="translate(-260.701 -231.11)" fill="#add9e0"/>
    <path id="Trazado_820100" data-name="Trazado 820100" d="M441.721,273.86c-2.623,0-6.34-.888-7.185-2.382a.252.252,0,0,1,.439-.248c1.006,1.781,7.156,2.616,8.73,1.829a.252.252,0,1,1,.225.45,5.379,5.379,0,0,1-2.209.352" transform="translate(-309.091 -192.853)" fill="#3c251d"/>
    <path id="Trazado_820101" data-name="Trazado 820101" d="M337.2,120.775c-3.021-2.895-8.181-7.048-2.266-11.453s7.426.126,11.2-6.167,12.334-12.083,18.5-7.552,18.25-1.888,21.774,3.021,1.385,10.95-1.888,13.593-12.712,3.9-22.529,2.895-17.746,8.181-17.746,8.181Z" transform="translate(-236.333 -66.859)" fill="#1a2e3c"/>
    <path id="Trazado_820102" data-name="Trazado 820102" d="M425.826,145.97a52.044,52.044,0,0,1-8.664-.965,34.017,34.017,0,0,0-9.3-.749l-.059-.5a34.276,34.276,0,0,1,9.443.752c4.036.681,8.21,1.384,12.442.634,7.677-1.362,11.745-7.783,11.623-11.7l.5-.016c.128,4.1-4.086,10.8-12.039,12.212a22.515,22.515,0,0,1-3.949.331" transform="translate(-290.097 -94.915)" fill="#1a2e3c"/>
    <path id="Trazado_820103" data-name="Trazado 820103" d="M375.39,136.174a.189.189,0,0,1-.172-.266c3.357-7.412,8.406-10.135,16.871-9.109,6.586.8,20.795-1.056,23.72-5.8a3.526,3.526,0,0,0-.3-4.042.189.189,0,0,1,.315-.208,3.875,3.875,0,0,1,.307,4.449c-3,4.863-17.419,6.782-24.086,5.974-8.276-1-13.205,1.655-16.482,8.889a.189.189,0,0,1-.172.111" transform="translate(-266.905 -82.992)" fill="#fff"/>
    <path id="Trazado_820104" data-name="Trazado 820104" d="M408.164,123.559a.189.189,0,0,1-.076-.362c1.82-.8,5.854-1.371,10.126-1.977a71.519,71.519,0,0,0,9.862-1.8c2.514-.823,4.29-2.633,4.42-4.505a3.217,3.217,0,0,0-2.1-3.118.189.189,0,1,1,.166-.339,3.571,3.571,0,0,1,2.306,3.483c-.141,2.023-2.022,3.967-4.68,4.837a71.617,71.617,0,0,1-9.925,1.82c-4.058.576-8.254,1.171-10.027,1.949a.183.183,0,0,1-.076.016" transform="translate(-290.22 -79.271)" fill="#fff"/>
    <path id="Trazado_820105" data-name="Trazado 820105" d="M391.99,291.719a.189.189,0,0,1-.1-.027,35.818,35.818,0,0,1-6.251-4.65.189.189,0,1,1,.278-.255,36.238,36.238,0,0,0,6.166,4.58.189.189,0,0,1-.1.351" transform="translate(-274.297 -203.968)" fill="#3c251d"/>
    <path id="Trazado_820106" data-name="Trazado 820106" d="M466,469.351a4.167,4.167,0,0,1-1.384,0c-.1-.023-.363-40.131-.352-40.234.935-8.555-3.126-49.916-4.86-67.578-.452-4.6-.779-7.928-.847-8.912a.189.189,0,0,1,.175-.2.185.185,0,0,1,.2.175c.067.978.394,4.3.846,8.9,1.882,19.171,5.8,59.062,4.86,67.656-.011.1.253,39.64,1.361,40.193" transform="translate(-326.203 -250.703)" fill="#3c251d"/>
    <path id="Trazado_820107" data-name="Trazado 820107" d="M483.567,370.649c-.124-.778-.67-1.337-1.219-1.249s-.893.789-.769,1.568.67,1.337,1.219,1.25.893-.79.769-1.568" transform="translate(-342.56 -262.772)" fill="#fff"/>
    <path id="Trazado_820108" data-name="Trazado 820108" d="M401.89,382.123a1.426,1.426,0,1,0-1.426,1.426,1.426,1.426,0,0,0,1.426-1.426" transform="translate(-283.861 -270.815)" fill="#fff"/>
    <path id="Trazado_820109" data-name="Trazado 820109" d="M401.925,384.931a.126.126,0,0,1-.089-.215l1.038-1.038a.126.126,0,0,1,.178.178l-1.038,1.038a.125.125,0,0,1-.089.037" transform="translate(-285.826 -272.909)" fill="#3c251d"/>
    <path id="Trazado_820110" data-name="Trazado 820110" d="M402.963,384.931a.126.126,0,0,0,.089-.215l-1.038-1.038a.126.126,0,0,0-.178.178l1.039,1.038a.125.125,0,0,0,.089.037" transform="translate(-285.826 -272.909)" fill="#3c251d"/>
    <path id="Trazado_820111" data-name="Trazado 820111" d="M446.131,359.576A1.426,1.426,0,1,0,444.7,361a1.427,1.427,0,0,0,1.426-1.426" transform="translate(-315.333 -254.776)" fill="#fff"/>
    <path id="Trazado_820112" data-name="Trazado 820112" d="M446.166,362.384a.126.126,0,0,1-.089-.215l1.038-1.039a.126.126,0,0,1,.178.178l-1.039,1.038a.125.125,0,0,1-.089.037" transform="translate(-317.297 -256.87)" fill="#3c251d"/>
    <path id="Trazado_820113" data-name="Trazado 820113" d="M447.2,362.384a.126.126,0,0,0,.089-.215l-1.038-1.039a.126.126,0,0,0-.178.178l1.039,1.038a.125.125,0,0,0,.089.037" transform="translate(-317.297 -256.87)" fill="#3c251d"/>
    <path id="Trazado_820114" data-name="Trazado 820114" d="M451.364,396.64a1.426,1.426,0,1,0-1.426,1.426,1.427,1.427,0,0,0,1.426-1.426" transform="translate(-319.055 -281.142)" fill="#fff"/>
    <path id="Trazado_820115" data-name="Trazado 820115" d="M451.4,399.448a.126.126,0,0,1-.089-.215l1.038-1.039a.126.126,0,0,1,.178.178l-1.039,1.038a.125.125,0,0,1-.089.037" transform="translate(-321.019 -283.236)" fill="#3c251d"/>
    <path id="Trazado_820116" data-name="Trazado 820116" d="M452.437,399.448a.126.126,0,0,0,.089-.215l-1.038-1.039a.126.126,0,1,0-.178.178l1.038,1.038a.125.125,0,0,0,.089.037" transform="translate(-321.02 -283.236)" fill="#3c251d"/>
    <path id="Trazado_820117" data-name="Trazado 820117" d="M454.271,443.734a1.426,1.426,0,1,0-1.426,1.426,1.426,1.426,0,0,0,1.426-1.426" transform="translate(-321.123 -314.643)" fill="#fff"/>
    <path id="Trazado_820118" data-name="Trazado 820118" d="M454.305,446.542a.126.126,0,0,1-.089-.215l1.038-1.038a.126.126,0,1,1,.178.178l-1.039,1.038a.124.124,0,0,1-.089.037" transform="translate(-323.088 -316.737)" fill="#3c251d"/>
    <path id="Trazado_820119" data-name="Trazado 820119" d="M455.344,446.542a.126.126,0,0,0,.089-.215l-1.038-1.038a.126.126,0,0,0-.178.178l1.038,1.038a.126.126,0,0,0,.089.037" transform="translate(-323.088 -316.737)" fill="#3c251d"/>
    <path id="Trazado_820120" data-name="Trazado 820120" d="M460.085,498.386a1.426,1.426,0,1,0-1.426,1.426,1.427,1.427,0,0,0,1.426-1.426" transform="translate(-325.259 -353.52)" fill="#fff"/>
    <path id="Trazado_820121" data-name="Trazado 820121" d="M460.12,501.193a.126.126,0,0,1-.089-.215l1.038-1.039a.126.126,0,1,1,.178.178l-1.039,1.038a.124.124,0,0,1-.089.037" transform="translate(-327.224 -355.614)" fill="#3c251d"/>
    <path id="Trazado_820122" data-name="Trazado 820122" d="M461.158,501.193a.126.126,0,0,0,.089-.215l-1.038-1.039a.126.126,0,1,0-.178.178l1.038,1.038a.125.125,0,0,0,.089.037" transform="translate(-327.224 -355.614)" fill="#3c251d"/>
    <path id="Trazado_820123" data-name="Trazado 820123" d="M463.206,682.258a1.426,1.426,0,1,0-1.426,1.426,1.427,1.427,0,0,0,1.426-1.426" transform="translate(-327.479 -484.32)" fill="#fff"/>
    <path id="Trazado_820124" data-name="Trazado 820124" d="M463.24,685.064a.126.126,0,0,1-.089-.215l1.038-1.038a.126.126,0,0,1,.178.178l-1.038,1.038a.125.125,0,0,1-.089.037" transform="translate(-329.443 -486.414)" fill="#3c251d"/>
    <path id="Trazado_820125" data-name="Trazado 820125" d="M464.279,685.064a.126.126,0,0,0,.089-.215l-1.038-1.038a.126.126,0,0,0-.178.178l1.038,1.038a.125.125,0,0,0,.089.037" transform="translate(-329.444 -486.414)" fill="#3c251d"/>
    <path id="Trazado_820126" data-name="Trazado 820126" d="M465.124,719.348a1.426,1.426,0,1,0-1.426,1.426,1.427,1.427,0,0,0,1.426-1.426" transform="translate(-328.844 -510.705)" fill="#fff"/>
    <path id="Trazado_820127" data-name="Trazado 820127" d="M465.159,722.156a.126.126,0,0,1-.089-.215l1.038-1.039a.126.126,0,1,1,.178.178l-1.038,1.038a.125.125,0,0,1-.089.037" transform="translate(-330.808 -512.799)" fill="#3c251d"/>
    <path id="Trazado_820128" data-name="Trazado 820128" d="M466.2,722.156a.126.126,0,0,0,.089-.215l-1.038-1.039a.126.126,0,1,0-.178.178l1.039,1.038a.125.125,0,0,0,.089.037" transform="translate(-330.808 -512.799)" fill="#3c251d"/>
    <path id="Trazado_820129" data-name="Trazado 820129" d="M463.4,298.728a.189.189,0,0,1-.131-.325c.08-.078,1.96-1.919.736-3.525a.189.189,0,0,1,.3-.229c1.428,1.875-.752,4.006-.774,4.027a.189.189,0,0,1-.131.053" transform="translate(-329.512 -209.55)" fill="#3c251d"/>
    <path id="Trazado_820130" data-name="Trazado 820130" d="M145.184,414.128c-11.259,7.291-24.773,72.064-20.06,98.286l43.47-.277L194.618,493.6l-9.133-27.99-21.8-2.062Z" transform="translate(-88.323 -294.596)" fill="#add9e0"/>
    <path id="Trazado_820131" data-name="Trazado 820131" d="M552,533.906a.274.274,0,0,1-.118-.026l-15.217-7.143a.279.279,0,0,1-.162-.254V499.775a.28.28,0,0,1,.28-.28h22.05a.28.28,0,0,1,.28.282l-.182,19.812a.282.282,0,0,1-.28.278h0a.279.279,0,0,1-.278-.283l.18-19.529H537.067v26.25l14.928,7.008,7.949-4.283a.281.281,0,1,1,.267.495l-8.074,4.349a.288.288,0,0,1-.134.033" transform="translate(-381.652 -355.324)" fill="#3c251d"/>
    <path id="Trazado_820132" data-name="Trazado 820132" d="M559.064,517.271H537.326a.28.28,0,1,1,0-.561h21.738a.28.28,0,1,1,0,.561" transform="translate(-382.035 -367.57)" fill="#3c251d"/>
    <path id="Trazado_820133" data-name="Trazado 820133" d="M155.906,645.974a.28.28,0,0,1-.1-.543c.543-.2,13.365-4.986,19.146-4.986a.28.28,0,1,1,0,.56c-5.678,0-18.817,4.9-18.949,4.951a.309.309,0,0,1-.1.018" transform="translate(-110.706 -455.591)" fill="#3c251d"/>
    <path id="Trazado_820134" data-name="Trazado 820134" d="M267.808,557.649a.314.314,0,0,1-.044,0,.278.278,0,0,1-.232-.32l4.141-25.674a.279.279,0,0,1,.552.087l-4.141,25.674a.28.28,0,0,1-.276.236" transform="translate(-190.31 -378.03)" fill="#3c251d"/>
    <path id="Trazado_820135" data-name="Trazado 820135" d="M277.13,551a.28.28,0,0,1-.1-.543c1.246-.466,2.689-4.953,3.14-6.642a.281.281,0,0,1,.543.145c-.175.65-1.745,6.37-3.486,7.023a.308.308,0,0,1-.1.018" transform="translate(-196.941 -386.703)" fill="#3c251d"/>
    <path id="Trazado_820136" data-name="Trazado 820136" d="M225.524,430.749a.28.28,0,0,1-.245-.142c-3.637-6.471-13.439-11.225-13.538-11.273a.279.279,0,0,1,.241-.5c.41.195,10.06,4.877,13.788,11.5a.285.285,0,0,1-.107.383.289.289,0,0,1-.138.035" transform="translate(-150.512 -297.921)" fill="#3c251d"/>
    <path id="Trazado_820137" data-name="Trazado 820137" d="M320.068,631.092a.28.28,0,0,1-.263-.184l-9.94-27.389a.28.28,0,0,1,.167-.359.274.274,0,0,1,.359.166l9.94,27.389a.28.28,0,0,1-.166.359.246.246,0,0,1-.1.018" transform="translate(-220.416 -429.053)" fill="#3c251d"/>
    <path id="Trazado_820138" data-name="Trazado 820138" d="M326.566,605.377a1.97,1.97,0,1,0-1.97,1.97,1.97,1.97,0,0,0,1.97-1.97" transform="translate(-229.505 -429.243)" fill="#fff"/>
    <path id="Trazado_820139" data-name="Trazado 820139" d="M326.615,609.254a.174.174,0,0,1-.123-.3l1.434-1.434a.174.174,0,0,1,.246.246l-1.434,1.434a.174.174,0,0,1-.123.051" transform="translate(-232.219 -432.135)" fill="#3c251d"/>
    <path id="Trazado_820140" data-name="Trazado 820140" d="M328.049,609.254a.174.174,0,0,0,.123-.3l-1.434-1.434a.174.174,0,1,0-.246.246l1.434,1.434a.174.174,0,0,0,.123.051" transform="translate(-232.219 -432.135)" fill="#3c251d"/>
    <path id="Trazado_820141" data-name="Trazado 820141" d="M644.971,577.228a.281.281,0,0,1-.28-.274L643.1,512.126l1.272-9.259a.281.281,0,0,1,.556.074l-1.27,9.215,1.59,64.785a.279.279,0,0,1-.274.287Z" transform="translate(-457.481 -357.549)" fill="#3c251d"/>
    <path id="Trazado_820142" data-name="Trazado 820142" d="M342.068,533.215c5.325-5.13,8.207-8.165,9.319-10.125s11.491-10.526,15.305-14.863c3.531-4.015,8.653-3.4,7.543,3.181-1.037,6.144-12.39,12.728-10.531,12.684,5.738-.134,7.834-.121,7.834-.121l-.313,24.971-3.341,4.723-12.205,0Z" transform="translate(-243.335 -359.749)" fill="#e38064"/>
    <path id="Trazado_820143" data-name="Trazado 820143" d="M472.791,465.791h-49.1a4.41,4.41,0,0,0-4.114,3.41l-13.238,64.1a2.694,2.694,0,0,0,2.706,3.41h49.1a4.41,4.41,0,0,0,4.114-3.41L475.5,469.2a2.694,2.694,0,0,0-2.706-3.41" transform="translate(-289.003 -331.348)" fill="#1a2e3c"/>
    <path id="Trazado_820144" data-name="Trazado 820144" d="M530.538,436.132h-6.607A5.626,5.626,0,0,0,524.9,434a3.724,3.724,0,0,0-3.737-4.71,6.1,6.1,0,0,0-5.682,4.71,4.257,4.257,0,0,0,.093,2.131h-6.607a3.969,3.969,0,0,0-3.7,3.069l-.563,2.728h27.7l.563-2.728a2.424,2.424,0,0,0-2.435-3.069m-9.934-4.113A1.568,1.568,0,0,1,522.177,434a2.568,2.568,0,0,1-2.391,1.982A1.568,1.568,0,0,1,518.213,434a2.568,2.568,0,0,1,2.391-1.982" transform="translate(-359.03 -305.383)" fill="#70aab8"/>
    <path id="Trazado_820145" data-name="Trazado 820145" d="M421.944,662.8a3.869,3.869,0,0,1-1.8.367l-23.577-.806a3.914,3.914,0,1,1,.269-7.823l23.577.806a3.914,3.914,0,0,1,1.53,7.455" transform="translate(-279.414 -465.618)" fill="#e38064"/>
    <path id="Trazado_820146" data-name="Trazado 820146" d="M453.865,571.346a5.238,5.238,0,0,1-.832.144l-23.656,2.1a5.223,5.223,0,0,1-5.664-4.737c-.255-2.876-7.343-5.8,4.737-5.664l23.657-2.1a5.221,5.221,0,0,1,1.759,10.258" transform="translate(-299.781 -399.124)" fill="#e38064"/>
    <path id="Trazado_820147" data-name="Trazado 820147" d="M339.737,575.216s7.683-9.264,10.083-10c10.275-3.162,15.189,7.731,15.189,7.731s11.307,22.37,6.107,24.07c-4.893,1.6-24.25,1.977-24.25,1.977Z" transform="translate(-241.677 -401.665)" fill="#e38064"/>
    <path id="Trazado_820148" data-name="Trazado 820148" d="M427.739,587a.21.21,0,0,1-.036.134.214.214,0,0,1-.3.061l-2.638-1.745a.215.215,0,0,1,.236-.359l2.638,1.745a.215.215,0,0,1,.1.164" transform="translate(-302.097 -416.186)" fill="#3c251d"/>
    <path id="Trazado_820149" data-name="Trazado 820149" d="M425.159,586.761a.215.215,0,0,0,.357.145l2.357-2.109a.215.215,0,0,0-.286-.32l-2.357,2.109a.214.214,0,0,0-.071.176" transform="translate(-302.443 -415.738)" fill="#3c251d"/>
    <path id="Trazado_820150" data-name="Trazado 820150" d="M522.921,577.255a.206.206,0,0,1-.191-.046.211.211,0,0,1-.017-.3c1.534-1.733.037-3.95-.317-4.428l-4.945.535c-.826,1.384.151,4.655.162,4.689a.209.209,0,0,1-.138.261l-.01,0a.208.208,0,0,1-.252-.141c-.045-.146-1.082-3.633-.055-5.126a.224.224,0,0,1,.151-.091l5.16-.559a.205.205,0,0,1,.184.079c.022.026,2.3,2.881.374,5.055a.2.2,0,0,1-.1.064" transform="translate(-367.566 -406.941)" fill="#3c251d"/>
    <path id="Trazado_820151" data-name="Trazado 820151" d="M422.974,606.637c.137,0,.274,0,.413,0l17.675-.67a5.34,5.34,0,0,0,5.349-5.4,5.517,5.517,0,0,0-5.859-4.975l-17.675.671a5.34,5.34,0,0,0-5.349,5.4,5.453,5.453,0,0,0,5.446,4.976" transform="translate(-297.01 -423.682)" fill="#e38064"/>
    <path id="Trazado_820152" data-name="Trazado 820152" d="M422.153,634.565c.137,0,.274,0,.413,0l17.675-.67a5.34,5.34,0,0,0,5.349-5.4,5.517,5.517,0,0,0-5.859-4.975l-17.675.671a5.34,5.34,0,0,0-5.349,5.4,5.453,5.453,0,0,0,5.446,4.976" transform="translate(-296.427 -443.549)" fill="#e38064"/>
    <path id="Trazado_820153" data-name="Trazado 820153" d="M459.65,599.662h-.009a.169.169,0,0,1,0-.337h.013c.421,0,9.565-.484,14.381-.745h.009a.169.169,0,0,1,.009.337c-.569.031-13.86.745-14.407.745" transform="translate(-326.856 -425.809)" fill="#3c251d"/>
    <path id="Trazado_820154" data-name="Trazado 820154" d="M474.606,628.615a.168.168,0,0,1-.169-.16.17.17,0,0,1,.16-.177l10.189-.519h.009a.168.168,0,0,1,.169.16.17.17,0,0,1-.16.177l-10.189.519Z" transform="translate(-337.498 -446.566)" fill="#3c251d"/>
    <path id="Trazado_820155" data-name="Trazado 820155" d="M477.066,659.132h0l-7.362-.217a.169.169,0,0,1,0-.337h0l7.362.217a.169.169,0,0,1,0,.337" transform="translate(-334.012 -468.49)" fill="#3c251d"/>
    <path id="Trazado_820156" data-name="Trazado 820156" d="M428.132,614.959a.21.21,0,0,1-.036.134.213.213,0,0,1-.3.061l-2.638-1.745a.215.215,0,0,1,.236-.359l2.638,1.746a.215.215,0,0,1,.1.164" transform="translate(-302.377 -436.078)" fill="#3c251d"/>
    <path id="Trazado_820157" data-name="Trazado 820157" d="M425.552,614.725a.215.215,0,0,0,.357.144l2.357-2.109a.215.215,0,0,0-.286-.321l-2.357,2.109a.214.214,0,0,0-.071.176" transform="translate(-302.722 -435.63)" fill="#3c251d"/>
    <path id="Trazado_820158" data-name="Trazado 820158" d="M429.395,640.923a.211.211,0,0,1-.036.134.214.214,0,0,1-.3.061l-2.638-1.745a.215.215,0,0,1,.236-.359l2.638,1.745a.215.215,0,0,1,.1.164" transform="translate(-303.275 -454.548)" fill="#3c251d"/>
    <path id="Trazado_820159" data-name="Trazado 820159" d="M426.815,640.688a.215.215,0,0,0,.357.145l2.357-2.109a.215.215,0,0,0-.286-.321l-2.357,2.109a.214.214,0,0,0-.071.176" transform="translate(-303.621 -454.099)" fill="#3c251d"/>
    <path id="Trazado_820160" data-name="Trazado 820160" d="M172.9,638.339a.28.28,0,0,1-.138-.523l28.578-16.286-8.961-29.346c-3.488,1.393-38.152,15.34-57.847,27.235a.281.281,0,0,1-.289-.482c20.692-12.5,57.841-27.24,58.213-27.386a.271.271,0,0,1,.226.009.268.268,0,0,1,.145.171l9.114,29.852a.277.277,0,0,1-.129.324l-28.773,16.4a.263.263,0,0,1-.138.037" transform="translate(-95.401 -420.794)" fill="#3c251d"/>
    <path id="Trazado_820161" data-name="Trazado 820161" d="M178.785,567.671a.182.182,0,0,1-.05-.006.193.193,0,0,1-.136-.236c1.523-5.711,9.279-20,13.982-21.826a.192.192,0,1,1,.14.358c-4.61,1.794-12.242,15.915-13.75,21.568a.193.193,0,0,1-.186.143" transform="translate(-127.045 -388.114)" fill="#5c7040"/>
    <path id="Trazado_820162" data-name="Trazado 820162" d="M206.307,553.086a.746.746,0,1,1,.746-.746.746.746,0,0,1-.746.746m0-1.107a.361.361,0,1,0,.361.361.362.362,0,0,0-.361-.361" transform="translate(-146.229 -392.384)" fill="#5c7040"/>
    <path id="Trazado_820163" data-name="Trazado 820163" d="M229.947,540.984a.867.867,0,1,1,.866-.867.867.867,0,0,1-.866.867m0-1.348a.481.481,0,1,0,.481.482.483.483,0,0,0-.481-.482" transform="translate(-162.96 -383.604)" fill="#5c7040"/>
    <path id="Trazado_820164" data-name="Trazado 820164" d="M215.961,541.369a1.059,1.059,0,1,1,1.059-1.059,1.061,1.061,0,0,1-1.059,1.059m0-1.733a.674.674,0,1,0,.674.674.675.675,0,0,0-.674-.674" transform="translate(-152.874 -383.604)" fill="#5c7040"/>
    <path id="Trazado_820165" data-name="Trazado 820165" d="M219.677,556.307a.939.939,0,1,1,.939-.939.94.94,0,0,1-.939.939m0-1.493a.554.554,0,1,0,.554.554.554.554,0,0,0-.554-.554" transform="translate(-155.603 -394.402)" fill="#5c7040"/>
    <path id="Trazado_820166" data-name="Trazado 820166" d="M211.675,568.824a1.276,1.276,0,1,1,1.276-1.276,1.277,1.277,0,0,1-1.276,1.276m0-2.167a.891.891,0,1,0,.891.891.892.892,0,0,0-.891-.891" transform="translate(-149.671 -402.826)" fill="#5c7040"/>
    <path id="Trazado_820167" data-name="Trazado 820167" d="M195.04,568.084a1.155,1.155,0,1,1,1.155-1.155,1.157,1.157,0,0,1-1.155,1.155m0-1.926a.77.77,0,1,0,.77.77.771.771,0,0,0-.77-.77" transform="translate(-137.923 -402.472)" fill="#5c7040"/>
    <path id="Trazado_820168" data-name="Trazado 820168" d="M201.04,584.754a.65.65,0,1,1,.65-.65.651.651,0,0,1-.65.65m0-.915a.265.265,0,1,0,.265.265.265.265,0,0,0-.265-.265" transform="translate(-142.551 -415.049)" fill="#5c7040"/>
    <path id="Trazado_820169" data-name="Trazado 820169" d="M70.4,565.49l-.342-.047a20.191,20.191,0,0,0-1.807-10.056,60.018,60.018,0,0,0-3.811-6.223c-4.868-7.393-11.534-17.518-7.328-20.991,3.919-3.238,1.9-6.527-1.146-11.508a66.154,66.154,0,0,1-3.494-6.224c-2.58-5.429-2.855-10.529-.7-12.994,1.1-1.264,3.376-2.462,7.965-1,9.754,3.106,12.975,23,13.107,23.848l-.339.053c-.032-.206-3.32-20.532-12.871-23.575-3.49-1.109-6.118-.8-7.6.9-2.063,2.361-1.766,7.316.755,12.622a66.186,66.186,0,0,0,3.475,6.191c3.032,4.949,5.222,8.524,1.072,11.951-3.966,3.276,2.6,13.253,7.4,20.537a60.174,60.174,0,0,1,3.836,6.268A20.59,20.59,0,0,1,70.4,565.49" transform="translate(-35.804 -352.678)" fill="#5c7040"/>
    <path id="Trazado_820170" data-name="Trazado 820170" d="M87.887,559.506l-.34.05c-.029-.2-3.04-20.546-10.039-34.556l.308-.154c7.024,14.06,10.042,34.455,10.072,34.659" transform="translate(-55.137 -373.358)" fill="#5c7040"/>
    <path id="Trazado_820171" data-name="Trazado 820171" d="M80.97,545.229,75.132,541.8l.174-.3,5.4,3.166,1.3-9,.339.05Z" transform="translate(-53.446 -381.058)" fill="#5c7040"/>
    <path id="Trazado_820172" data-name="Trazado 820172" d="M113.655,586.544c-2.386-9.545-5.369-13.919-10.141-21.674-4.149-6.742-1.79-10.141,4.971-12.925s-7.158-21.674-1.193-27.44,12.925-5.369,15.112,3.38-2.585,21.276,4.176,19.685,8.749,6.562,3.579,15.311-11.533,23.662-11.533,23.662Z" transform="translate(-72.173 -370.379)" fill="#5c7040"/>
    <path id="Trazado_820173" data-name="Trazado 820173" d="M148.753,606.491a.318.318,0,0,1-.079-.011.281.281,0,0,1-.191-.348c4.183-14.138.974-49.031-1.592-58.3a.278.278,0,0,1,.195-.344.271.271,0,0,1,.344.2c2.58,9.318,5.8,44.39,1.592,58.611a.283.283,0,0,1-.269.2" transform="translate(-104.486 -389.45)" fill="#3c251d"/>
    <path id="Trazado_820174" data-name="Trazado 820174" d="M144.37,638.369a.278.278,0,0,1-.276-.236c-.775-4.943-6.059-11.935-6.112-12a.278.278,0,0,1,.055-.392.285.285,0,0,1,.392.052c.221.291,5.422,7.174,6.217,12.257a.277.277,0,0,1-.232.32.156.156,0,0,1-.044,0" transform="translate(-98.115 -445.088)" fill="#3c251d"/>
    <path id="Trazado_820175" data-name="Trazado 820175" d="M137.781,568.232a.283.283,0,0,1-.254-.16c-1.833-3.858-6.309-6.615-6.355-6.644a.28.28,0,0,1,.293-.477,19.69,19.69,0,0,1,6.283,6.325c.563-1.4,1.942-4.713,2.617-5.389a.283.283,0,0,1,.4,0,.287.287,0,0,1,0,.4c-.62.617-2.174,4.373-2.722,5.77a.282.282,0,0,1-.252.177Z" transform="translate(-93.216 -399.011)" fill="#3c251d"/>
    <path id="Trazado_820176" data-name="Trazado 820176" d="M27.639,675.4a.16.16,0,0,1-.039,0c-.245-.051-24.465-5.413-27.6-31.124a.193.193,0,0,1,.051-.155.2.2,0,0,1,.152-.06c.241.015,24.185,1.639,31.251,12.557a.193.193,0,0,1-.324.211C24.543,646.64,2.9,644.654.413,644.458c3.216,25.232,27.024,30.511,27.266,30.562a.192.192,0,0,1-.04.381" transform="translate(0 -458.159)" fill="#5c7040"/>
    <path id="Trazado_820177" data-name="Trazado 820177" d="M32.86,669.358a.193.193,0,0,1-.118-.041L8.018,650.112a.194.194,0,0,1-.034-.271.191.191,0,0,1,.27-.033l24.724,19.206a.192.192,0,0,1-.118.345" transform="translate(-5.651 -462.222)" fill="#5c7040"/>
    <path id="Trazado_820178" data-name="Trazado 820178" d="M24.77,669.528a.192.192,0,0,1-.022-.384l7.958-.908-1.387-6.314a.192.192,0,0,1,.147-.229.2.2,0,0,1,.229.147l1.433,6.522a.193.193,0,0,1-.166.232l-8.17.931-.022,0" transform="translate(-17.484 -470.704)" fill="#5c7040"/>
    <path id="Trazado_820179" data-name="Trazado 820179" d="M52.686,705.769a.192.192,0,0,1-.039-.381l7.238-1.5a.19.19,0,0,1,.228.149.192.192,0,0,1-.15.227l-7.238,1.5a.163.163,0,0,1-.039,0" transform="translate(-37.342 -500.715)" fill="#5c7040"/>
    <path id="Trazado_820180" data-name="Trazado 820180" d="M147.151,658.875c4.73-19.779,14.4-32.033,26.013-36.333s11.072,16.339,4.73,16.769c-5.375.365-6.019-4.3-6.019-4.3s-12.469,9.674-14.619,23.648Z" transform="translate(-104.678 -442.436)" fill="#779158"/>
    <path id="Trazado_820181" data-name="Trazado 820181" d="M231.68,650.3a.283.283,0,0,1-.278-.243c-.578-4.413.418-6.327.46-6.408a.281.281,0,0,1,.495.265c-.009.018-.95,1.864-.4,6.068a.281.281,0,0,1-.241.315.22.22,0,0,1-.037,0" transform="translate(-164.483 -457.767)" fill="#3c251d"/>
    <path id="Trazado_820182" data-name="Trazado 820182" d="M165.081,679.818a.377.377,0,0,1-.046,0,.277.277,0,0,1-.23-.322c2.426-14.7,18.927-27.849,19.093-27.98a.281.281,0,0,1,.346.442c-.164.129-16.5,13.146-18.887,27.629a.278.278,0,0,1-.276.234" transform="translate(-117.234 -463.421)" fill="#3c251d"/>
    <path id="Trazado_820183" data-name="Trazado 820183" d="M177.938,710.655c2.091-8.747,6.37-14.166,11.5-16.067s4.9,7.225,2.091,7.416a2.327,2.327,0,0,1-2.662-1.9s-5.514,4.278-6.465,10.458Z" transform="translate(-126.579 -493.921)" fill="#5c7040"/>
    <path id="Trazado_820184" data-name="Trazado 820184" d="M98.83,646.085c.215-10.749,1.72-21.069-1.935-21.714s-6.665,4.515-7.094-1.5.86-14.619-3.44-17.414-10.1-1.29-9.029,5.59,4.73,11.394,3.655,13.114-7.739-1.5-7.954,2.58S83.565,646.3,83.565,646.3Z" transform="translate(-51.95 -429.754)" fill="#8fa274"/>
    <path id="Trazado_820185" data-name="Trazado 820185" d="M114.6,657.459a.281.281,0,0,1-.276-.226c-.064-.326-6.46-32.723-7.735-37.462a.281.281,0,0,1,.543-.145c1.277,4.756,7.677,37.171,7.743,37.5a.283.283,0,0,1-.221.331c-.02,0-.037,0-.055,0" transform="translate(-75.814 -440.633)" fill="#3c251d"/>
    <path id="Trazado_820186" data-name="Trazado 820186" d="M103.223,695.255a.28.28,0,0,1-.18-.066c-2.639-2.22-8.348-3.438-8.4-3.451a.278.278,0,0,1-.217-.331.285.285,0,0,1,.331-.217c.241.05,5.9,1.257,8.65,3.569a.28.28,0,0,1-.18.5" transform="translate(-67.164 -491.686)" fill="#3c251d"/>
    <path id="Trazado_820187" data-name="Trazado 820187" d="M128.459,697.713a.254.254,0,0,1-.068-.009.28.28,0,0,1-.2-.339c.942-3.764,6.37-8.88,6.6-9.095a.272.272,0,0,1,.394.013.276.276,0,0,1-.013.394c-.055.053-5.538,5.219-6.44,8.823a.28.28,0,0,1-.272.212" transform="translate(-91.182 -489.556)" fill="#3c251d"/>
    <path id="Trazado_820188" data-name="Trazado 820188" d="M102.254,634.7a.28.28,0,0,1-.261-.175c-.444-1.11-3.024-3.026-3.981-3.67a.281.281,0,1,1,.315-.464c.144.1,3.587,2.43,4.187,3.924a.283.283,0,0,1-.156.366.3.3,0,0,1-.105.02" transform="translate(-69.635 -448.407)" fill="#3c251d"/>
    <path id="Trazado_820189" data-name="Trazado 820189" d="M115.794,649.293a.462.462,0,0,1-.053,0,.282.282,0,0,1-.223-.328,14.113,14.113,0,0,1,2.42-4.849.279.279,0,1,1,.442.342,13.815,13.815,0,0,0-2.31,4.612.281.281,0,0,1-.276.228" transform="translate(-82.172 -458.12)" fill="#3c251d"/>
    <path id="Trazado_820190" data-name="Trazado 820190" d="M160.257,634.356a.239.239,0,0,1-.094-.018.277.277,0,0,1-.169-.357c1.2-3.346,5.974-7.5,6.175-7.676a.279.279,0,0,1,.4.029.283.283,0,0,1-.029.4c-.048.042-4.863,4.233-6.018,7.439a.276.276,0,0,1-.263.186" transform="translate(-113.803 -445.483)" fill="#3c251d"/>
    <path id="Trazado_820191" data-name="Trazado 820191" d="M360.239,754.943H22.6a2.631,2.631,0,0,1,0-5.127H360.239a2.631,2.631,0,0,1,0,5.127" transform="translate(-14.624 -533.393)" fill="#1a2e3c"/>
    <path id="Trazado_820192" data-name="Trazado 820192" d="M713.053,156.134h-89.3a5.2,5.2,0,0,0-5.2,5.2v44.253a5.2,5.2,0,0,0,5.2,5.2h89.3a5.2,5.2,0,0,0,5.2-5.2V161.332a5.2,5.2,0,0,0-5.2-5.2" transform="translate(-440.02 -111.068)" fill="#fff"/>
    <path id="Trazado_820193" data-name="Trazado 820193" d="M832.975,219.085H803.589a6.024,6.024,0,0,1-6.016-6.016V182.3a6.024,6.024,0,0,1,6.016-6.016h29.386a6.022,6.022,0,0,1,6.014,6.016v30.766a6.022,6.022,0,0,1-6.014,6.016M803.589,177.47a4.838,4.838,0,0,0-4.833,4.833v30.766a4.838,4.838,0,0,0,4.833,4.833h29.386a4.837,4.837,0,0,0,4.83-4.833V182.3a4.837,4.837,0,0,0-4.83-4.833Z" transform="translate(-567.366 -125.405)" fill="#add9e0"/>
    <path id="Trazado_820194" data-name="Trazado 820194" d="M827.117,201.388H814.4a.592.592,0,0,1,0-1.183h12.721a.592.592,0,0,1,0,1.183" transform="translate(-578.913 -142.419)" fill="#add9e0"/>
    <path id="Trazado_820195" data-name="Trazado 820195" d="M888.11,201.388H874.354a.592.592,0,0,1,0-1.183H888.11a.592.592,0,1,1,0,1.183" transform="translate(-621.565 -142.419)" fill="#add9e0"/>
    <path id="Trazado_820196" data-name="Trazado 820196" d="M844.639,217.787h-29.73a.592.592,0,1,1,0-1.183h29.73a.592.592,0,1,1,0,1.183" transform="translate(-579.277 -154.085)" fill="#add9e0"/>
    <path id="Trazado_820197" data-name="Trazado 820197" d="M833.407,232.136H813.883a.592.592,0,1,1,0-1.183h19.525a.592.592,0,1,1,0,1.183" transform="translate(-578.547 -164.292)" fill="#add9e0"/>
    <path id="Trazado_820198" data-name="Trazado 820198" d="M827.117,268.352H814.4a.592.592,0,0,1,0-1.183h12.721a.592.592,0,0,1,0,1.183" transform="translate(-578.913 -190.055)" fill="#add9e0"/>
    <path id="Trazado_820199" data-name="Trazado 820199" d="M888.11,268.352H874.354a.592.592,0,0,1,0-1.183H888.11a.592.592,0,1,1,0,1.183" transform="translate(-621.565 -190.055)" fill="#add9e0"/>
    <path id="Trazado_820200" data-name="Trazado 820200" d="M844.639,284.751h-29.73a.592.592,0,1,1,0-1.183h29.73a.592.592,0,1,1,0,1.183" transform="translate(-579.277 -201.721)" fill="#add9e0"/>
    <path id="Trazado_820201" data-name="Trazado 820201" d="M833.407,299.1H813.883a.592.592,0,0,1,0-1.183h19.525a.592.592,0,1,1,0,1.183" transform="translate(-578.547 -211.928)" fill="#add9e0"/>
    <path id="Trazado_820202" data-name="Trazado 820202" d="M843.683,253.146H814.4a.592.592,0,0,1,0-1.183h29.287a.592.592,0,0,1,0,1.183" transform="translate(-578.912 -179.238)" fill="#add9e0"/>
    <path id="Trazado_820203" data-name="Trazado 820203" d="M713.053,394.06h-89.3a5.2,5.2,0,0,0-5.2,5.2v44.253a5.2,5.2,0,0,0,5.2,5.2h89.3a5.2,5.2,0,0,0,5.2-5.2V399.258a5.2,5.2,0,0,0-5.2-5.2" transform="translate(-440.02 -280.321)" fill="#fff"/>
    <path id="Trazado_820204" data-name="Trazado 820204" d="M832.975,457.012H803.589A6.024,6.024,0,0,1,797.573,451V420.23a6.024,6.024,0,0,1,6.016-6.016h29.386a6.022,6.022,0,0,1,6.014,6.016V451a6.021,6.021,0,0,1-6.014,6.016M803.589,415.4a4.838,4.838,0,0,0-4.833,4.833V451a4.838,4.838,0,0,0,4.833,4.833h29.386a4.837,4.837,0,0,0,4.83-4.833V420.23a4.837,4.837,0,0,0-4.83-4.833Z" transform="translate(-567.366 -294.658)" fill="#add9e0"/>
    <path id="Trazado_820205" data-name="Trazado 820205" d="M827.117,439.314H814.4a.592.592,0,0,1,0-1.183h12.721a.592.592,0,0,1,0,1.183" transform="translate(-578.913 -311.671)" fill="#add9e0"/>
    <path id="Trazado_820206" data-name="Trazado 820206" d="M888.11,439.314H874.354a.592.592,0,0,1,0-1.183H888.11a.592.592,0,1,1,0,1.183" transform="translate(-621.565 -311.671)" fill="#add9e0"/>
    <path id="Trazado_820207" data-name="Trazado 820207" d="M844.639,455.713h-29.73a.592.592,0,1,1,0-1.183h29.73a.592.592,0,1,1,0,1.183" transform="translate(-579.277 -323.337)" fill="#add9e0"/>
    <path id="Trazado_820208" data-name="Trazado 820208" d="M833.407,470.062H813.883a.592.592,0,0,1,0-1.183h19.525a.592.592,0,1,1,0,1.183" transform="translate(-578.547 -333.544)" fill="#add9e0"/>
    <path id="Trazado_820209" data-name="Trazado 820209" d="M827.117,506.278H814.4a.592.592,0,0,1,0-1.183h12.721a.592.592,0,0,1,0,1.183" transform="translate(-578.913 -359.307)" fill="#add9e0"/>
    <path id="Trazado_820210" data-name="Trazado 820210" d="M888.11,506.278H874.354a.592.592,0,0,1,0-1.183H888.11a.592.592,0,1,1,0,1.183" transform="translate(-621.565 -359.307)" fill="#add9e0"/>
    <path id="Trazado_820211" data-name="Trazado 820211" d="M844.639,522.677h-29.73a.592.592,0,1,1,0-1.183h29.73a.592.592,0,1,1,0,1.183" transform="translate(-579.277 -370.973)" fill="#add9e0"/>
    <path id="Trazado_820212" data-name="Trazado 820212" d="M833.407,537.026H813.883a.592.592,0,0,1,0-1.183h19.525a.592.592,0,1,1,0,1.183" transform="translate(-578.547 -381.18)" fill="#add9e0"/>
    <path id="Trazado_820213" data-name="Trazado 820213" d="M843.683,491.073H814.4a.592.592,0,0,1,0-1.183h29.287a.592.592,0,0,1,0,1.183" transform="translate(-578.912 -348.491)" fill="#add9e0"/>
    <path id="Trazado_820214" data-name="Trazado 820214" d="M699.047,190.066s13.031,1.123,0-19.546c0,0-13.143,19.546,0,19.546" transform="translate(-493.123 -121.302)" fill="#779158"/>
    <path id="Trazado_820215" data-name="Trazado 820215" d="M721.31,239.655s6.137,7.51,10.394-10.1c0,0-17.186,3.112-10.394,10.1" transform="translate(-511.985 -163.297)" fill="#779158"/>
    <path id="Trazado_820216" data-name="Trazado 820216" d="M676.8,239.655s-6.137,7.51-10.394-10.1c0,0,17.186,3.112,10.394,10.1" transform="translate(-474.055 -163.297)" fill="#779158"/>
    <rect id="Rectángulo_378081" data-name="Rectángulo 378081" width="0.674" height="23.111" transform="translate(205.644 67.248)" fill="#779158"/>
    <path id="Trazado_820217" data-name="Trazado 820217" d="M703.507,261.877l-3.916-2.455.358-.571,3.61,2.264L708.282,259l.276.615Z" transform="translate(-497.665 -184.138)" fill="#779158"/>
    <path id="Trazado_820218" data-name="Trazado 820218" d="M712.835,193.846a.168.168,0,0,1-.169-.169v-17.1a.169.169,0,0,1,.337,0v17.1a.168.168,0,0,1-.169.169" transform="translate(-506.966 -125.489)" fill="#adbe9c"/>
    <path id="Trazado_820219" data-name="Trazado 820219" d="M705.525,200.063h0a.169.169,0,0,1-.12-.05l-2.907-2.949a.169.169,0,0,1,.241-.236l2.786,2.827,2.871-2.911a.169.169,0,0,1,.24.236l-2.991,3.033a.17.17,0,0,1-.12.05" transform="translate(-499.699 -139.921)" fill="#adbe9c"/>
    <path id="Trazado_820220" data-name="Trazado 820220" d="M705.09,220.423A.171.171,0,0,1,705,220.4l-3.2-1.938a.168.168,0,1,1,.174-.288l3.113,1.884,2.734-1.714a.169.169,0,0,1,.179.285L705.18,220.4a.17.17,0,0,1-.09.026" transform="translate(-499.18 -155.184)" fill="#adbe9c"/>
    <path id="Trazado_820221" data-name="Trazado 820221" d="M726.427,241.767a.112.112,0,0,1,.006-.158l8.321-7.678a.112.112,0,0,1,.151.164l-8.321,7.678a.111.111,0,0,1-.157-.006" transform="translate(-516.734 -166.39)" fill="#adbe9c"/>
    <path id="Trazado_820222" data-name="Trazado 820222" d="M740.207,241.1h0a.112.112,0,0,1-.029-.081l.13-2.738a.112.112,0,0,1,.223.011l-.125,2.625,2.705.09a.111.111,0,0,1-.007.223l-2.818-.094a.111.111,0,0,1-.079-.036" transform="translate(-526.537 -169.426)" fill="#adbe9c"/>
    <path id="Trazado_820223" data-name="Trazado 820223" d="M730.528,249.93a.115.115,0,0,1-.027-.053l-.494-2.427a.112.112,0,0,1,.219-.044l.481,2.36,2.061.561a.112.112,0,1,1-.059.215l-2.128-.579a.111.111,0,0,1-.053-.032" transform="translate(-519.3 -175.932)" fill="#adbe9c"/>
    <path id="Trazado_820224" data-name="Trazado 820224" d="M681.121,242.55a.111.111,0,0,1-.157.017l-8.82-7.1a.112.112,0,1,1,.14-.174l8.82,7.1a.111.111,0,0,1,.017.157" transform="translate(-478.111 -167.364)" fill="#adbe9c"/>
    <path id="Trazado_820225" data-name="Trazado 820225" d="M681.4,241.4h0a.11.11,0,0,1-.076.041l-2.727.275a.112.112,0,1,1-.022-.222l2.614-.264-.31-2.689a.111.111,0,1,1,.221-.026l.323,2.8a.111.111,0,0,1-.024.083" transform="translate(-482.644 -169.605)" fill="#adbe9c"/>
    <path id="Trazado_820226" data-name="Trazado 820226" d="M691.612,250.09a.115.115,0,0,1-.049.035l-2.328.847a.112.112,0,0,1-.076-.21l2.264-.823.251-2.122a.112.112,0,0,1,.222.026l-.259,2.19a.112.112,0,0,1-.024.057" transform="translate(-490.192 -176.218)" fill="#adbe9c"/>
    <path id="Trazado_820227" data-name="Trazado 820227" d="M692.387,299.682,681.7,290a4.551,4.551,0,0,0-6.056-.071l-11.457,9.906s28.424.077,28.2-.153" transform="translate(-472.481 -205.45)" fill="#c2764e"/>
    <path id="Trazado_820228" data-name="Trazado 820228" d="M711.393,297.43a.65.65,0,1,0-.65.65.65.65,0,0,0,.65-.65" transform="translate(-505.136 -211.119)" fill="#684035"/>
    <path id="Trazado_820229" data-name="Trazado 820229" d="M693.745,309.566a1.7,1.7,0,1,0-1.7,1.7,1.7,1.7,0,0,0,1.7-1.7" transform="translate(-491.088 -219.005)" fill="#684035"/>
    <path id="Trazado_820230" data-name="Trazado 820230" d="M727,305.927a1.525,1.525,0,1,0-1.525,1.525A1.525,1.525,0,0,0,727,305.927" transform="translate(-514.994 -216.541)" fill="#684035"/>
    <path id="Trazado_820231" data-name="Trazado 820231" d="M718.649,316.561a.9.9,0,1,0-.9.9.9.9,0,0,0,.9-.9" transform="translate(-509.942 -224.55)" fill="#684035"/>
    <path id="Trazado_820232" data-name="Trazado 820232" d="M740.078,316.363a.875.875,0,1,0-.875.875.875.875,0,0,0,.875-.875" transform="translate(-525.221 -224.427)" fill="#684035"/>
    <path id="Trazado_820233" data-name="Trazado 820233" d="M679.623,317.23a.875.875,0,1,0-.875.875.875.875,0,0,0,.875-.875" transform="translate(-482.216 -225.044)" fill="#684035"/>
    <path id="Trazado_820234" data-name="Trazado 820234" d="M1011.212,122.271a.673.673,0,0,1-.487.311.684.684,0,0,1-.567-.211,97.676,97.676,0,0,0-10.952-9.533,2.712,2.712,0,0,1-1.212,1.718c-.41.236-3.813,1.629-4.4.763-.236-.345.052-.806.147-.957a7.217,7.217,0,0,1,1.1-1.254c-1.114.45-3.339,1.175-3.8.494-.236-.345.052-.806.147-.957a6.1,6.1,0,0,1,.794-.956c-1.08.611-2.714,1.358-3.209.821-.28-.3-.159-.847.382-1.71.066-.1.136-.211.21-.317-1.281.754-3.758,1.944-4.393,1.237-.3-.339-.164-.961.427-1.9.107-.171.225-.345.349-.518-1.364.988-3.795,2.443-4.542,1.749-.611-.567.2-2.182.985-3.436a12.585,12.585,0,0,1,1.381-1.865,3.9,3.9,0,0,1,1.526-.867c-.572-.19-1.145-.365-1.7-.531a2.464,2.464,0,0,1-.434,2.049,4.1,4.1,0,0,1-1.22,1.271c-.817.514-5.693,2.62-6.548,1.454-.243-.331-.152-.823.278-1.509a16.316,16.316,0,0,1,3.216-3.367,5.22,5.22,0,0,1-2.406-.112c-.987-.316-6.1-2.752-5.746-4.063a.589.589,0,0,1,.068-.157c.692-1.1,5.9-.186,6.8.1a4.84,4.84,0,0,1,1.066.515C977.309,99,975.906,96.8,976.38,96.04a.621.621,0,0,1,.091-.111c.984-.933,5.55,2.414,6.3,3.133a5.227,5.227,0,0,1,1.1,1.684c-.332-1.464-.6-3.369-.169-4.054a.62.62,0,0,1,.341-.276c1.214-.376,3.784,3.945,4.135,4.789a3.646,3.646,0,0,1,.2.682,6.307,6.307,0,0,1,.471-2.644.665.665,0,0,1,.491-.35c1.152-.115,2.621,4.008,2.775,4.79a5.527,5.527,0,0,1,.549-1.493c.191-.3.406-.45.642-.434,1.04.071,1.583,3.728,1.588,4.2a2.655,2.655,0,0,1-.941,2.01c.352.216.7.432,1.04.644a2.837,2.837,0,0,1-.23-1.025,9.7,9.7,0,0,1,.888-3.572c.2-.313.418-.461.655-.444.786.059,1.271,2.168,1.46,3.4a5.078,5.078,0,0,1,.493-1.248c.2-.312.417-.46.655-.443,1.039.079,1.551,3.739,1.553,4.214a2.59,2.59,0,0,1-1.049,2.057,75.537,75.537,0,0,1,11.7,9.908.651.651,0,0,1,.1.811M998.7,112.194a.292.292,0,0,1,.044-.053.238.238,0,0,1,.3-.012,96.831,96.831,0,0,1,11.455,9.907.221.221,0,0,0,.18.078c.114-.012.286-.132.1-.328a76.006,76.006,0,0,0-12.347-10.343.235.235,0,0,1-.074-.081.242.242,0,0,1-.108-.04l-.139-.095c-.7-.479-1.408-.956-2.119-1.409a.238.238,0,0,1-.083-.308.261.261,0,0,1,.3-.109.757.757,0,0,1,.114.061c.248.038.5-.144.708-.479a2.41,2.41,0,0,0,.362-1.193c-.007-1.034-.694-3.712-1.116-3.744-.023,0-.1.035-.221.223a9.2,9.2,0,0,0-.817,3.319,2.711,2.711,0,0,0,.658,1.606.247.247,0,0,1,.011.313.237.237,0,0,1-.308.05l-.13-.087c-.7-.44-1.441-.9-2.2-1.366a.239.239,0,0,1-.1-.27.235.235,0,0,1,.238-.167c.218.01.459-.169.661-.492a2.4,2.4,0,0,0,.36-1.206c-.015-1.035-.726-3.71-1.152-3.739-.017,0-.1.036-.208.214a9.277,9.277,0,0,0-.793,3.341,2.715,2.715,0,0,0,.643,1.566.236.236,0,0,1-.3.36q-.948-.572-1.939-1.126a.238.238,0,0,1-.115-.253.231.231,0,0,1,.207-.187.816.816,0,0,0,.549-.42,3,3,0,0,0,.336-1.946c-.234-1.186-1.687-4.47-2.265-4.413-.038,0-.089.052-.139.131-.493.787-.467,3.668-.3,4.508a3.661,3.661,0,0,0,.886,1.6.239.239,0,0,1,.015.3.234.234,0,0,1-.3.067c-.856-.451-1.746-.875-2.644-1.26a.235.235,0,0,1-.136-.277.241.241,0,0,1,.252-.176c.051.006.1.016.153.027a.551.551,0,0,0,.146.02.7.7,0,0,0,.379-.32,3.361,3.361,0,0,0,.041-2.6c-.555-1.333-2.915-4.72-3.559-4.519a.164.164,0,0,0-.08.076c-.47.749.251,4.263.688,5.312a4.36,4.36,0,0,0,1.374,1.642.237.237,0,0,1,.069.3l-.008.012a.236.236,0,0,1-.284.1,19.874,19.874,0,0,0-3.31-.958.236.236,0,0,1-.189-.26.239.239,0,0,1,.246-.208,1.05,1.05,0,0,0,.786-.195c.6-.582-.128-2.417-1.03-3.285-1.188-1.147-5.121-3.63-5.644-3.132-.4.645,2.091,4.309,3.221,5.4a5.056,5.056,0,0,0,1.925,1.077.235.235,0,0,1,.162.276.229.229,0,0,1-.264.184c-.39-.055-.726-.093-1.031-.116.248.076.495.148.743.222l.193.057a.237.237,0,0,1,.165.268.242.242,0,0,1-.248.194,4.321,4.321,0,0,0-2.347.54,15.3,15.3,0,0,0-3.452,3.493c-.293.467-.4.833-.3.978.505.688,4.739-.833,5.917-1.574a3.7,3.7,0,0,0,1.07-1.123c.363-.58.629-1.368.283-1.84a.885.885,0,0,0-.217-.2.236.236,0,0,1-.078-.3.226.226,0,0,1,.279-.126c1.052.305,2.171.636,3.271,1.034a.236.236,0,0,1-.071.457,3.561,3.561,0,0,0-2.12.9,11.743,11.743,0,0,0-1.315,1.78c-1.042,1.661-1.283,2.636-1.064,2.839.514.478,3.8-1.486,4.756-2.434.615-.6,1.15-2.038.694-2.717a.223.223,0,0,1,.014-.282.236.236,0,0,1,.274-.068l.321.13c.24.1.48.193.72.309.378.182.75.384,1.12.585.208.113.414.226.622.335a.235.235,0,0,1,.116.277.228.228,0,0,1-.249.168,3.176,3.176,0,0,0-2.047.583,12.76,12.76,0,0,0-2.069,2.479c-.544.866-.554,1.247-.476,1.336.41.457,3.5-.993,4.439-1.742a2.486,2.486,0,0,0,.53-.615,1.8,1.8,0,0,0,.288-1.705.246.246,0,0,1,.026-.288.238.238,0,0,1,.286-.047c.751.409,1.429.781,2.106,1.179a.236.236,0,0,1,.1.283.24.24,0,0,1-.258.155,2.544,2.544,0,0,0-1.711.492,10.376,10.376,0,0,0-1.577,1.934c-.491.783-.478,1.092-.434,1.14.289.314,2.739-.829,3.523-1.475a1.943,1.943,0,0,0,.389-.46,1.442,1.442,0,0,0,.236-1.38.228.228,0,0,1,.028-.292.235.235,0,0,1,.291-.04l.532.319c.59.351,1.179.7,1.754,1.071l.065.045a.268.268,0,0,1,.108.317.23.23,0,0,1-.263.139,2.623,2.623,0,0,0-1.831.218,9.688,9.688,0,0,0-2.364,2.242c-.181.287-.176.415-.159.44.239.351,2.886-.393,3.777-.9a2.37,2.37,0,0,0,.751-.757c.257-.41.323-.786.176-1a.236.236,0,0,1,.326-.329c.629.413,1.244.849,1.838,1.271l.156.11a.237.237,0,0,1,.077.293.225.225,0,0,1-.274.128,2.668,2.668,0,0,0-1.746.229,9.684,9.684,0,0,0-2.364,2.242c-.181.287-.176.415-.158.44.24.353,2.885-.392,3.776-.906a2.253,2.253,0,0,0,.733-.738,1.06,1.06,0,0,0,.2-.978.235.235,0,0,1,.007-.237m-.115-1.181a.236.236,0,0,1,.106.038.733.733,0,0,0,.257.139c.318.024.584-.341.684-.5a2.41,2.41,0,0,0,.362-1.192c-.007-1.034-.693-3.713-1.116-3.745-.022,0-.1.035-.22.222a9.168,9.168,0,0,0-.816,3.321,2.671,2.671,0,0,0,.7,1.663.242.242,0,0,1,.042.055m-2.223.9a3.068,3.068,0,0,1,1.128-.3c-.267-.188-.538-.378-.813-.565a1.994,1.994,0,0,1-.315.86m.5-2.1c.245.161.487.323.731.487a2.881,2.881,0,0,1-.217-.991,1.647,1.647,0,0,1-.515.5m-3.353.559c.079-.053.149-.1.21-.133a3.091,3.091,0,0,1,1.2-.35c-.351-.215-.7-.42-1.038-.625l-.042-.024a2.412,2.412,0,0,1-.329,1.133m-2.486-1.762a3.21,3.21,0,0,1,1.047-.42c-.293-.165-.592-.331-.9-.5a2.358,2.358,0,0,1-.147.919m.308-2.209q.359.2.714.411a2.884,2.884,0,0,1-.24-.992,1.621,1.621,0,0,1-.474.582m-3.957.99c.075-.071.142-.13.2-.176a3.536,3.536,0,0,1,1.514-.64c-.326-.178-.654-.353-.986-.514-.173-.082-.345-.155-.518-.226a3.006,3.006,0,0,1-.209,1.556m.422-2.811q.549.249,1.092.516a3.437,3.437,0,0,1-.4-1.01,6.292,6.292,0,0,1-.077-.7,1.924,1.924,0,0,1-.613,1.2m-4.081-1.478q.658.164,1.321.379a4.073,4.073,0,0,1-.677-1.049c-.054-.129-.121-.331-.2-.582a1.436,1.436,0,0,1-.359,1.176c-.028.027-.059.052-.089.077M971,100.17c-.2.727,3.852,3.017,5.421,3.519,1.179.376,3.14.139,3.37-.655,0-.011,0-.022-.005-.034h0c0-.008,0-.017,0-.024a.294.294,0,0,1,0-.052c.07-.826-1.367-2.084-2.53-2.455-1.517-.484-5.852-.943-6.256-.3" transform="translate(-690.388 -68.125)" fill="#ebb241"/>
    <path id="Trazado_820235" data-name="Trazado 820235" d="M637.025,475.421a107.6,107.6,0,0,0,18.863-13.22,87.32,87.32,0,0,0,7.453-7.472c2.376-2.726,3.861-5.635,5.8-8.592a.182.182,0,0,1,.34.126c-1.729,6.2-7.862,11.764-12.531,16.038a96.876,96.876,0,0,1-19.444,14.03.516.516,0,1,1-.483-.91" transform="translate(-452.947 -317.297)" fill="#ebb241"/>
    <path id="Trazado_820236" data-name="Trazado 820236" d="M747.909,416.842c.864-1.327,5.131-5.984,6.233-5.34s-1.378,6.344-2.242,7.67-3.11,2.881-4.212,2.238-.642-3.241.222-4.568" transform="translate(-531.418 -292.685)" fill="#ebb241"/>
    <path id="Trazado_820237" data-name="Trazado 820237" d="M728.393,428.265c-.426-1.41-1.05-7.31.233-7.8s3.988,4.616,4.414,6.025.053,4.013-1.23,4.5-2.991-1.319-3.417-2.728" transform="translate(-517.775 -299.081)" fill="#ebb241"/>
    <path id="Trazado_820238" data-name="Trazado 820238" d="M716.516,449.323c-.64-1.135-2.28-6.1-1.222-6.749s4.413,3.248,5.053,4.383.783,3.441-.275,4.095-2.917-.593-3.557-1.728" transform="translate(-508.589 -314.779)" fill="#ebb241"/>
    <path id="Trazado_820239" data-name="Trazado 820239" d="M708.579,463.39c-.461-1.07-1.463-5.648-.477-6.14s3.586,3.288,4.047,4.358.384,3.145-.6,3.637-2.507-.784-2.968-1.854" transform="translate(-503.421 -325.24)" fill="#ebb241"/>
    <path id="Trazado_820240" data-name="Trazado 820240" d="M701.352,476.808c-.389-.864-1.262-4.569-.465-4.981s2.961,2.626,3.351,3.49.352,2.549-.445,2.961-2.052-.606-2.441-1.47" transform="translate(-498.356 -335.614)" fill="#ebb241"/>
    <path id="Trazado_820241" data-name="Trazado 820241" d="M692.827,485c-.241-.927-.5-4.779.34-5.067s2.462,3.1,2.7,4.024-.063,2.611-.9,2.9-1.9-.93-2.14-1.857" transform="translate(-492.686 -341.392)" fill="#ebb241"/>
    <path id="Trazado_820242" data-name="Trazado 820242" d="M682.988,493.478c-.241-.927-.5-4.779.34-5.067s2.462,3.1,2.7,4.024-.063,2.611-.9,2.9-1.9-.93-2.14-1.856" transform="translate(-485.687 -347.427)" fill="#ebb241"/>
    <path id="Trazado_820243" data-name="Trazado 820243" d="M696.023,513.345c.93.249,4.8.548,5.1-.284s-3.089-2.481-4.019-2.73-2.627.035-2.925.868.915,1.9,1.844,2.147" transform="translate(-493.782 -362.969)" fill="#ebb241"/>
    <path id="Trazado_820244" data-name="Trazado 820244" d="M705.873,504.652c.93.249,4.8.548,5.1-.284s-3.089-2.481-4.019-2.731-2.627.035-2.925.868.915,1.9,1.844,2.147" transform="translate(-500.789 -356.785)" fill="#ebb241"/>
    <path id="Trazado_820245" data-name="Trazado 820245" d="M716.555,494.636c.933.242,4.81.508,5.1-.326s-3.112-2.453-4.045-2.7-2.629.057-2.92.891.932,1.889,1.864,2.13" transform="translate(-508.375 -349.66)" fill="#ebb241"/>
    <path id="Trazado_820246" data-name="Trazado 820246" d="M726.622,484.061c1.2.09,6.031-.416,6.21-1.471s-4.36-2.26-5.56-2.35-3.224.625-3.4,1.681,1.553,2.051,2.753,2.14" transform="translate(-514.927 -341.621)" fill="#ebb241"/>
    <path id="Trazado_820247" data-name="Trazado 820247" d="M738.815,469.523c1.381-.174,6.739-1.82,6.7-3.011s-5.461-1.476-6.841-1.3-3.51,1.413-3.471,2.6,2.231,1.883,3.612,1.709" transform="translate(-522.998 -330.902)" fill="#ebb241"/>
    <path id="Trazado_820248" data-name="Trazado 820248" d="M750.463,445.284c1.364-.808,6.2-4.872,5.6-6s-6.413,1.12-7.778,1.927-3.012,2.983-2.411,4.106,3.223.77,4.587-.038" transform="translate(-530.5 -312.276)" fill="#ebb241"/>
  </g>
</svg>
